<svg width="13" height="13" viewBox="0 0 13 13" fill="none" xmlns="http://www.w3.org/2000/svg">
<path fill-rule="evenodd" clip-rule="evenodd" d="M11.8182 6.5C11.8182 9.43715 9.43715 11.8182 6.5 11.8182C3.56285 11.8182 1.18182 9.43715 1.18182 6.5C1.18182 3.56285 3.56285 1.18182 6.5 1.18182C9.43715 1.18182 11.8182 3.56285 11.8182 6.5ZM13 6.5C13 10.0899 10.0899 13 6.5 13C2.91015 13 0 10.0899 0 6.5C0 2.91015 2.91015 0 6.5 0C10.0899 0 13 2.91015 13 6.5ZM7.14071 3.2H5.93537V4.40534H7.14071V3.2ZM7.14071 5.008H6.53932H5.93537H5.33398V6.21334H5.93537V9.22668H7.14071V5.008Z" fill="#505058"/>
</svg>
