<?xml version="1.0" encoding="utf-8"?>
<!-- Generator: Adobe Illustrator 26.5.0, SVG Export Plug-In . SVG Version: 6.00 Build 0)  -->
<svg version="1.1" id="Layer_1" xmlns="http://www.w3.org/2000/svg" xmlns:xlink="http://www.w3.org/1999/xlink" x="0px" y="0px"
	 viewBox="0 0 104 65" style="enable-background:new 0 0 104 65;" xml:space="preserve">
<style type="text/css">
	.st0{fill:#000600;}
</style>
<path class="st0" d="M7.31,29.1c-0.07-0.28-0.05-0.57-0.01-0.73c0.09-0.44,0.39-0.93,1.27-0.93c0.81,0,1.29,0.5,1.29,1.26
	c0,0.26,0,0.86,0,0.86h3.45v-0.97c0-3.01-2.71-3.49-4.67-3.49c-2.46,0-4.46,0.82-4.83,3.07c-0.1,0.62-0.12,1.17,0.03,1.86
	c0.6,2.83,5.51,3.65,6.23,5.43c0.13,0.33,0.09,0.76,0.03,1.02c-0.11,0.46-0.43,0.93-1.35,0.93c-0.86,0-1.38-0.5-1.38-1.26l0-1.33
	H3.63v1.06c0,3.09,2.43,4.02,5.03,4.02c2.5,0,4.55-0.85,4.89-3.17c0.17-1.19,0.04-1.97-0.01-2.26C12.95,31.58,7.7,30.72,7.31,29.1z
	 M52.28,29.13c-0.06-0.27-0.04-0.56-0.01-0.71c0.1-0.44,0.4-0.93,1.25-0.93c0.8,0,1.27,0.5,1.27,1.25c0,0.25,0,0.85,0,0.85h3.41
	v-0.96c0-2.98-2.67-3.45-4.61-3.45c-2.44,0-4.43,0.8-4.79,3.05c-0.1,0.61-0.12,1.15,0.03,1.84c0.59,2.8,5.46,3.61,6.17,5.37
	c0.12,0.33,0.09,0.76,0.03,1.01c-0.11,0.46-0.42,0.92-1.33,0.92c-0.86,0-1.38-0.49-1.38-1.24l0-1.33h-3.67v1.06
	c0,3.06,2.39,3.98,4.97,3.98c2.47,0,4.51-0.84,4.84-3.13c0.16-1.18,0.04-1.95-0.02-2.24C57.86,31.59,52.68,30.73,52.28,29.13z
	 M83.69,36.67l-3.26-11.13H75.3v13.69h3.39l-0.2-11.49l3.5,11.49h4.92V25.53H83.5L83.69,36.67z M18.44,25.53l-2.56,13.83h3.74
	l1.93-12.8l1.88,12.8h3.71l-2.55-13.83H18.44z M39.33,25.53l-1.74,10.81l-1.74-10.81H30.2l-0.3,13.83h3.46l0.09-12.8l2.38,12.8h3.51
	l2.38-12.8l0.09,12.8h3.47l-0.31-13.83H39.33z M71.46,25.53h-3.5v10.23c0.01,0.18,0,0.38-0.03,0.53c-0.07,0.34-0.36,1-1.33,1
	c-0.95,0-1.25-0.66-1.32-1c-0.04-0.15-0.04-0.35-0.04-0.53V25.53h-3.5v9.91c0,0.26,0.02,0.78,0.03,0.91
	c0.24,2.58,2.28,3.42,4.82,3.42c2.55,0,4.58-0.84,4.83-3.42c0.02-0.14,0.04-0.66,0.03-0.91V25.53z M95.48,31.6v2.02h1.42v2
	c0,0.18-0.01,0.37-0.04,0.53c-0.06,0.37-0.41,1.01-1.42,1.01c-1,0-1.35-0.64-1.41-1.01C94.01,35.99,94,35.8,94,35.62V29.3
	c0-0.22,0.02-0.47,0.06-0.65c0.07-0.34,0.37-1,1.37-1c1.06,0,1.32,0.7,1.38,1c0.04,0.2,0.04,0.53,0.04,0.53v0.77h3.48v-0.45
	c0,0,0.02-0.47-0.03-0.92c-0.26-2.59-2.4-3.41-4.85-3.41c-2.46,0-4.55,0.83-4.85,3.41c-0.03,0.24-0.07,0.66-0.07,0.92v5.81
	c0,0.25,0.01,0.45,0.06,0.91c0.23,2.52,2.41,3.42,4.86,3.42c2.46,0,4.63-0.89,4.86-3.42c0.04-0.46,0.05-0.66,0.05-0.91V31.6H95.48z"
	/>
</svg>
