<?xml version="1.0" encoding="utf-8"?>
<!-- Generator: Adobe Illustrator 26.5.0, SVG Export Plug-In . SVG Version: 6.00 Build 0)  -->
<svg version="1.1" id="Layer_1" xmlns="http://www.w3.org/2000/svg" xmlns:xlink="http://www.w3.org/1999/xlink" x="0px" y="0px"
	 viewBox="0 0 80 50" style="enable-background:new 0 0 80 50;" xml:space="preserve">
<style type="text/css">
	.st0{fill:#000600;}
</style>
<path class="st0" d="M5.53,22.38c-0.05-0.21-0.04-0.44-0.01-0.56c0.07-0.34,0.3-0.72,0.98-0.72c0.62,0,0.99,0.39,0.99,0.97
	c0,0.2,0,0.66,0,0.66h2.66v-0.75c0-2.32-2.09-2.69-3.6-2.69c-1.89,0-3.44,0.63-3.73,2.37c-0.08,0.48-0.09,0.9,0.02,1.44
	c0.46,2.18,4.25,2.81,4.8,4.19c0.1,0.26,0.07,0.59,0.02,0.79c-0.09,0.36-0.33,0.72-1.04,0.72c-0.67,0-1.07-0.39-1.07-0.97l0-1.03
	H2.69v0.82c0,2.39,1.87,3.1,3.88,3.1c1.93,0,3.51-0.66,3.77-2.44c0.13-0.92,0.03-1.52-0.01-1.75C9.88,24.29,5.83,23.62,5.53,22.38z
	 M40.22,22.4c-0.05-0.21-0.03-0.43-0.01-0.55c0.08-0.34,0.31-0.71,0.97-0.71c0.62,0,0.98,0.38,0.98,0.96c0,0.19,0,0.65,0,0.65h2.63
	v-0.74c0-2.3-2.06-2.66-3.55-2.66c-1.88,0-3.41,0.62-3.69,2.35c-0.07,0.47-0.09,0.89,0.03,1.42c0.46,2.16,4.21,2.78,4.76,4.15
	c0.1,0.26,0.07,0.59,0.02,0.78c-0.08,0.35-0.32,0.71-1.03,0.71c-0.66,0-1.06-0.38-1.06-0.96l0-1.02h-2.83v0.81
	c0,2.36,1.85,3.07,3.84,3.07c1.91,0,3.48-0.65,3.73-2.42c0.12-0.91,0.03-1.51-0.02-1.73C44.52,24.3,40.52,23.64,40.22,22.4z
	 M64.44,28.21l-2.51-8.59h-3.96v10.56h2.62l-0.15-8.86l2.7,8.86h3.8V19.63h-2.64L64.44,28.21z M14.11,19.63l-1.98,10.67h2.88
	l1.49-9.87l1.45,9.87h2.86l-1.97-10.67H14.11z M30.22,19.63l-1.35,8.34l-1.34-8.34h-4.35l-0.23,10.67h2.67l0.07-9.87l1.83,9.87h2.7
	l1.84-9.87l0.07,9.87h2.67l-0.24-10.67H30.22z M55.01,19.63h-2.7v7.89c0,0.14,0,0.29-0.02,0.41c-0.06,0.26-0.28,0.77-1.03,0.77
	c-0.73,0-0.97-0.51-1.02-0.77c-0.03-0.11-0.03-0.27-0.03-0.41v-7.89h-2.7v7.65c0,0.2,0.01,0.6,0.02,0.71
	c0.19,1.99,1.76,2.64,3.72,2.64c1.96,0,3.53-0.65,3.72-2.64c0.01-0.11,0.03-0.51,0.02-0.71V19.63z M73.54,24.31v1.56h1.09v1.54
	c0,0.14,0,0.29-0.03,0.41c-0.04,0.29-0.32,0.78-1.09,0.78c-0.77,0-1.04-0.49-1.09-0.78c-0.02-0.12-0.03-0.27-0.03-0.41v-4.88
	c0-0.17,0.01-0.36,0.05-0.5c0.05-0.26,0.28-0.77,1.06-0.77c0.82,0,1.02,0.54,1.07,0.77c0.03,0.15,0.03,0.41,0.03,0.41v0.59h2.69
	v-0.35c0,0,0.01-0.37-0.02-0.71c-0.2-2-1.85-2.63-3.74-2.63c-1.89,0-3.51,0.64-3.74,2.63c-0.02,0.18-0.05,0.51-0.05,0.71v4.48
	c0,0.2,0.01,0.35,0.04,0.7c0.18,1.95,1.86,2.64,3.75,2.64c1.9,0,3.57-0.69,3.75-2.64c0.03-0.36,0.03-0.51,0.04-0.7v-2.86H73.54z"/>
</svg>
