<svg xmlns="http://www.w3.org/2000/svg" width="366.813" height="22.865" viewBox="0 0 366.813 22.865">
  <g id="Group_215361" data-name="Group 215361" transform="translate(-9.719 -5.786)">
    <g id="Group_215360" data-name="Group 215360" transform="translate(2)">
      <g id="Group_188" transform="translate(7.719 9.991)">
        <path id="Path_172" d="M-232.558,12.261c-11.581,6.18-23.163-4.312-43.392,1.369h0V29.883c20.229-5.68,31.812,4.811,43.392-1.369V12.261" transform="translate(275.95 -11.877)" fill="#54a233"/>
        <rect id="Rectangle_28" width="45.26" height="16.203" transform="translate(43.392 0.382)" fill="#065e9e"/>
      </g>
      <path id="Path_173" d="M69.632,86.046h-1.7v-6.3h1.625v.767a1.7,1.7,0,0,1,.767-.69,2.446,2.446,0,0,1,1.076-.256,1.872,1.872,0,0,1,1.868,1.049,2.224,2.224,0,0,1,2-1.049,2.175,2.175,0,0,1,2.278,2.392v4.082H75.889V82.308a1.293,1.293,0,0,0-.276-.864,1.034,1.034,0,0,0-.838-.326,1.079,1.079,0,0,0-.844.359,1.272,1.272,0,0,0-.32.883v3.685H71.922V82.31a1.274,1.274,0,0,0-.281-.864,1.03,1.03,0,0,0-.831-.326,1.1,1.1,0,0,0-.856.353,1.268,1.268,0,0,0-.32.889v3.684Z" transform="translate(-56.766 -63.275)" fill="#fff"/>
      <path id="Path_174" d="M125.235,80.464a3.417,3.417,0,0,1,4.722,0,3.513,3.513,0,0,1,0,4.786,3.417,3.417,0,0,1-4.722,0,3.517,3.517,0,0,1,0-4.786Zm1.23,3.712a1.592,1.592,0,0,0,2.251.013l.014-.013a2.1,2.1,0,0,0,0-2.637,1.592,1.592,0,0,0-2.249-.015l-.015.015a2.1,2.1,0,0,0,0,2.638Z" transform="translate(-102.266 -63.235)" fill="#fff"/>
      <path id="Path_175" d="M167.222,82.48V86.1h-1.7V79.8h1.65v.783a1.769,1.769,0,0,1,.767-.7,2.384,2.384,0,0,1,1.049-.243,2.086,2.086,0,0,1,1.7.7,2.711,2.711,0,0,1,.582,1.8V86.1h-1.7V82.43a1.376,1.376,0,0,0-.287-.908,1.23,1.23,0,0,0-1.735.025,1.39,1.39,0,0,0-.326.933Z" transform="translate(-135.545 -63.331)" fill="#fff"/>
      <path id="Path_176" d="M206.542,83.781l1.421.422a2.719,2.719,0,0,1-1,1.434,3.01,3.01,0,0,1-1.862.563,3.191,3.191,0,0,1-2.3-.916,3.6,3.6,0,0,1-.025-4.838,3.216,3.216,0,0,1,4.46-.058,3.333,3.333,0,0,1,.825,2.394c0,.067,0,.145-.006.229s-.006.154-.006.2l-.013.091h-4.5a1.394,1.394,0,0,0,.486,1.024,1.591,1.591,0,0,0,1.1.409A1.379,1.379,0,0,0,206.542,83.781Zm-2.984-1.638h2.814a1.308,1.308,0,0,0-.378-.883,1.377,1.377,0,0,0-1.029-.359,1.347,1.347,0,0,0-1,.384,1.3,1.3,0,0,0-.409.858Z" transform="translate(-164.869 -63.237)" fill="#fff"/>
      <path id="Path_177" d="M239.294,89.29h-1.8l1.484-3.277-2.674-5.5h1.906l1.677,3.685,1.548-3.685h1.818Z" transform="translate(-192.682 -64.036)" fill="#fff"/>
      <path id="Path_178" d="M281.347,81.164a1.522,1.522,0,0,0-1.139.474,2.042,2.042,0,0,0,.006,2.591,1.538,1.538,0,0,0,1.145.48,1.411,1.411,0,0,0,.96-.314,1.553,1.553,0,0,0,.486-.748l1.5.5a2.855,2.855,0,0,1-1,1.5,2.976,2.976,0,0,1-1.945.626,3.259,3.259,0,0,1-3.315-3.2V82.93a3.256,3.256,0,0,1,.939-2.394,3.14,3.14,0,0,1,2.323-.946,3.032,3.032,0,0,1,1.97.621,2.744,2.744,0,0,1,.985,1.5l-1.523.511a1.324,1.324,0,0,0-1.392-1.058Z" transform="translate(-226.377 -63.291)" fill="#fff"/>
      <path id="Path_179" d="M315.179,80.554a3.417,3.417,0,0,1,4.722,0,3.513,3.513,0,0,1,0,4.786,3.417,3.417,0,0,1-4.722,0A3.513,3.513,0,0,1,315.179,80.554Zm1.228,3.712a1.592,1.592,0,0,0,2.251.014l.013-.014a2.1,2.1,0,0,0,0-2.637,1.592,1.592,0,0,0-2.251-.013l-.013.013a2.1,2.1,0,0,0,0,2.638Z" transform="translate(-255.596 -63.308)" fill="#fff"/>
      <path id="Path_180" d="M357.172,82.562v3.622h-1.7v-6.3h1.65v.781a1.769,1.769,0,0,1,.767-.7,2.356,2.356,0,0,1,1.049-.243,2.087,2.087,0,0,1,1.7.7,2.722,2.722,0,0,1,.582,1.8v3.967h-1.7V82.51a1.375,1.375,0,0,0-.287-.908,1.23,1.23,0,0,0-1.735.025A1.385,1.385,0,0,0,357.172,82.562Z" transform="translate(-288.881 -63.396)" fill="#fff"/>
      <path id="Path_181" d="M393.28,70.84v1.881h1.266V74.23H393.28v2.637a.74.74,0,0,0,.179.563.809.809,0,0,0,.563.166,2,2,0,0,0,.524-.052v1.409a2.579,2.579,0,0,1-.96.154,2.014,2.014,0,0,1-1.459-.519,1.889,1.889,0,0,1-.538-1.426v-2.93H390.45V72.723h.32a.929.929,0,0,0,.723-.276,1.041,1.041,0,0,0,.248-.723v-.883Z" transform="translate(-317.119 -56.23)" fill="#fff"/>
      <path id="Path_182" d="M422.58,80.365V82.08a2.839,2.839,0,0,0-.513-.052,1.661,1.661,0,0,0-1.178.416,1.789,1.789,0,0,0-.447,1.363v2.88h-1.7v-6.3h1.65v.935a1.781,1.781,0,0,1,1.791-.985C422.275,80.34,422.408,80.348,422.58,80.365Z" transform="translate(-339.955 -63.899)" fill="#fff"/>
      <path id="Path_183" d="M443.049,80.554a3.417,3.417,0,0,1,4.722,0,3.513,3.513,0,0,1,0,4.786,3.417,3.417,0,0,1-4.722,0,3.513,3.513,0,0,1,0-4.786Zm1.228,3.712a1.592,1.592,0,0,0,2.251.014l.014-.014a2.1,2.1,0,0,0,0-2.637,1.592,1.592,0,0,0-2.251-.013l-.013.013a2.1,2.1,0,0,0,0,2.638Z" transform="translate(-358.818 -63.308)" fill="#fff"/>
      <path id="Path_184" d="M485.042,74.466h-1.7V65.2h1.7Z" transform="translate(-392.104 -51.677)" fill="#fff"/>
    </g>
    <path id="Path_11" data-name="Path 11" d="M5.266-1.656v-13.8H.3V-17.5H12.459v2.04H7.5v13.8Zm8.981,0V-17.5h2.137V-1.656Zm7.827,0v-5.8H24.21v5.794Zm0-5.794a6.04,6.04,0,0,0-.357-2.342,2.176,2.176,0,0,0-.979-1.129,3.166,3.166,0,0,0-1.423-.322,2.568,2.568,0,0,0-2.162.958,4.342,4.342,0,0,0-.769,2.755h-.915A8.069,8.069,0,0,1,16-10.613a4.274,4.274,0,0,1,1.512-1.954,4.052,4.052,0,0,1,2.355-.677,4.718,4.718,0,0,1,2.31.538,3.589,3.589,0,0,1,1.516,1.686,6.979,6.979,0,0,1,.522,3v.566Zm9.865,6.066a5.6,5.6,0,0,1-2.924-.758,5.36,5.36,0,0,1-2-2.094,6.358,6.358,0,0,1-.724-3.078,6.323,6.323,0,0,1,.729-3.078,5.385,5.385,0,0,1,2.006-2.094,5.62,5.62,0,0,1,2.926-.758,4.863,4.863,0,0,1,2.738.781,5.22,5.22,0,0,1,1.855,2.215,7.961,7.961,0,0,1,.67,3.4H28.072l.4-.354a4.356,4.356,0,0,0,.472,2.092,3.291,3.291,0,0,0,1.293,1.341,3.7,3.7,0,0,0,1.851.464,3.24,3.24,0,0,0,1.889-.526A3.619,3.619,0,0,0,35.162-5.2l1.867.864a5.452,5.452,0,0,1-1.174,1.558,5.072,5.072,0,0,1-1.7,1.029,6.356,6.356,0,0,1-2.217.364ZM28.609-8.22l-.425-.343H35.34l-.414.354a3.343,3.343,0,0,0-.414-1.721,2.853,2.853,0,0,0-1.093-1.079,3.068,3.068,0,0,0-1.507-.374,3.526,3.526,0,0,0-1.576.374,3.216,3.216,0,0,0-1.244,1.074,2.942,2.942,0,0,0-.483,1.714Z" transform="translate(101.971 27.491)"/>
    <path id="Path_12" data-name="Path 12" d="M1.86-2.089V-21.735H8.933a9.853,9.853,0,0,1,3.621.617,5.272,5.272,0,0,1,2.47,1.908,5.621,5.621,0,0,1,.9,3.284,3.485,3.485,0,0,1-.505,1.768,5.878,5.878,0,0,1-1.4,1.6,5.2,5.2,0,0,1,1.993,1.838,5.221,5.221,0,0,1,.7,2.793,5.613,5.613,0,0,1-.87,3.185,5.446,5.446,0,0,1-2.4,1.979,8.666,8.666,0,0,1-3.522.674ZM6.912-6.664H9.3a2.087,2.087,0,0,0,1.473-.505A1.679,1.679,0,0,0,11.32-8.46a1.552,1.552,0,0,0-.547-1.249A2.207,2.207,0,0,0,9.3-10.172H6.912Zm0-7.634H8.568a2.265,2.265,0,0,0,1.459-.449,1.525,1.525,0,0,0,.561-1.263,1.525,1.525,0,0,0-.561-1.263,2.265,2.265,0,0,0-1.459-.449H6.912ZM27.175-1.752a9.817,9.817,0,0,1-4.491-.954,6.669,6.669,0,0,1-2.877-2.736,8.582,8.582,0,0,1-1-4.252v-12.04H24v12.04a3.4,3.4,0,0,0,.4,1.683,2.6,2.6,0,0,0,1.109,1.067,3.763,3.763,0,0,0,1.726.365,3.851,3.851,0,0,0,1.74-.365A2.5,2.5,0,0,0,30.08-8.011a3.5,3.5,0,0,0,.379-1.684v-12.04h5.192V-9.7a8.486,8.486,0,0,1-1.01,4.252,6.738,6.738,0,0,1-2.9,2.736,10.042,10.042,0,0,1-4.566.955Zm11.563-.337V-21.735h6.567a12.431,12.431,0,0,1,5.711,1.263A9.72,9.72,0,0,1,54.9-17.006a9.276,9.276,0,0,1,1.4,5.094,9.3,9.3,0,0,1-1.4,5.08,9.683,9.683,0,0,1-3.887,3.48A12.431,12.431,0,0,1,45.3-2.089ZM43.931-7h1.375a6.816,6.816,0,0,0,2.273-.365,5.6,5.6,0,0,0,1.8-1.01,4.533,4.533,0,0,0,1.179-1.544,4.637,4.637,0,0,0,.421-1.993,4.637,4.637,0,0,0-.421-1.993,4.533,4.533,0,0,0-1.179-1.544,5.6,5.6,0,0,0-1.8-1.01,6.816,6.816,0,0,0-2.273-.365H43.931ZM68.039-1.752a10.781,10.781,0,0,1-5.361-1.305A9.481,9.481,0,0,1,59.03-6.65a10.343,10.343,0,0,1-1.319-5.262,10.343,10.343,0,0,1,1.319-5.262,9.481,9.481,0,0,1,3.649-3.592,10.781,10.781,0,0,1,5.361-1.305,10.193,10.193,0,0,1,3.522.561,8.5,8.5,0,0,1,2.652,1.53,9.688,9.688,0,0,1,1.908,2.231L71.8-15.2a4.41,4.41,0,0,0-1-1.095,4.838,4.838,0,0,0-1.319-.744,4.112,4.112,0,0,0-1.445-.267,4.843,4.843,0,0,0-2.582.688,4.863,4.863,0,0,0-1.768,1.894,5.862,5.862,0,0,0-.646,2.807,6.191,6.191,0,0,0,.617,2.807,4.629,4.629,0,0,0,1.782,1.937,5.2,5.2,0,0,0,2.736.7,4.652,4.652,0,0,0,1.993-.407,3.325,3.325,0,0,0,1.375-1.151,3,3,0,0,0,.5-1.726l4.94-.926A9.807,9.807,0,0,1,75.842-5.71a7.281,7.281,0,0,1-3.157,2.975,10.441,10.441,0,0,1-4.646.983Zm-.365-7.409V-13.09h9.318v2.89L74.045-9.162ZM79.1-2.089V-21.735H92.26v4.771H84.29v2.722h6.455v4.631H84.29v2.75h8.167V-2.09Zm20.8,0V-16.964H94.337v-4.771h16.278v4.771h-5.529V-2.089Z" transform="translate(216.098 27.859)" fill="#53a233"/>
    <path id="Path_13" data-name="Path 13" d="M1.15-1.416v-1.33A3.3,3.3,0,0,1,1.4-3.99a4.906,4.906,0,0,1,.74-1.228A6.929,6.929,0,0,1,3.333-6.365L6.09-8.425a4.826,4.826,0,0,0,.857-.8,3.811,3.811,0,0,0,.583-.933,2.375,2.375,0,0,0,.211-.944,2.283,2.283,0,0,0-.328-1.2A2.4,2.4,0,0,0,6.5-13.17a2.827,2.827,0,0,0-1.392-.33,2.99,2.99,0,0,0-1.366.3,2.861,2.861,0,0,0-.971.781,3,3,0,0,0-.54,1.031l-1.635-.32a4.173,4.173,0,0,1,.819-1.6,4.452,4.452,0,0,1,1.527-1.2,4.638,4.638,0,0,1,2.071-.455,4.966,4.966,0,0,1,2.307.5A3.774,3.774,0,0,1,8.834-13.08a3.662,3.662,0,0,1,.539,1.971,3.74,3.74,0,0,1-.567,1.977,7.134,7.134,0,0,1-1.66,1.809L4.54-5.351a5.047,5.047,0,0,0-1.169,1.2,2.751,2.751,0,0,0-.471,1.3H9.553v1.432Zm15.619.228a4.381,4.381,0,0,1-2.706-.884,5.878,5.878,0,0,1-1.844-2.434,8.926,8.926,0,0,1-.669-3.565,8.928,8.928,0,0,1,.669-3.565A5.889,5.889,0,0,1,14.06-14.07a4.368,4.368,0,0,1,2.7-.884,4.39,4.39,0,0,1,2.711.884,5.89,5.89,0,0,1,1.846,2.434,8.9,8.9,0,0,1,.67,3.565,8.914,8.914,0,0,1-.67,3.565,5.89,5.89,0,0,1-1.844,2.434,4.381,4.381,0,0,1-2.705.885Zm0-1.451a2.838,2.838,0,0,0,1.887-.7,4.569,4.569,0,0,0,1.287-1.92,7.924,7.924,0,0,0,.463-2.815,7.947,7.947,0,0,0-.462-2.817,4.555,4.555,0,0,0-1.289-1.922,2.852,2.852,0,0,0-1.893-.7,2.83,2.83,0,0,0-1.884.7A4.561,4.561,0,0,0,13.6-10.891a7.968,7.968,0,0,0-.461,2.817A7.949,7.949,0,0,0,13.6-5.256a4.55,4.55,0,0,0,1.286,1.92,2.844,2.844,0,0,0,1.884.7Zm7.185,1.223v-1.33a3.3,3.3,0,0,1,.252-1.244,4.906,4.906,0,0,1,.738-1.228,6.929,6.929,0,0,1,1.193-1.147l2.757-2.06a4.826,4.826,0,0,0,.857-.8,3.811,3.811,0,0,0,.583-.933,2.375,2.375,0,0,0,.211-.944,2.283,2.283,0,0,0-.328-1.2,2.4,2.4,0,0,0-.914-.868,2.827,2.827,0,0,0-1.391-.325,2.99,2.99,0,0,0-1.366.3,2.86,2.86,0,0,0-.971.781,3,3,0,0,0-.54,1.031L23.4-11.7a4.173,4.173,0,0,1,.819-1.6,4.452,4.452,0,0,1,1.527-1.2,4.638,4.638,0,0,1,2.071-.455,4.966,4.966,0,0,1,2.307.5,3.774,3.774,0,0,1,1.515,1.372,3.662,3.662,0,0,1,.539,1.971,3.74,3.74,0,0,1-.567,1.977,7.134,7.134,0,0,1-1.66,1.809l-2.6,1.971a5.047,5.047,0,0,0-1.169,1.2,2.751,2.751,0,0,0-.469,1.306h6.651V-1.42Zm16.493,0V-4.641h-6.14V-5.89l6.059-8.835H42v8.651h2.719v1.432H42v3.226ZM36.135-6.074h4.313v-6.318Z" transform="translate(331.672 27.226)"/>
    <g id="Group_3" data-name="Group 3" transform="translate(146.088 7.394)">
      <path id="Path_10" data-name="Path 10" d="M2.567-1.921V-20.3h6.21a7.008,7.008,0,0,1,3.245.726,5.493,5.493,0,0,1,2.208,2,5.449,5.449,0,0,1,.793,2.943,5.227,5.227,0,0,1-.85,2.941,5.772,5.772,0,0,1-2.32,2.016,7.4,7.4,0,0,1-3.32.726H5.158v7.027Zm10.284,0-4.358-7.5,2.039-1.363L15.758-1.92ZM5.158-11.333H9.02a3.38,3.38,0,0,0,1.689-.424,3.293,3.293,0,0,0,1.209-1.171,3.2,3.2,0,0,0,.457-1.7,3.059,3.059,0,0,0-1.029-2.386A3.809,3.809,0,0,0,8.7-17.942H5.158ZM38.266-1.606a6.907,6.907,0,0,1-2.472-.415,5.435,5.435,0,0,1-1.84-1.13A4.592,4.592,0,0,1,32.84-4.766L35-5.693a3.454,3.454,0,0,0,1.261,1.337,3.42,3.42,0,0,0,1.857.528,3.729,3.729,0,0,0,1.874-.421,1.314,1.314,0,0,0,.733-1.2,1.361,1.361,0,0,0-.552-1.141,4.471,4.471,0,0,0-1.592-.689L37.329-7.6a6.327,6.327,0,0,1-2.843-1.479,3.076,3.076,0,0,1-1.021-2.26,3.676,3.676,0,0,1,1.245-2.967,5.508,5.508,0,0,1,3.648-1.055,6.438,6.438,0,0,1,2.16.347,4.952,4.952,0,0,1,1.681.976,3.575,3.575,0,0,1,1,1.482l-2.108.942a2.113,2.113,0,0,0-1.071-1.162,4,4,0,0,0-1.788-.376,2.71,2.71,0,0,0-1.665.453,1.5,1.5,0,0,0-.6,1.266,1.12,1.12,0,0,0,.512.866,4.1,4.1,0,0,0,1.509.655l1.4.352a5.729,5.729,0,0,1,2.13.956A4.4,4.4,0,0,1,42.79-7.161a3.553,3.553,0,0,1,.423,1.674,3.376,3.376,0,0,1-.648,2.06,4.135,4.135,0,0,1-1.76,1.35,6.456,6.456,0,0,1-2.539.471Zm12.3,0a6.5,6.5,0,0,1-3.391-.88,6.217,6.217,0,0,1-2.316-2.429,7.376,7.376,0,0,1-.84-3.571,7.335,7.335,0,0,1,.845-3.571A6.247,6.247,0,0,1,47.2-14.484a6.52,6.52,0,0,1,3.394-.88,5.641,5.641,0,0,1,3.176.906,6.055,6.055,0,0,1,2.152,2.57A9.235,9.235,0,0,1,56.7-7.95H46.086l.466-.411A5.053,5.053,0,0,0,47.1-5.934a3.817,3.817,0,0,0,1.5,1.555,4.288,4.288,0,0,0,2.147.538,3.758,3.758,0,0,0,2.191-.61A4.2,4.2,0,0,0,54.31-6.029l2.166,1A6.324,6.324,0,0,1,55.113-3.22a5.884,5.884,0,0,1-1.978,1.193,7.373,7.373,0,0,1-2.564.421ZM46.7-9.536l-.494-.4h8.3l-.481.411a3.878,3.878,0,0,0-.481-2,3.309,3.309,0,0,0-1.268-1.252,3.559,3.559,0,0,0-1.74-.423,4.091,4.091,0,0,0-1.828.434,3.73,3.73,0,0,0-1.443,1.245,3.413,3.413,0,0,0-.561,1.985Zm16.479,7.93a4.276,4.276,0,0,1-3.061-1.015,3.79,3.79,0,0,1-1.069-2.887V-19.145h2.478V-5.876A2.042,2.042,0,0,0,62.022-4.4a1.852,1.852,0,0,0,1.4.512,1.843,1.843,0,0,0,.591-.1,3.375,3.375,0,0,0,.77-.422l.928,1.953a5.535,5.535,0,0,1-1.295.655,3.893,3.893,0,0,1-1.229.2ZM56.825-12.89v-2.159h8.463v2.159Z" transform="translate(-2.567 20.3)"/>
      <path id="Union_1" data-name="Union 1" d="M3.2,5.783A6.689,6.689,0,0,1,.053,1.7C.032,1.617.019,1.535,0,1.453V0H13.611V1.453H1.548a5.2,5.2,0,0,0,2.4,3.037,5.232,5.232,0,0,0,3.985.523A5.208,5.208,0,0,0,10.88,2.948l1.261,1.047a5.589,5.589,0,0,1-3.82,2.461,9.9,9.9,0,0,1-1.8.176A6.526,6.526,0,0,1,3.2,5.783Z" transform="translate(15.107 12.655)" fill="#045f9e"/>
      <path id="Path_4" data-name="Path 4" d="M15.093,62.18A5.258,5.258,0,0,0,8.16,63.722h2.86v1.5H5.768V59.984h1.5v2.442a6.757,6.757,0,0,1,8.575-1.54,7.206,7.206,0,0,1,2.719,2.994,6.454,6.454,0,0,1,.726,2.881,3.292,3.292,0,0,1-1.47,0,6.656,6.656,0,0,0-.8-2.66,5.057,5.057,0,0,0-1.925-1.921Z" transform="translate(9.432 -54.008)" fill="#045f9e"/>
      <path id="Union_2_-_Outline" data-name="Union 2 - Outline" d="M6.5,13.516a6.712,6.712,0,0,1-3.438-.878A6.912,6.912,0,0,1-.189,8.415C-.2,8.358-.215,8.3-.226,8.249l-.018-.088L-.25,8.136v-1.7H11.864a6.63,6.63,0,0,0-.706-2.146l-.043-.09A4.843,4.843,0,0,0,9.281,2.371a5.033,5.033,0,0,0-2.5-.673,5.084,5.084,0,0,0-1.31.173A4.943,4.943,0,0,0,2.918,3.49H5.547V5.438h-5.7V-.247H1.8V1.832A6.985,6.985,0,0,1,10.262.684a7.442,7.442,0,0,1,2.807,3.087,6.473,6.473,0,0,1,.731,2.66h.014v.3a.237.237,0,0,1,0,.06V8.337H1.838a4.98,4.98,0,0,0,2.2,2.614,5.031,5.031,0,0,0,2.5.673,5.086,5.086,0,0,0,1.31-.173,4.951,4.951,0,0,0,2.82-1.975l.141-.2,1.6,1.33-.1.168A5.74,5.74,0,0,1,8.462,13.3l-.121.032a10.177,10.177,0,0,1-1.841.184ZM.2,8.086l.015.075c.01.048.019.094.03.136a6.463,6.463,0,0,0,3.041,3.949,6.272,6.272,0,0,0,3.212.818,9.715,9.715,0,0,0,1.749-.171l.1-.025a5.337,5.337,0,0,0,3.475-2.17L10.9,9.933A5.477,5.477,0,0,1,1.307,8.175L1.22,7.884H13.36V6.67a6.156,6.156,0,0,0-.7-2.69,6.994,6.994,0,0,0-2.632-2.9A6.521,6.521,0,0,0,1.744,2.565l-.4.484V.2H.295v4.78H5.1V3.943H2.027l.248-.356A5.485,5.485,0,0,1,9.507,1.978a5.3,5.3,0,0,1,2.01,2.01v.007l.044.089a6.788,6.788,0,0,1,.775,2.557l.017.242H.2Z" transform="translate(15.131 5.997)" fill="#045f9e"/>
    </g>
    <line id="Line_3" data-name="Line 3" x2="45.268" transform="translate(331.264 6.454)" fill="none" stroke="#53a233" stroke-width="1"/>
  </g>
</svg>
