<svg xmlns="http://www.w3.org/2000/svg" xmlns:xlink="http://www.w3.org/1999/xlink" width="914" height="408" viewBox="0 0 914 408">
  <defs>
    <clipPath id="clip-Budget_logo_English">
      <rect width="914" height="408"/>
    </clipPath>
  </defs>
  <g id="Budget_logo_English" clip-path="url(#clip-Budget_logo_English)">
    <rect width="914" height="408" fill="#fff"/>
    <g id="MC_Logo" transform="translate(10.043 10)">
      <g id="Group_188" transform="translate(0 0)">
        <path id="Path_172" d="M-40.933,13.958C-103.654,47.427-166.386-9.4-275.95,21.37h0V109.4c109.564-30.766,172.3,26.057,235.017-7.412V13.958" transform="translate(275.95 -11.877)" fill="#54a233"/>
        <rect id="Rectangle_28" width="245.133" height="87.756" transform="translate(235.017 2.07)" fill="#065e9e"/>
      </g>
      <path id="Path_173" d="M77.148,114.658H67.93V80.551h8.8v4.155a9.186,9.186,0,0,1,4.155-3.737,13.25,13.25,0,0,1,5.825-1.388q7.423,0,10.116,5.679a12.044,12.044,0,0,1,10.815-5.679,12.564,12.564,0,0,1,8.769,3.257q3.57,3.257,3.57,9.7v22.111h-8.947V94.415a7,7,0,0,0-1.493-4.677A5.6,5.6,0,0,0,105,87.974a5.844,5.844,0,0,0-4.573,1.942A6.887,6.887,0,0,0,98.7,94.7v19.961H89.55V94.426a6.9,6.9,0,0,0-1.524-4.677,5.581,5.581,0,0,0-4.5-1.764,5.941,5.941,0,0,0-4.635,1.91,6.867,6.867,0,0,0-1.733,4.813v19.95Z" transform="translate(-49.264 -45.44)" fill="#fff"/>
      <path id="Path_174" d="M129.384,84.646a18.509,18.509,0,0,1,25.577,0,19.027,19.027,0,0,1,0,25.922,18.509,18.509,0,0,1-25.577,0A19.048,19.048,0,0,1,129.384,84.646Zm6.66,20.107a8.623,8.623,0,0,0,12.194.073l.073-.073a11.346,11.346,0,0,0,0-14.281,8.62,8.62,0,0,0-12.183-.084l-.084.084A11.346,11.346,0,0,0,136.045,104.753Z" transform="translate(-46.786 -45.442)" fill="#fff"/>
      <path id="Path_175" d="M174.738,95.039v19.616H165.52V80.548h8.936v4.238a9.582,9.582,0,0,1,4.155-3.81,12.91,12.91,0,0,1,5.679-1.315,11.3,11.3,0,0,1,9.187,3.779,14.684,14.684,0,0,1,3.153,9.74v21.485h-9.218v-19.9a7.449,7.449,0,0,0-1.555-4.917,6.664,6.664,0,0,0-9.4.136A7.529,7.529,0,0,0,174.738,95.039Z" transform="translate(-44.973 -45.437)" fill="#fff"/>
      <path id="Path_176" d="M227.281,102.6l7.694,2.286a14.725,14.725,0,0,1-5.439,7.767,16.3,16.3,0,0,1-10.085,3.048,17.286,17.286,0,0,1-12.475-4.959,19.487,19.487,0,0,1-.136-26.2,16.059,16.059,0,0,1,11.786-5.021q7.908,0,12.371,4.708,4.479,4.713,4.468,12.966c0,.365-.01.783-.031,1.242s-.031.835-.031,1.107l-.073.491h-24.4a7.551,7.551,0,0,0,2.631,5.543,8.616,8.616,0,0,0,5.961,2.213A7.467,7.467,0,0,0,227.281,102.6Zm-16.161-8.874h15.242a7.084,7.084,0,0,0-2.046-4.781,7.456,7.456,0,0,0-5.575-1.942,7.294,7.294,0,0,0-5.408,2.077,7.021,7.021,0,0,0-2.213,4.646Z" transform="translate(-43.376 -45.442)" fill="#fff"/>
      <path id="Path_177" d="M252.513,128.063h-9.771l8.039-17.747L236.3,80.51h10.325l9.082,19.961L264.09,80.51h9.845Z" transform="translate(-41.862 -45.399)" fill="#fff"/>
      <path id="Path_178" d="M295.944,88.13a8.246,8.246,0,0,0-6.17,2.568,11.061,11.061,0,0,0,.031,14.031,8.327,8.327,0,0,0,6.2,2.6,7.641,7.641,0,0,0,5.2-1.7,8.413,8.413,0,0,0,2.631-4.051l8.112,2.7a15.465,15.465,0,0,1-5.408,8.112,16.122,16.122,0,0,1-10.534,3.393,17.65,17.65,0,0,1-17.956-17.33v-.762a17.637,17.637,0,0,1,5.084-12.966,17,17,0,0,1,12.58-5.126,16.422,16.422,0,0,1,10.669,3.362,14.859,14.859,0,0,1,5.335,8.143l-8.247,2.766A7.172,7.172,0,0,0,295.944,88.13Z" transform="translate(-40.027 -45.439)" fill="#fff"/>
      <path id="Path_179" d="M319.335,84.736a18.509,18.509,0,0,1,25.577,0,19.027,19.027,0,0,1,0,25.922,18.509,18.509,0,0,1-25.577,0A19.027,19.027,0,0,1,319.335,84.736Zm6.65,20.107a8.623,8.623,0,0,0,12.193.073l.073-.073a11.346,11.346,0,0,0,0-14.281,8.623,8.623,0,0,0-12.194-.073l-.073.073A11.346,11.346,0,0,0,325.985,104.843Z" transform="translate(-38.435 -45.438)" fill="#fff"/>
      <path id="Path_180" d="M364.688,95.129v19.616H355.47V80.639h8.936v4.228a9.583,9.583,0,0,1,4.155-3.81,12.769,12.769,0,0,1,5.679-1.315,11.3,11.3,0,0,1,9.187,3.779,14.739,14.739,0,0,1,3.153,9.74v21.485h-9.218v-19.9a7.449,7.449,0,0,0-1.555-4.917,6.664,6.664,0,0,0-9.4.136A7.5,7.5,0,0,0,364.688,95.129Z" transform="translate(-36.623 -45.434)" fill="#fff"/>
      <path id="Path_181" d="M405.775,70.84V81.029h6.859V89.2h-6.859v14.281a4.009,4.009,0,0,0,.971,3.048,4.378,4.378,0,0,0,3.048.9,10.8,10.8,0,0,0,2.84-.282v7.631a13.97,13.97,0,0,1-5.2.835,10.908,10.908,0,0,1-7.9-2.808,10.232,10.232,0,0,1-2.913-7.725V89.214h-6.17V81.04h1.733a5.027,5.027,0,0,0,3.915-1.493,5.639,5.639,0,0,0,1.347-3.915V70.85Z" transform="translate(-35.085 -45.824)" fill="#fff"/>
      <path id="Path_182" d="M439.536,80.476v9.291a15.366,15.366,0,0,0-2.777-.282,9,9,0,0,0-6.379,2.255q-2.427,2.255-2.422,7.381v15.6H418.74V80.611h8.936v5.063q2.49-5.34,9.7-5.335C437.886,80.34,438.607,80.382,439.536,80.476Z" transform="translate(-33.841 -45.406)" fill="#fff"/>
      <path id="Path_183" d="M447.2,84.736a18.509,18.509,0,0,1,25.577,0,19.026,19.026,0,0,1,0,25.922,18.509,18.509,0,0,1-25.577,0A19.027,19.027,0,0,1,447.2,84.736Zm6.65,20.107a8.623,8.623,0,0,0,12.194.073l.073-.073a11.345,11.345,0,0,0,0-14.281,8.623,8.623,0,0,0-12.193-.073l-.073.073A11.346,11.346,0,0,0,453.855,104.843Z" transform="translate(-32.814 -45.438)" fill="#fff"/>
      <path id="Path_184" d="M492.558,115.383H483.34V65.2h9.218Z" transform="translate(-31.001 -46.072)" fill="#fff"/>
    </g>
    <path id="Path_14" data-name="Path 14" d="M28.532,72.571V-5.905H.3V-17.5H69.423V-5.905H41.23V72.571Zm51.054,0V-17.5H91.734V72.571Zm44.5,0V39.631H136.23v32.94Zm0-32.94q0-8.687-2.03-13.317a12.368,12.368,0,0,0-5.565-6.421,18,18,0,0,0-8.091-1.83q-7.919-.072-12.291,5.446T91.734,39.17h-5.2a45.873,45.873,0,0,1,3-17.518A24.3,24.3,0,0,1,98.12,10.542,23.035,23.035,0,0,1,111.509,6.69a26.821,26.821,0,0,1,13.134,3.061,20.4,20.4,0,0,1,8.62,9.586q3.06,6.525,2.968,17.076v3.217Zm56.081,34.484A31.842,31.842,0,0,1,163.543,69.8a30.469,30.469,0,0,1-11.348-11.9,36.148,36.148,0,0,1-4.115-17.5,35.949,35.949,0,0,1,4.143-17.5,30.614,30.614,0,0,1,11.4-11.9A31.952,31.952,0,0,1,180.259,6.69a27.646,27.646,0,0,1,15.566,4.439A29.676,29.676,0,0,1,206.37,23.723a45.259,45.259,0,0,1,3.807,19.3H158.185l2.284-2.015a24.764,24.764,0,0,0,2.682,11.9,18.707,18.707,0,0,0,7.351,7.621,21.016,21.016,0,0,0,10.522,2.638,18.419,18.419,0,0,0,10.739-2.991,20.573,20.573,0,0,0,6.726-7.735L209.1,57.349a31,31,0,0,1-6.677,8.858,28.836,28.836,0,0,1-9.692,5.849A36.136,36.136,0,0,1,180.164,74.115ZM161.235,35.252,158.816,33.3H199.5l-2.356,2.015a19.007,19.007,0,0,0-2.355-9.783,16.216,16.216,0,0,0-6.213-6.136,17.441,17.441,0,0,0-8.565-2.127,20.048,20.048,0,0,0-8.959,2.127,18.281,18.281,0,0,0-7.07,6.1A16.726,16.726,0,0,0,161.235,35.252Z" transform="translate(10.286 161.756)"/>
    <path id="Path_15" data-name="Path 15" d="M1.86,89.769V-20.187H41.444a55.145,55.145,0,0,1,20.263,3.456A29.5,29.5,0,0,1,75.531-6.05q5.027,7.226,5.027,18.378a19.505,19.505,0,0,1-2.827,9.9,32.9,32.9,0,0,1-7.854,8.954A29.078,29.078,0,0,1,81.028,41.467q3.927,6.362,3.927,15.629,0,10.524-4.869,17.829A30.478,30.478,0,0,1,66.655,86a48.5,48.5,0,0,1-19.714,3.77Zm28.274-25.6H43.486a11.681,11.681,0,0,0,8.247-2.827A9.4,9.4,0,0,0,54.8,54.112a8.684,8.684,0,0,0-3.063-6.99,12.35,12.35,0,0,0-8.247-2.592H30.134Zm0-42.726H39.4a12.676,12.676,0,0,0,8.168-2.513,8.537,8.537,0,0,0,3.142-7.069A8.537,8.537,0,0,0,47.57,4.789,12.676,12.676,0,0,0,39.4,2.275H30.134ZM143.546,91.654q-14.608,0-25.133-5.341A37.324,37.324,0,0,1,102.313,71q-5.576-9.975-5.576-23.8V-20.187H125.8V47.2a19,19,0,0,0,2.2,9.425,14.523,14.523,0,0,0,6.2,5.969,21.059,21.059,0,0,0,9.66,2.042,21.556,21.556,0,0,0,9.739-2.042,13.967,13.967,0,0,0,6.2-5.969,19.577,19.577,0,0,0,2.121-9.425V-20.187h29.06V47.2q0,13.823-5.655,23.8a37.71,37.71,0,0,1-16.258,15.315Q158.469,91.654,143.546,91.654Zm64.717-1.885V-20.187H245.02q18.064,0,31.966,7.069a54.4,54.4,0,0,1,21.756,19.4q7.854,12.331,7.854,28.51a52.023,52.023,0,0,1-7.854,28.431A54.2,54.2,0,0,1,276.986,82.7q-13.9,7.069-31.966,7.069Zm29.06-27.489h7.7a38.145,38.145,0,0,0,12.723-2.042A31.343,31.343,0,0,0,267.8,54.583a25.37,25.37,0,0,0,6.6-8.639,25.952,25.952,0,0,0,2.356-11.153,25.952,25.952,0,0,0-2.356-11.153A25.371,25.371,0,0,0,267.8,15a31.343,31.343,0,0,0-10.053-5.655A38.145,38.145,0,0,0,245.02,7.3h-7.7ZM372.255,91.654q-16.965,0-30-7.3a53.062,53.062,0,0,1-20.42-20.106q-7.383-12.8-7.383-29.452t7.383-29.452a53.062,53.062,0,0,1,20.42-20.106q13.038-7.3,30-7.3a57.049,57.049,0,0,1,19.714,3.142,47.555,47.555,0,0,1,14.844,8.561A54.224,54.224,0,0,1,417.494,2.118L393.3,16.413a24.681,24.681,0,0,0-5.576-6.126,27.075,27.075,0,0,0-7.383-4.163,23.017,23.017,0,0,0-8.09-1.492,26.668,26.668,0,0,0-24.347,14.451,32.81,32.81,0,0,0-3.613,15.708A34.65,34.65,0,0,0,347.75,50.5a25.911,25.911,0,0,0,9.975,10.839,29.109,29.109,0,0,0,15.315,3.927,26.037,26.037,0,0,0,11.153-2.278,18.611,18.611,0,0,0,7.7-6.44,16.779,16.779,0,0,0,2.827-9.66L422.363,41.7q0,16.65-6.44,27.8a40.749,40.749,0,0,1-17.672,16.65Q387.02,91.654,372.255,91.654Zm-2.042-41.469V28.194h52.151V44.373L405.87,50.185Zm63.932,39.584V-20.187h73.671v26.7H463.2V21.753h36.128V47.672H463.2V63.065h45.71v26.7Zm116.4,0V6.517h-31.1v-26.7h91.106v26.7H579.6V89.769Z" transform="translate(8.14 286.211)" fill="#53a233"/>
    <path id="Path_10" data-name="Path 10" d="M2.567,84.182V-20.3h35.3a39.838,39.838,0,0,1,18.449,4.127A31.23,31.23,0,0,1,68.867-4.806a30.979,30.979,0,0,1,4.51,16.73,29.715,29.715,0,0,1-4.83,16.718,32.812,32.812,0,0,1-13.19,11.463,42.068,42.068,0,0,1-18.873,4.127H17.3V84.182Zm58.463,0L36.256,41.538l11.591-7.75,29.71,50.394ZM17.3,30.677H39.251a19.213,19.213,0,0,0,9.6-2.408,18.719,18.719,0,0,0,6.873-6.66,18.187,18.187,0,0,0,2.6-9.686A17.391,17.391,0,0,0,52.475-1.64q-5.85-5.252-15.034-5.252H17.3Zm188.217,55.3a39.267,39.267,0,0,1-14.056-2.359A30.9,30.9,0,0,1,181,77.189a26.1,26.1,0,0,1-6.333-9.178l12.27-5.268a20.176,20.176,0,0,0,17.725,10.6,21.2,21.2,0,0,0,10.651-2.392,7.471,7.471,0,0,0,4.168-6.795,7.736,7.736,0,0,0-3.138-6.487,25.415,25.415,0,0,0-9.052-3.919l-7.1-1.868q-10.357-2.759-16.162-8.408t-5.8-12.85q0-10.87,7.077-16.866t20.737-6a36.6,36.6,0,0,1,12.28,1.973,28.154,28.154,0,0,1,9.556,5.548,20.323,20.323,0,0,1,5.7,8.424l-11.983,5.357a12.012,12.012,0,0,0-6.088-6.6,22.746,22.746,0,0,0-10.165-2.139q-6.057,0-9.468,2.575a8.5,8.5,0,0,0-3.411,7.195q0,2.642,2.908,4.924a23.29,23.29,0,0,0,8.58,3.723l7.988,2a32.571,32.571,0,0,1,12.106,5.435,25.026,25.026,0,0,1,7.2,8.222,20.2,20.2,0,0,1,2.406,9.515,19.192,19.192,0,0,1-3.684,11.711,23.508,23.508,0,0,1-10.007,7.674A36.7,36.7,0,0,1,205.515,85.973Zm69.952,0a36.937,36.937,0,0,1-19.28-5,35.344,35.344,0,0,1-13.164-13.807,41.931,41.931,0,0,1-4.773-20.3,41.7,41.7,0,0,1,4.805-20.3,35.512,35.512,0,0,1,13.226-13.807,37.064,37.064,0,0,1,19.3-5,32.069,32.069,0,0,1,18.057,5.149,34.423,34.423,0,0,1,12.232,14.608q4.416,9.458,4.416,22.39H249.971l2.649-2.337a28.726,28.726,0,0,0,3.111,13.8,21.7,21.7,0,0,0,8.528,8.84,24.378,24.378,0,0,0,12.206,3.06A21.366,21.366,0,0,0,288.922,69.8a23.865,23.865,0,0,0,7.8-8.973l12.312,5.7A35.955,35.955,0,0,1,301.291,76.8a33.45,33.45,0,0,1-11.242,6.784A41.918,41.918,0,0,1,275.466,85.973ZM253.509,40.892l-2.806-2.26h47.2l-2.733,2.337a22.049,22.049,0,0,0-2.732-11.348,18.812,18.812,0,0,0-7.208-7.118,20.231,20.231,0,0,0-9.935-2.467A23.256,23.256,0,0,0,264.9,22.5a21.205,21.205,0,0,0-8.2,7.079A19.4,19.4,0,0,0,253.509,40.892Zm93.681,45.081q-11.325,0-17.4-5.769t-6.078-16.411V-13.733H337.8V61.7q0,5.455,2.792,8.364t7.969,2.909a10.479,10.479,0,0,0,3.358-.587,19.186,19.186,0,0,0,4.38-2.4l5.273,11.1a31.464,31.464,0,0,1-7.359,3.722A22.129,22.129,0,0,1,347.189,85.973ZM311.024,21.826V9.552h48.111V21.826Z" transform="translate(257.115 149.795)"/>
    <path id="Union_3" data-name="Union 3" d="M18.835,73.268A39.3,39.3,0,0,1,.348,49.261C.259,48.936.2,48.62.137,48.313c-.033-.167-.067-.335-.1-.5L0,47.672V37.983H68.87a37.669,37.669,0,0,0-4.016-12.2l-.241-.495A27.545,27.545,0,0,0,54.184,14.9a28.619,28.619,0,0,0-14.239-3.827,28.949,28.949,0,0,0-7.446.983,28.1,28.1,0,0,0-14.488,9.206H32.956V32.334H.526V.015h11.1V11.834a39.336,39.336,0,0,1,18-10.472,39.6,39.6,0,0,1,30.1,3.947c6.4,3.68,11.916,9.747,15.96,17.547a36.813,36.813,0,0,1,4.162,15.127h.082l.024,1.73a1.408,1.408,0,0,1-.01.341v8.76H11.87A28.3,28.3,0,0,0,24.385,63.676,28.594,28.594,0,0,0,38.619,67.5a28.916,28.916,0,0,0,7.449-.983A28.143,28.143,0,0,0,62.1,55.292l.8-1.147,9.109,7.56-.6.953C65,72.937,56.06,75.319,49.529,77.058l-.687.178A57.806,57.806,0,0,1,38.379,78.26,38.172,38.172,0,0,1,18.835,73.268Z" transform="translate(344.281 162.167)" fill="#045f9e"/>
    <path id="Path_13" data-name="Path 13" d="M3.883,65.309V57.42a19.532,19.532,0,0,1,1.493-7.373,29.084,29.084,0,0,1,4.377-7.278,41.076,41.076,0,0,1,7.071-6.8L33.166,23.758a28.608,28.608,0,0,0,5.081-4.742A22.591,22.591,0,0,0,41.7,13.484a14.08,14.08,0,0,0,1.249-5.6A13.531,13.531,0,0,0,41.01.758,14.255,14.255,0,0,0,35.59-4.389a16.757,16.757,0,0,0-8.246-1.926,17.723,17.723,0,0,0-8.1,1.765A16.957,16.957,0,0,0,13.491.082a17.813,17.813,0,0,0-3.2,6.114L.595,4.3A24.739,24.739,0,0,1,5.451-5.159a26.39,26.39,0,0,1,9.054-7.1,27.492,27.492,0,0,1,12.276-2.7,29.441,29.441,0,0,1,13.674,2.987,22.375,22.375,0,0,1,8.978,8.134A21.705,21.705,0,0,1,52.627,7.849a22.172,22.172,0,0,1-3.363,11.721A42.291,42.291,0,0,1,39.422,30.3L23.983,41.979a29.92,29.92,0,0,0-6.932,7.1,16.308,16.308,0,0,0-2.78,7.74H53.7v8.49Zm92.586,1.352a25.97,25.97,0,0,1-16.041-5.241A34.846,34.846,0,0,1,69.5,46.995a52.912,52.912,0,0,1-3.964-21.132A52.922,52.922,0,0,1,69.495,4.731,34.908,34.908,0,0,1,80.408-9.7a25.894,25.894,0,0,1,16.024-5.241A26.026,26.026,0,0,1,112.505-9.7,34.915,34.915,0,0,1,123.451,4.731a52.788,52.788,0,0,1,3.975,21.132,52.84,52.84,0,0,1-3.97,21.132,34.914,34.914,0,0,1-10.932,14.426A25.973,25.973,0,0,1,96.469,66.662Zm.011-8.6a16.822,16.822,0,0,0,11.185-4.133,27.086,27.086,0,0,0,7.627-11.383,46.971,46.971,0,0,0,2.743-16.686,47.107,47.107,0,0,0-2.74-16.7,27,27,0,0,0-7.64-11.4A16.906,16.906,0,0,0,96.432-6.371,16.777,16.777,0,0,0,85.266-2.239a27.038,27.038,0,0,0-7.608,11.4,47.231,47.231,0,0,0-2.733,16.7,47.122,47.122,0,0,0,2.735,16.69,26.971,26.971,0,0,0,7.626,11.383A16.857,16.857,0,0,0,96.479,58.059Zm42.592,7.25V57.42a19.533,19.533,0,0,1,1.493-7.373,29.085,29.085,0,0,1,4.377-7.278,41.074,41.074,0,0,1,7.071-6.8l16.342-12.211a28.609,28.609,0,0,0,5.081-4.742,22.591,22.591,0,0,0,3.457-5.532,14.08,14.08,0,0,0,1.249-5.6A13.531,13.531,0,0,0,176.2.758a14.255,14.255,0,0,0-5.42-5.147,16.756,16.756,0,0,0-8.246-1.926,17.723,17.723,0,0,0-8.1,1.765A16.956,16.956,0,0,0,148.68.082a17.813,17.813,0,0,0-3.2,6.114l-9.693-1.9a24.739,24.739,0,0,1,4.856-9.458,26.39,26.39,0,0,1,9.054-7.1,27.492,27.492,0,0,1,12.276-2.7,29.441,29.441,0,0,1,13.674,2.987,22.375,22.375,0,0,1,8.978,8.134,21.705,21.705,0,0,1,3.194,11.684,22.172,22.172,0,0,1-3.363,11.721A42.292,42.292,0,0,1,174.61,30.3L159.172,41.979a29.92,29.92,0,0,0-6.932,7.1,16.308,16.308,0,0,0-2.78,7.74h39.427v8.49Zm97.771,0V46.186h-36.4v-7.4l35.916-52.371h9.673V37.7h16.117v8.49H246.028V65.309ZM211.278,37.7h25.564V.242Z" transform="translate(640.281 310.847)"/>
    <path id="Path_14-2" data-name="Path 14" d="M262.126,3.583H0V-2.5H262.126Z" transform="translate(640.301 269.332)" fill="#53a233"/>
  </g>
</svg>
