<?xml version="1.0" encoding="utf-8"?>
<!-- Generator: Adobe Illustrator 27.8.0, SVG Export Plug-In . SVG Version: 6.00 Build 0)  -->
<svg version="1.1" id="Layer_1" xmlns="http://www.w3.org/2000/svg" xmlns:xlink="http://www.w3.org/1999/xlink" x="0px" y="0px"
	 viewBox="0 0 80 52" style="enable-background:new 0 0 80 52;" xml:space="preserve">
<style type="text/css">
	.st0{fill:#17479E;}
	.st1{fill:#FFFFFF;}
	.st2{fill:none;}
</style>
<g>
	<g>
		<ellipse class="st0" cx="40" cy="26" rx="36.02" ry="14.12"/>
		<path class="st1" d="M40,13.48C20.73,13.48,5.11,19.1,5.11,26c0,6.9,15.62,12.52,34.89,12.52c19.27,0,34.89-5.63,34.89-12.52
			C74.89,19.1,59.27,13.48,40,13.48z M40,37.7C20.99,37.7,5.59,32.43,5.59,26c0-6.43,15.41-11.7,34.41-11.7
			c19.01,0,34.41,5.27,34.41,11.7C74.41,32.43,59.01,37.7,40,37.7z M31.99,27.81c-0.29,0.45-0.94,1.22-1.39,1.22
			c-0.12,0-0.19-0.07-0.19-0.21c0-0.19,0.07-0.42,0.07-0.42l1.94-5.41h-1.63l-0.22,0.59c-0.29-0.45-0.67-0.61-1.15-0.61
			c-1.9,0-4.99,2.66-4.99,5.39c0,1.18,0.72,1.86,1.7,1.86c0.98,0,1.87-0.8,2.52-1.77h0.05c-0.02,0.16-0.07,0.42-0.07,0.66
			c0,0.59,0.31,1.04,0.91,1.04c1.34,0,2.52-1.74,2.9-2.33H31.99z M30.07,24.92c0,0-0.53,1.25-1.06,2.24c-0.43,0.8-1.39,2-2.09,2
			c-0.5,0-0.77-0.35-0.77-0.94c0-2,2.18-4.78,3.41-4.78c0.41,0,0.65,0.35,0.65,0.8C30.21,24.45,30.16,24.66,30.07,24.92z
			 M54.54,29.39c-0.91,0-1.32-0.66-1.32-1.39c0-0.26,0.02-0.64,0.07-0.85c3.5-0.12,5.06-1.34,5.06-2.66c0-0.97-0.82-1.62-2.09-1.62
			c-2.88,0-4.85,2.68-4.85,4.92c0,1.6,0.98,2.42,2.62,2.42c1.56,0,3.1-1.22,3.77-2.24H57.4C56.8,28.57,55.79,29.39,54.54,29.39z
			 M56.08,23.32c0.55,0,0.77,0.4,0.77,0.87c0,0.73-0.94,2.42-3.43,2.47C53.65,25.22,54.81,23.32,56.08,23.32z M34.98,30h-1.61
			c0,0,1.34-3.74,1.75-5.06c0.07-0.24,0.12-0.49,0.12-0.61c0-0.09-0.05-0.19-0.17-0.19c-0.17,0-0.58,0.19-1.32,1.22h-0.43
			c0.89-1.44,1.99-2.4,2.76-2.4c0.5,0,0.72,0.28,0.72,0.73c0,0.31-0.14,0.89-0.48,2.07c1.44-2.57,2.35-2.92,2.93-2.9
			c0.6,0,0.94,0.4,0.94,0.89c0,0.52-0.41,1.13-1.03,1.13c-0.41,0-0.7-0.31-0.7-0.82c0-0.05,0-0.12,0-0.16
			c-0.41,0.21-1.46,1.13-2.74,4.17L34.98,30z M24.21,20.66c-0.24-0.07-0.58-0.12-0.91-0.12c-3.22,0-6,3.04-6,6.12
			c0,2.26,1.42,2.85,2.57,2.85c1.34,0,2.3-0.52,3.19-1.29h0.48c-0.67,0.92-2.11,2.07-4.2,2.07c-2.86,0-3.96-1.69-3.96-3.65
			c0-3.62,3.94-6.68,8.06-6.68c1.61,0,2.52,0.56,2.52,1.37c0,0.52-0.38,0.97-1.03,0.97c-0.53,0-0.94-0.31-0.94-0.87
			C23.99,21.22,24.09,20.89,24.21,20.66z M48.81,22.99h1.61l-1.92,5.3c-0.02,0.07-0.12,0.35-0.12,0.59c0,0.16,0.07,0.24,0.19,0.24
			c0.43,0,1.18-0.68,1.63-1.29h0.43c-0.72,1.18-1.99,2.4-3.14,2.4c-0.55,0-0.91-0.33-0.91-0.85c0-0.31,0.1-0.8,0.38-1.55
			L48.81,22.99z M51.13,20.94c0,0.68-0.58,1.34-1.25,1.34c-0.38,0-0.67-0.24-0.67-0.73c0-0.68,0.58-1.34,1.25-1.34
			C50.85,20.21,51.13,20.45,51.13,20.94z M42.02,30h-1.61c0,0,1.34-3.74,1.75-5.06c0.07-0.24,0.12-0.49,0.12-0.61
			c0-0.09-0.05-0.19-0.17-0.19c-0.17,0-0.58,0.19-1.32,1.22h-0.43c0.89-1.44,1.99-2.4,2.76-2.4c0.5,0,0.72,0.28,0.72,0.73
			c0,0.31-0.14,0.89-0.48,2.07c1.44-2.57,2.35-2.92,2.93-2.9c0.6,0,0.94,0.4,0.94,0.89c0,0.52-0.41,1.13-1.03,1.13
			c-0.41,0-0.7-0.31-0.7-0.82c0-0.05,0-0.12,0-0.16c-0.41,0.21-1.46,1.13-2.74,4.17L42.02,30z M60.85,30h-1.61
			c0,0,1.34-3.74,1.75-5.06c0.07-0.24,0.12-0.49,0.12-0.61c0-0.09-0.05-0.19-0.17-0.19c-0.17,0-0.58,0.19-1.32,1.22H59.2
			c0.89-1.44,1.99-2.4,2.76-2.4c0.5,0,0.72,0.28,0.72,0.73c0,0.31-0.14,0.89-0.48,2.07c1.44-2.57,2.35-2.92,2.93-2.9
			c0.6,0,0.94,0.4,0.94,0.89c0,0.52-0.41,1.13-1.03,1.13c-0.41,0-0.7-0.31-0.7-0.82c0-0.05,0-0.12,0-0.16
			c-0.41,0.21-1.46,1.13-2.74,4.17L60.85,30z"/>
	</g>
	<path class="st2" d="M76.74,21.65c-0.07,0.24-0.12,0.56-0.12,0.89c0,3.15,3.1,5.88,6.24,5.88c2.3,0,2.9-1.39,2.9-2.52
		c0-1.32-0.53-2.26-1.32-3.13V22.3c0.94,0.66,2.11,2.07,2.11,4.12c0,2.8-1.73,3.88-3.72,3.88c-3.7,0-6.82-3.86-6.82-7.91
		c0-1.58,0.58-2.47,1.39-2.47c0.53,0,0.98,0.38,0.98,1.01c0,0.52-0.31,0.92-0.89,0.92C77.31,21.86,76.98,21.76,76.74,21.65z"/>
	<path class="st2" d="M-5.83,21.65c-0.07,0.24-0.12,0.56-0.12,0.89c0,3.15,3.1,5.88,6.24,5.88c2.3,0,2.9-1.39,2.9-2.52
		c0-1.32-0.53-2.26-1.32-3.13V22.3c0.94,0.66,2.11,2.07,2.11,4.12c0,2.8-1.73,3.88-3.72,3.88c-3.7,0-6.82-3.86-6.82-7.91
		c0-1.58,0.58-2.47,1.39-2.47c0.53,0,0.98,0.38,0.98,1.01c0,0.52-0.31,0.92-0.89,0.92C-5.26,21.86-5.59,21.76-5.83,21.65z"/>
	<path class="st2" d="M46.85,2.25c-0.24-0.07-0.58-0.12-0.91-0.12c-3.22,0-6,3.04-6,6.12c0,2.26,1.42,2.85,2.57,2.85
		c1.34,0,2.3-0.52,3.19-1.29h0.48c-0.67,0.92-2.11,2.07-4.2,2.07c-2.86,0-3.96-1.69-3.96-3.65c0-3.62,3.94-6.68,8.06-6.68
		c1.61,0,2.52,0.56,2.52,1.37c0,0.52-0.38,0.97-1.03,0.97c-0.53,0-0.94-0.31-0.94-0.87C46.64,2.82,46.73,2.49,46.85,2.25z"/>
	<path class="st2" d="M46.85,40.83c-0.24-0.07-0.58-0.12-0.91-0.12c-3.22,0-6,3.04-6,6.12c0,2.26,1.42,2.85,2.57,2.85
		c1.34,0,2.3-0.52,3.19-1.29h0.48c-0.67,0.92-2.11,2.07-4.2,2.07c-2.86,0-3.96-1.69-3.96-3.65c0-3.62,3.94-6.68,8.06-6.68
		c1.61,0,2.52,0.56,2.52,1.37c0,0.52-0.38,0.97-1.03,0.97c-0.53,0-0.94-0.31-0.94-0.87C46.64,41.39,46.73,41.06,46.85,40.83z"/>
</g>
</svg>
