<svg xmlns="http://www.w3.org/2000/svg" xmlns:xlink="http://www.w3.org/1999/xlink" width="401" height="44.588" viewBox="0 0 401 44.588">
  <defs>
    <linearGradient id="linear-gradient" x1="1.109" y1="0.228" x2="-1.285" y2="1.078" gradientUnits="objectBoundingBox">
      <stop offset="0" stop-color="#03ffec"/>
      <stop offset="0.502" stop-color="#e8ff36"/>
      <stop offset="1" stop-color="#d80000"/>
    </linearGradient>
    <linearGradient id="linear-gradient-4" x1="1" y1="0.864" x2="0" y2="0.886" xlink:href="#linear-gradient"/>
    <filter id="Path_149" x="46.799" y="0.068" width="44.622" height="44.52" filterUnits="userSpaceOnUse">
      <feOffset input="SourceAlpha"/>
      <feGaussianBlur stdDeviation="4" result="blur"/>
      <feFlood flood-color="#00ceff"/>
      <feComposite operator="in" in2="blur"/>
      <feComposite in="SourceGraphic"/>
    </filter>
  </defs>
  <g id="Group_41335" data-name="Group 41335" transform="translate(-1072.5 -369.5)">
    <g id="Group_41316" data-name="Group 41316">
      <rect id="Rectangle_1" data-name="Rectangle 1" width="400" height="33" rx="4" transform="translate(1073 370)" stroke="rgba(0,0,0,0)" stroke-width="1"/>
    </g>
    <g id="Group_41329" data-name="Group 41329">
      <path id="Path_40879" data-name="Path 40879" d="M12.975-17.55v3.425H5.825v3.7h5.35V-7.1H5.825V0H1.55V-17.55ZM24.175,0l-3.65-6.625H19.5V0H15.225V-17.55H22.4a7.9,7.9,0,0,1,3.537.725,4.994,4.994,0,0,1,2.188,1.987,5.546,5.546,0,0,1,.725,2.813A5.224,5.224,0,0,1,27.862-8.9,5.315,5.315,0,0,1,24.95-6.95L29,0ZM19.5-9.65h2.65a2.426,2.426,0,0,0,1.763-.575A2.17,2.17,0,0,0,24.5-11.85a2.1,2.1,0,0,0-.587-1.575A2.426,2.426,0,0,0,22.15-14H19.5Zm16.3-4.475v3.55h5.725v3.3H35.8v3.85h6.475V0H31.525V-17.55h10.75v3.425Zm13.525,0v3.55H55.05v3.3H49.325v3.85H55.8V0H45.05V-17.55H55.8v3.425Zm15.45,5.4a9.169,9.169,0,0,1,1.15-4.588A8.354,8.354,0,0,1,69.063-16.5a8.651,8.651,0,0,1,4.412-1.15,8.954,8.954,0,0,1,4.975,1.375,7.88,7.88,0,0,1,3.1,3.9H78.825A5.471,5.471,0,0,0,76.738-14.8a6.04,6.04,0,0,0-3.263-.85,6.354,6.354,0,0,0-3.275.85,5.944,5.944,0,0,0-2.275,2.413A7.735,7.735,0,0,0,67.1-8.725a7.679,7.679,0,0,0,.825,3.638A5.944,5.944,0,0,0,70.2-2.675a6.354,6.354,0,0,0,3.275.85,6.11,6.11,0,0,0,3.263-.837,5.393,5.393,0,0,0,2.087-2.412H81.55a7.822,7.822,0,0,1-3.1,3.862A9.015,9.015,0,0,1,73.475.15,8.725,8.725,0,0,1,69.063-.988,8.288,8.288,0,0,1,65.925-4.15,9.1,9.1,0,0,1,64.775-8.725ZM87.2-11.475A4.364,4.364,0,0,1,88.912-13.3a5.293,5.293,0,0,1,2.713-.65v2.35h-.6Q87.2-11.6,87.2-7.45V0H84.925V-13.7H87.2Zm19.55,4.1A13.388,13.388,0,0,1,106.675-6H95.725a4.429,4.429,0,0,0,1.387,3.162A4.413,4.413,0,0,0,100.175-1.7a4.207,4.207,0,0,0,2.463-.687,3.639,3.639,0,0,0,1.387-1.837h2.45a5.889,5.889,0,0,1-2.2,3.212,6.64,6.64,0,0,1-4.1,1.238A6.925,6.925,0,0,1,96.688-.65a6.194,6.194,0,0,1-2.413-2.487A7.714,7.714,0,0,1,93.4-6.875a7.825,7.825,0,0,1,.85-3.725,5.967,5.967,0,0,1,2.387-2.462,7.107,7.107,0,0,1,3.537-.863,6.876,6.876,0,0,1,3.45.85,5.886,5.886,0,0,1,2.313,2.337A6.9,6.9,0,0,1,106.75-7.375ZM104.4-7.85a4.2,4.2,0,0,0-.575-2.237,3.739,3.739,0,0,0-1.562-1.425A4.874,4.874,0,0,0,100.075-12a4.216,4.216,0,0,0-2.938,1.1A4.482,4.482,0,0,0,95.75-7.85Zm4.5.95a7.7,7.7,0,0,1,.85-3.687,6.167,6.167,0,0,1,2.337-2.463,6.459,6.459,0,0,1,3.338-.875,6.2,6.2,0,0,1,2.975.738,5.322,5.322,0,0,1,2.1,1.937V-18.5h2.3V0h-2.3V-2.575a5.324,5.324,0,0,1-2,2.013,5.953,5.953,0,0,1-3.1.787,6.275,6.275,0,0,1-3.312-.9A6.283,6.283,0,0,1,109.75-3.2,7.864,7.864,0,0,1,108.9-6.9Zm11.6.025a5.57,5.57,0,0,0-.625-2.7,4.413,4.413,0,0,0-1.687-1.762,4.6,4.6,0,0,0-2.338-.613,4.6,4.6,0,0,0-2.325.6A4.353,4.353,0,0,0,111.85-9.6a5.57,5.57,0,0,0-.625,2.7,5.7,5.7,0,0,0,.625,2.737,4.421,4.421,0,0,0,1.675,1.775,4.53,4.53,0,0,0,2.325.612,4.6,4.6,0,0,0,2.338-.612,4.394,4.394,0,0,0,1.688-1.775A5.643,5.643,0,0,0,120.5-6.875Zm7.325-9.05a1.5,1.5,0,0,1-1.1-.45,1.5,1.5,0,0,1-.45-1.1,1.5,1.5,0,0,1,.45-1.1,1.5,1.5,0,0,1,1.1-.45,1.426,1.426,0,0,1,1.062.45,1.518,1.518,0,0,1,.438,1.1,1.518,1.518,0,0,1-.437,1.1A1.427,1.427,0,0,1,127.825-15.925Zm1.1,2.225V0H126.65V-13.7Zm6.65,1.875V-3.75A1.921,1.921,0,0,0,136-2.338a2.1,2.1,0,0,0,1.475.413h1.675V0H137.1a4.08,4.08,0,0,1-2.85-.875,3.755,3.755,0,0,1-.95-2.875v-8.075h-1.775V-13.7H133.3v-3.45h2.275v3.45h3.575v1.875ZM157.75,0,153.6-7.125h-2.75V0h-2.275V-17.425H154.2a7.468,7.468,0,0,1,3.337.675,4.7,4.7,0,0,1,2.038,1.825,5.088,5.088,0,0,1,.675,2.625,5.128,5.128,0,0,1-1.038,3.175A5.07,5.07,0,0,1,156.1-7.3L160.475,0Zm-6.9-8.95h3.35a3.8,3.8,0,0,0,2.775-.912A3.269,3.269,0,0,0,157.9-12.3a3.118,3.118,0,0,0-.913-2.4,3.971,3.971,0,0,0-2.787-.85h-3.35Zm25.425,1.575A13.388,13.388,0,0,1,176.2-6H165.25a4.429,4.429,0,0,0,1.388,3.162A4.413,4.413,0,0,0,169.7-1.7a4.207,4.207,0,0,0,2.462-.687,3.639,3.639,0,0,0,1.387-1.837H176a5.889,5.889,0,0,1-2.2,3.212A6.64,6.64,0,0,1,169.7.225a6.925,6.925,0,0,1-3.488-.875A6.194,6.194,0,0,1,163.8-3.137a7.715,7.715,0,0,1-.875-3.738,7.825,7.825,0,0,1,.85-3.725,5.967,5.967,0,0,1,2.387-2.462,7.107,7.107,0,0,1,3.538-.863,6.876,6.876,0,0,1,3.45.85,5.886,5.886,0,0,1,2.313,2.337A6.9,6.9,0,0,1,176.275-7.375Zm-2.35-.475a4.2,4.2,0,0,0-.575-2.237,3.739,3.739,0,0,0-1.562-1.425A4.874,4.874,0,0,0,169.6-12a4.216,4.216,0,0,0-2.937,1.1,4.482,4.482,0,0,0-1.387,3.05Zm7.625-3.325a5.425,5.425,0,0,1,2.012-1.962,6.02,6.02,0,0,1,3.113-.787,6.411,6.411,0,0,1,3.313.875,6.167,6.167,0,0,1,2.338,2.463,7.7,7.7,0,0,1,.85,3.687,7.864,7.864,0,0,1-.85,3.7,6.283,6.283,0,0,1-2.338,2.525,6.275,6.275,0,0,1-3.312.9,5.971,5.971,0,0,1-3.087-.787,5.631,5.631,0,0,1-2.038-1.963V6.5h-2.275V-13.7h2.275Zm9.3,4.275a5.57,5.57,0,0,0-.625-2.7,4.327,4.327,0,0,0-1.687-1.75,4.672,4.672,0,0,0-2.337-.6,4.55,4.55,0,0,0-2.312.613,4.478,4.478,0,0,0-1.7,1.775,5.5,5.5,0,0,0-.637,2.688,5.553,5.553,0,0,0,.637,2.713,4.478,4.478,0,0,0,1.7,1.775,4.55,4.55,0,0,0,2.313.612,4.6,4.6,0,0,0,2.337-.612,4.394,4.394,0,0,0,1.688-1.775A5.7,5.7,0,0,0,190.85-6.9ZM202.15.225a7.014,7.014,0,0,1-3.487-.875,6.229,6.229,0,0,1-2.45-2.487,7.627,7.627,0,0,1-.887-3.738,7.407,7.407,0,0,1,.913-3.712,6.288,6.288,0,0,1,2.488-2.475,7.217,7.217,0,0,1,3.525-.863,7.217,7.217,0,0,1,3.525.863,6.31,6.31,0,0,1,2.488,2.462,7.389,7.389,0,0,1,.913,3.725,7.3,7.3,0,0,1-.937,3.738A6.5,6.5,0,0,1,205.7-.65,7.276,7.276,0,0,1,202.15.225Zm0-2a4.8,4.8,0,0,0,2.3-.575,4.375,4.375,0,0,0,1.738-1.725,5.525,5.525,0,0,0,.663-2.8,5.611,5.611,0,0,0-.65-2.8,4.256,4.256,0,0,0-1.7-1.712,4.743,4.743,0,0,0-2.275-.562,4.721,4.721,0,0,0-2.288.563,4.124,4.124,0,0,0-1.663,1.712,5.793,5.793,0,0,0-.625,2.8,5.949,5.949,0,0,0,.613,2.825A4.071,4.071,0,0,0,199.9-2.338,4.6,4.6,0,0,0,202.15-1.775Zm12.3-9.7a4.364,4.364,0,0,1,1.713-1.825,5.293,5.293,0,0,1,2.712-.65v2.35h-.6q-3.825,0-3.825,4.15V0h-2.275V-13.7h2.275Zm9.825-.35V-3.75a1.921,1.921,0,0,0,.425,1.413,2.1,2.1,0,0,0,1.475.413h1.675V0H225.8a4.08,4.08,0,0,1-2.85-.875A3.755,3.755,0,0,1,222-3.75v-8.075h-1.775V-13.7H222v-3.45h2.275v3.45h3.575v1.875Z" transform="translate(1168.45 395)" fill="url(#linear-gradient)"/>
      <g id="Group_41321" data-name="Group 41321" transform="translate(-2513.325 228.928)">
        <circle id="Ellipse_396" data-name="Ellipse 396" cx="10" cy="10" r="10" transform="translate(3924.325 147.572)" fill="url(#linear-gradient)"/>
        <g id="Group_30096" data-name="Group 30096" transform="translate(3928.759 153.639)">
          <path id="Path_40578" data-name="Path 40578" d="M3841.811,149.5l4.039,3.933-4.039,3.933" transform="translate(-3834.589 -149.5)" fill="none" stroke="#000" stroke-linecap="round" stroke-linejoin="round" stroke-width="1"/>
          <path id="Path_40579" data-name="Path 40579" d="M3937.614,155.9h-9.966" transform="translate(-3927.648 -152.067)" fill="none" stroke="#000" stroke-linecap="round" stroke-linejoin="round" stroke-width="1"/>
        </g>
        <path id="Ellipse_397" data-name="Ellipse 397" d="M11,0A11,11,0,1,0,22,11,11,11,0,0,0,11,0m0-1A12,12,0,0,1,23,11,12,12,0,0,1,11,23,12,12,0,0,1-1,11,12,12,0,0,1,11-1Z" transform="translate(3923.325 146.572)" fill="url(#linear-gradient)"/>
      </g>
      <g id="Group_41328" data-name="Group 41328" transform="translate(805.783 169.26)">
        <path id="Union_20" data-name="Union 20" d="M2.02,24.229A2.07,2.07,0,0,1,0,22.224v-.155c0-.01,0-.02,0-.03L0,21.9a22.718,22.718,0,0,1,.283-3.353,22.083,22.083,0,0,1,.792-3.274A22.146,22.146,0,0,1,4.225,9.112,21.851,21.851,0,0,1,9.112,4.225a22.146,22.146,0,0,1,6.162-3.144,22.558,22.558,0,0,1,3.374-.81A24.224,24.224,0,0,1,22.1,0h0a24.233,24.233,0,0,1,3.455.271,22.581,22.581,0,0,1,3.374.81A22.156,22.156,0,0,1,35.1,4.225a21.851,21.851,0,0,1,4.888,4.888,22.089,22.089,0,0,1,3.144,6.162,21.983,21.983,0,0,1,.792,3.274A22.61,22.61,0,0,1,44.2,21.9l0,.2v.1a2.078,2.078,0,0,1-4.154,0l0-.089V22.1c0-.009,0-.018,0-.027l0-.139a18.592,18.592,0,0,0-.23-2.726,17.99,17.99,0,0,0-.643-2.655,17.987,17.987,0,0,0-2.551-5A17.724,17.724,0,0,0,32.65,7.585a17.987,17.987,0,0,0-5-2.551,18.407,18.407,0,0,0-2.736-.657,19.973,19.973,0,0,0-2.81-.221h0a19.992,19.992,0,0,0-2.81.221,18.421,18.421,0,0,0-2.735.657,17.976,17.976,0,0,0-5,2.551,17.7,17.7,0,0,0-3.973,3.973,17.987,17.987,0,0,0-2.551,5,17.99,17.99,0,0,0-.643,2.655,18.483,18.483,0,0,0-.23,2.726l0,.166,0,.106a2.077,2.077,0,0,1-2.075,2.02Z" transform="translate(307.217 204.539)" fill="url(#linear-gradient-4)"/>
        <g transform="matrix(1, 0, 0, 1, 266.72, 200.24)" filter="url(#Path_149)">
          <path id="Path_149-2" data-name="Path 149" d="M15.1,12.335C14.333,11.572,0,0,0,0S11.572,14.333,12.335,15.1A1.952,1.952,0,1,0,15.1,12.335" transform="translate(78.94 16.94) rotate(106)" fill="#fff" stroke="rgba(0,0,0,0)" stroke-width="1"/>
        </g>
      </g>
    </g>
  </g>
</svg>
