<?xml version="1.0" encoding="utf-8"?>
<!-- Generator: Adobe Illustrator 28.1.0, SVG Export Plug-In . SVG Version: 6.00 Build 0)  -->
<svg version="1.1" xmlns="http://www.w3.org/2000/svg" xmlns:xlink="http://www.w3.org/1999/xlink" x="0px" y="0px"
	 viewBox="0 0 80 50" style="enable-background:new 0 0 80 50;" xml:space="preserve">
<style type="text/css">
	.st0{display:none;}
	.st1{display:inline;}
	.st2{fill:none;stroke:#FF00FF;stroke-width:2;stroke-miterlimit:10;}
	.st3{fill:none;stroke:#FF00FF;stroke-width:2;stroke-miterlimit:10;stroke-dasharray:12.028,12.028;}
	.st4{fill:none;stroke:#FF00FF;stroke-width:2;stroke-miterlimit:10;stroke-dasharray:11.9788,11.9788;}
	.st5{display:inline;opacity:0.6;fill:#FF00FF;}
	.st6{display:inline;fill:none;stroke:#FF00FF;stroke-width:2;stroke-miterlimit:10;stroke-dasharray:12;}
	.st7{fill:#1D386D;}
</style>
<g id="Guideline_00000000220005286354189780000000740886914700808330_" class="st0">
	<g class="st1">
		<g>
			<polyline class="st2" points="1448,786.1 1448,792.1 1442,792.1 			"/>
			<line class="st3" x1="1430" y1="792.1" x2="-1354.5" y2="792.1"/>
			<polyline class="st2" points="-1360.5,792.1 -1366.5,792.1 -1366.5,786.1 			"/>
			<line class="st4" x1="-1366.5" y1="774.1" x2="-1366.5" y2="-729.2"/>
			<polyline class="st2" points="-1366.5,-735.2 -1366.5,-741.2 -1360.5,-741.2 			"/>
			<line class="st3" x1="-1348.5" y1="-741.2" x2="1436" y2="-741.2"/>
			<polyline class="st2" points="1442,-741.2 1448,-741.2 1448,-735.2 			"/>
			<line class="st4" x1="1448" y1="-723.2" x2="1448" y2="780.1"/>
		</g>
	</g>
	<path class="st5" d="M-1017.2-685c3-1.8,8.4-1.8,9-5.9c-4.2-8.9-16.2-5.9-22.8-10.7c3.6-3.6,9-2.4,13.2-4.8
		c118.6-17.2,235.5,19.1,328.4,85.5c49.1,35.1,95.9,87.2,79.7,150c-21.2,60.8-104.3,70.1-169,69.5c-14.4-0.2-26.7-2.4-39.5-7.2
		c0.4-37.9-0.3-84.9-1-109.1c26.7-1.5,78.3,6.5,112.5,21.3c6.6,4.3-12.6,17.2-19.8,23.8c-4,4.7,10.6,9.1,20.4,8.3
		c15-2.4,27.6-14.3,33.6-27.9c4.2-13-2.1-23.2-10.2-32c-36.5-30.9-86.8-30.7-135.9-31.9c-0.5-17.1-0.9-42.7-4.2-58.1
		c-3.3-15.3-10.9-22.1-22.2-24.5c-9,10.1-10.4,23.2-12,36.8c-1.9,16.6-3.7,34.6-5.4,49.8c0,0-26.7,5.2-42.6,8.9
		c-15.8,3.7-77.8,23.4-72.5,54.6c7,27.7,51.5,61.1,82.1,80.7c10,6.4,20.1,11.9,31.2,17.2c1.2,14.4,3.6,28.5,13.2,39.8
		c3.1,2.8,13.9,1.7,22.2,0c10.2-4.2,10.5-15,11.4-23.2c10.7,1.9,23.5,4.8,42,7.1c74.3,9.2,165.3-11.9,206.1-85.4
		c34.2-70.6-25.2-139-69.7-177.2c-6.2-5.3-28.3-23.2-40-30.5c-97.3-60.5-222.9-103.2-345.2-68.2c-15.6,5.4-22.8,21.4-25.2,35.6
		C-1041.7-683.2-1029.8-685-1017.2-685z M-865.6-422.7c-36.1-10.7-74.3-30.8-99.5-64.1c-5.9-9.3,16.2-14.8,27-17.8
		c23.8-6.6,49.1-9.5,74.9-10.7C-865.3-482.4-865.8-445.8-865.6-422.7z"/>
	<path class="st5" d="M-147.8-1077.6c3-1.8,8.4-1.8,9-5.9c-4.2-8.9-16.2-5.9-22.8-10.7c3.6-3.6,9-2.4,13.2-4.8
		c118.6-17.2,235.5,19.1,328.4,85.5c49.1,35.1,95.9,87.2,79.7,150c-21.2,60.8-104.3,70.1-169,69.5c-14.4-0.2-26.7-2.4-39.5-7.2
		c0.4-37.9-0.3-84.9-1-109.1c26.7-1.5,78.3,6.5,112.5,21.3c6.6,4.3-12.6,17.2-19.8,23.8c-4,4.7,10.6,9.1,20.4,8.3
		c15-2.4,27.6-14.3,33.6-27.9c4.2-13-2.1-23.2-10.2-32c-36.5-30.9-86.8-30.7-135.9-31.9c-0.5-17.1-0.9-42.7-4.2-58.1
		c-3.3-15.3-10.9-22.1-22.2-24.5c-9,10.1-10.4,23.2-12,36.8c-1.9,16.6-3.7,34.6-5.4,49.8c0,0-26.7,5.2-42.6,8.9
		c-15.8,3.7-77.8,23.4-72.5,54.6c7,27.7,51.5,61.1,82.1,80.7c10,6.4,20.1,11.9,31.2,17.2c1.2,14.4,3.6,28.5,13.2,39.8
		c3.1,2.8,13.9,1.7,22.2,0c10.2-4.2,10.5-15,11.4-23.2c10.7,1.9,23.5,4.8,42,7.1c74.3,9.2,165.3-11.9,206.1-85.4
		c34.2-70.6-25.2-139-69.7-177.2c-6.2-5.3-28.3-23.2-40-30.5c-97.3-60.5-222.9-103.2-345.2-68.2c-15.6,5.4-22.8,21.4-25.2,35.6
		C-172.4-1075.8-160.4-1077.6-147.8-1077.6z M3.8-815.4c-36.1-10.7-74.3-30.8-99.5-64.1c-5.9-9.3,16.2-14.8,27-17.8
		c23.8-6.6,49.1-9.5,74.9-10.7C4.1-875,3.6-838.5,3.8-815.4z"/>
	<path class="st5" d="M-1422-233.2c1.8,3,1.8,8.4,5.9,9c8.9-4.2,5.9-16.2,10.7-22.8c3.6,3.6,2.4,9,4.8,13.2
		c17.2,118.6-19.1,235.5-85.5,328.4c-35.1,49.1-87.2,95.9-150,79.7c-60.8-21.2-70.1-104.3-69.5-169c0.2-14.4,2.4-26.7,7.2-39.5
		c37.9,0.4,84.9-0.3,109.1-1c1.5,26.7-6.5,78.3-21.3,112.5c-4.3,6.6-17.2-12.6-23.8-19.8c-4.7-4-9.1,10.6-8.3,20.4
		c2.4,15,14.3,27.6,27.9,33.6c13,4.2,23.2-2.1,32-10.2c30.9-36.5,30.7-86.8,31.9-135.9c17.1-0.5,42.7-0.9,58.1-4.2
		c15.3-3.3,22.1-10.9,24.5-22.2c-10.1-9-23.2-10.4-36.8-12c-16.6-1.9-34.6-3.7-49.8-5.4c0,0-5.2-26.7-8.9-42.6
		c-3.7-15.8-23.4-77.8-54.6-72.5c-27.7,7-61.1,51.5-80.7,82.1c-6.4,10-11.9,20.1-17.2,31.2c-14.4,1.2-28.5,3.6-39.8,13.2
		c-2.8,3.1-1.7,13.9,0,22.2c4.2,10.2,15,10.5,23.2,11.4c-1.9,10.7-4.8,23.5-7.1,42c-9.2,74.3,11.9,165.3,85.4,206.1
		c70.6,34.2,139-25.2,177.2-69.7c5.3-6.2,23.2-28.3,30.5-40c60.5-97.3,103.2-222.9,68.2-345.2c-5.4-15.6-21.4-22.8-35.6-25.2
		C-1423.8-257.8-1422-245.8-1422-233.2z M-1684.2-81.6c10.7-36.1,30.8-74.3,64.1-99.5c9.3-5.9,14.8,16.2,17.8,27
		c6.6,23.8,9.5,49.1,10.7,74.9C-1624.6-81.4-1661.1-81.9-1684.2-81.6z"/>
	<path class="st5" d="M-143,848.3c3-1.8,8.4-1.8,9-5.9c-4.2-8.9-16.1-5.9-22.7-10.7c3.6-3.6,9-2.4,13.2-4.8
		c118.4-17.2,235.1,19.1,327.8,85.3c49.1,35,95.8,87.1,79.6,149.8c-21.2,60.7-104.1,70-168.7,69.3c-14.4-0.2-26.7-2.4-39.5-7.1
		c0.4-37.9-0.3-84.8-1-109c26.7-1.5,78.2,6.5,112.3,21.3c6.6,4.3-12.6,17.1-19.8,23.7c-3.9,4.6,10.6,9.1,20.4,8.3
		c15-2.4,27.5-14.2,33.5-27.9c4.2-13-2.1-23.2-10.2-32C154.4,978,104.2,978.2,55.1,977c-0.5-17.1-0.9-42.6-4.2-58
		c-3.3-15.3-10.8-22.1-22.2-24.5c-9,10.1-10.4,23.2-12,36.7c-1.9,16.6-3.7,34.6-5.4,49.8c0,0-26.7,5.2-42.5,8.9
		c-15.8,3.7-77.7,23.4-72.4,54.5c7,27.7,51.5,61,82,80.6c9.9,6.4,20.1,11.9,31.1,17.2c1.2,14.4,3.6,28.4,13.1,39.7
		c3.1,2.8,13.9,1.7,22.2,0c10.1-4.2,10.4-15,11.4-23.1c10.7,1.9,23.4,4.8,41.9,7.1c74.2,9.2,165-11.8,205.8-85.3
		c34.1-70.5-25.1-138.8-69.5-176.9c-6.2-5.3-28.3-23.1-39.9-30.4c-97.1-60.4-222.6-103-344.6-68.1c-15.6,5.3-22.8,21.3-25.1,35.5
		C-167.5,850.1-155.5,848.3-143,848.3z M8.4,1110.1c-36-10.7-74.2-30.8-99.3-64c-5.9-9.3,16.2-14.8,26.9-17.8
		c23.8-6.5,49.1-9.5,74.8-10.7C8.6,1050.6,8.2,1087.1,8.4,1110.1z"/>
	<line class="st6" x1="-1366" y1="-349.6" x2="1448" y2="-349.6"/>
	<line class="st6" x1="-1365.4" y1="522.8" x2="1448" y2="522.8"/>
	<line class="st6" x1="64.9" y1="-741.2" x2="64.9" y2="793.5"/>
	<line class="st6" x1="-1318" y1="793.5" x2="-1318" y2="-740.7"/>
</g>
<g id="Logos">
	<g>
		<g>
			<path class="st7" d="M18,24.7c0.1,0.4,0,0.9-0.3,1.2c-0.3,0.3-0.8,0.3-1.1,0c-0.3-0.3-0.2-0.9,0.2-1.1c0,0,0,0,0,0
				c-0.5-0.3-1.1,0.2-1.3,0.7c-0.2,0.5,0,1.1,0.3,1.6c1,1.6,3.6,1.2,4.5-0.4c1-1.6,0.2-3.6-1.3-4.5c-1.3-0.7-2.9-0.8-4.3-0.6
				c-2,0.2-4.4,1-6.4,2c0.3-1.4,1.2-5,1.4-5.7c0.2,0.7,0.9,3.5,1,4.2c1.1-0.4,2.1-0.6,2.9-0.8l-1.8-6.4c-1.4,1-3.2,1.1-4.6,1.2v0.1
				c0,0,0.6,0,0.9,0.5C8.3,17,8.3,17.5,8.2,18l-1.6,6.4c-0.5,0.3-1,0.5-1.7,0.5c-0.8,0-1-0.8-0.5-1.2c0.3-0.3,0.8-0.2,1.2,0.2
				c0.3-0.6-0.9-1.6-1.9-1.3c-1,0.4-1.5,1.8-1.2,2.6c0.3,0.8,1,1.4,2.2,1.3c0.4,0,1-0.2,1.5-0.6l-0.4,1.7c-0.3,1.3-0.9,2-1.3,2.3
				c-0.4,0.3-0.8,0.4-0.8,0.4v0.2h4.6v-0.2c-1.2-0.4-1.5-1.5-1.1-2.9c0-0.1,0.3-1.2,0.6-2.4C8,25,8.3,24.8,8.3,24.8
				c0.6-0.2,1.2-0.4,1.9-0.6c1.4-0.4,2.9-0.8,4.3-0.9C15.7,23.1,17.6,23.4,18,24.7z"/>
			<path class="st7" d="M24.7,24.7C24.7,24.7,24.7,24.7,24.7,24.7c0-0.1,0-0.1,0-0.2c0,0,0,0,0,0c0-0.2,0-0.4,0-0.5c0,0,0,0,0,0
				c0,0,0-0.1,0-0.1c-0.2-1.6-0.9-2.9-1.4-3.5c-0.8-0.8-1.7-1.3-3.2-1.3c-1.4,0-4,0-4.6,0v0.1c0,0,1.2,0.3,1.2,1.2
				c0,0.1,0,0.3,0,0.5c0.9,0.1,1.7,0.3,2.4,0.7c0.1,0.1,0.2,0.1,0.3,0.2c0-0.9,0-1.6,0-1.7c0-0.3,0.3-0.6,0.7-0.3
				c0.9,0.7,1.8,2.2,1.9,4.9c0,0.1,0,0.1,0,0.2c0,0.1,0,0.1,0,0.2c-0.1,2.7-1,4.2-1.9,4.9c-0.5,0.2-0.7,0-0.7-0.3c0-0.1,0-0.7,0-1.4
				c-0.6,0.3-1.2,0.5-1.8,0.5c0,0,0,0,0,0c-0.3,0-0.6,0-0.9-0.1c0,0.3,0,0.5,0,0.6c0,0.3-0.1,0.5-0.2,0.7c-1.1-0.8-1.2-2.1-1.7-3.7
				l-0.6-2.4c-1,0.1-2,0.3-3,0.6c0.3,1.1,0.5,2,0.5,2c0.1,0.3,0.2,0.7,0.3,1c0.4,1.4,0.1,2.6-1.1,2.9v0.2c0,0,8.6,0,9.2,0
				c1.5,0,2.4-0.4,3.2-1.3c0.5-0.5,1.2-1.8,1.4-3.5c0,0,0-0.1,0-0.1c0,0,0,0,0,0c0-0.2,0-0.4,0-0.5c0,0,0,0,0,0c0,0,0-0.1,0-0.1
				c0,0,0,0,0,0c0,0,0-0.1,0-0.1c0,0,0,0,0-0.1C24.7,24.9,24.7,24.9,24.7,24.7C24.7,24.8,24.7,24.8,24.7,24.7z"/>
			<path class="st7" d="M52,17.7c-5.4-3.3-8.2,1.5-4.8,2.5c-0.7-1,0.6-3.1,3.8-1.4v7.7c0,1.9-0.9,1.8-1.1,1.8c0,0,0,0.1,0,0.1
				c1.8,0.5,3.4,1.4,4.9,2.2c0-0.1,0-0.1,0-0.1c-0.3-0.2-1.1-0.8-1.1-2.2v-8.1c2.3,0.7,4.8,0.4,4.9-2.1C56.8,20.4,54,19,52,17.7z"/>
			<path class="st7" d="M71.4,31L71.4,31L71.4,31c-0.1-0.1-0.1-0.2-0.2-0.3C71.1,30.4,71,30.2,71,30c-0.2-0.5-0.3-1-0.5-1.3
				c-0.7-2.1-1.7-2.9-2.5-3.3c0,0,0,0,0,0c0.7-0.1,2.3-0.7,2.3-3.1c0-3-2.6-3.2-3.5-3.2l-6.5,0v0.1c0.4,0.1,0.9,0.4,0.9,1.1
				c0,0.8,0,6.2,0,6.2c0,2.1-0.4,2.8-1.9,2.8c-1.8,0-1.7-1.9-1.7-2.9c0-1.5,0-4.5,0-5.9C57,20.9,56.4,21,55.7,21c0,0,0,0,0,0
				c-0.3,0-0.5,0-0.8-0.1c0,2,0,5.9,0,5.9c0,0.7,0,1.5,0.2,2.2c0.2,0.5,0.5,1,1,1.3l0,0c1.3,0.9,3.8,0.7,4.4,0.5
				c0.1,0,0.1,0,0.2-0.1c0,0,0.1,0,0.1-0.1c0.6-0.3,1-0.8,1.2-1.4c0.3-0.6,0.3-2.2,0.3-2.9c0,0,0-5.5,0-6.1c0-0.3,0.2-0.5,0.4-0.7
				c0,0,0,0,0,0c0.6,0.1,0.6,1,0.6,1.7l0,6.9c0,0.4,0,0.9,0,1.3l0,0c0,1.6,0.1,3.3-0.8,3.9c-0.2,0.2-0.5,0.3-0.9,0.2
				c-1.1-0.2-1.1-1.7-0.1-2c-1.8-0.6-2.9,0.9-2.2,1.9c-0.2-0.1-0.5-0.2-0.7-0.3c-3.2-1.4-6.9-4.6-11.3-4.8c-3.1-0.2-6.1,1.3-5.7,4.3
				c0.4,2.9,5.3,2.9,4.2-0.5c0,1.2-2.1,1.5-1.9-0.2c0.2-2.2,5.1-2,6.9-1.1c-3.3,0.5-1,5,1.3,2.7c-2.2-0.5-0.5-2.7,1.9-1.7
				c2.2,0.9,3.1,1.4,4.4,2c1.5,0.7,7.6,2.6,7.6-3.7c0,0,0,0,0,0l0,0l0-4.4c0.2,0,0.5,0.1,0.9,0.6c0,0,0,0,0,0
				c0.3,0.5,0.4,1.1,0.6,1.6c0.1,0.4,0.3,0.7,0.4,1.1c0,0,0,0,0,0.1c0,0,0,0,0,0.1c0.1,0.2,0.1,0.4,0.2,0.6c0.2,0.5,1.2,3.5,5,3.1
				c0.6-0.1,1.6-0.5,2-1.1c-0.5,0.3-1.2,0.4-1.7,0.4C72.4,32.2,71.8,31.6,71.4,31z M67.8,22.7c0,2.3-1.4,2.5-1.7,2.4
				c-0.2-0.1-0.2-0.4-0.2-0.8v-3.5c0-0.4,0-0.7,0.2-0.8c0.3-0.2,1.7,0,1.7,2.4V22.7z"/>
			<g>
				<path class="st7" d="M45.4,13.7c0.1,0,0.3,0,0.4-0.1C46,12.9,46,12,46,11.2c0-0.1,0-0.2,0.1-0.2c0.3,0.7,0.7,1.2,1.1,1.9
					c0.2,0.3,0.4,0.6,0.7,0.6c0.4,0,0.6-0.3,0.8-0.6c0.4-1.1,0.1-2.5-0.4-3.4c-0.2-0.3-0.4-0.7-0.8-0.8c-0.2,0-0.2,0.2-0.1,0.3
					c0.2,0.9,0.5,1.7,0.6,2.6c0,0.2,0.1,0.4,0,0.6c-0.7-0.8-1.1-1.8-1.9-2.6c-0.1-0.1-0.3,0-0.4,0.1c-0.4,0.8-0.5,1.6-0.6,2.5
					C45,12.8,44.9,13.5,45.4,13.7z"/>
				<path class="st7" d="M40.3,11c0,0.2,0.2,0.3,0.4,0.4c1.1,0.2,2.4,0,3.4,0.7c0.1,0.1,0,0.3-0.1,0.4c-0.8,0.3-1.7,0.6-2.7,0.4
					c-0.1,0-0.3-0.2-0.3-0.3c0.4-0.6,1.1,0,1.6,0.1c0.2,0.1,0.8,0,1.1-0.3c0.1-0.2-0.2-0.3-0.4-0.3c-0.7-0.2-1.7-0.4-2.4,0
					c-0.2,0.1-0.3,0.5-0.2,0.8c0.5,0.9,1.6,1.2,2.6,1c0.7-0.1,1.5-0.3,1.6-1.1c0.1-0.5,0-1-0.4-1.3c-0.9-0.6-2.3-0.3-3.3-0.7
					c0,0,0-0.1,0-0.1c1.1-0.3,2.4-0.2,3.5-0.5c0.2,0,0.3-0.3,0.2-0.4c-0.2-0.2-0.4-0.2-0.6-0.2c-1.4-0.2-2.9-0.2-3.9,0.8
					C40.2,10.4,40.2,10.7,40.3,11z"/>
				<path class="st7" d="M49.1,13c0.1,0.4,0.3,0.9,0.6,1c1,0.2,1.8-0.4,2.6-0.9c0.1-0.1-0.1-0.5-0.2-0.5c-0.7-0.1-1.3,0.2-2,0.2
					c0.1-0.3,0.1-0.6,0.3-0.9c0.5-0.1,1.4,0,1.7-0.2c0.1-0.1,0.1-0.5,0-0.5c-0.4-0.1-1-0.1-1.4-0.1c0.1-0.2,0.1-0.4,0.2-0.7
					c0.4,0,0.7,0,1,0c0.3,0,0.8,0,1-0.2c0.1-0.1-0.2-0.5-0.4-0.6c-0.2-0.1-0.2-0.2-0.3-0.2c-0.6-0.1-2,0.2-2.9,0.3
					c-0.1,0-0.1,0.1-0.1,0.2c0.1,0.4,0.5,0.3,0.8,0.5c-0.1,0.3-0.2,0.5-0.3,0.8c-0.1,0-0.4,0-0.4,0.2c0,0.1,0.1,0.2,0.1,0.4
					C49.3,12.1,49,12.5,49.1,13z"/>
				<path class="st7" d="M39.3,9.4c-0.2,0-0.2,0.3-0.3,0.4c-0.1,1-0.2,2-0.2,3c0,0.4,0,0.9,0.4,1c0.2,0,0.5,0,0.6-0.1
					c0.1-1.2,0-2.6-0.1-3.8C39.7,9.8,39.5,9.5,39.3,9.4z"/>
				<path class="st7" d="M26.1,6c0.1,0,0.2,0,0.2-0.2c-0.1-0.2-0.4-0.2-0.6-0.3c0.1-0.1,0.2-0.1,0.4-0.1c3.2-0.5,6.3,0.5,8.8,2.3
					c1.3,0.9,2.6,2.3,2.1,4c-0.6,1.6-2.8,1.9-4.5,1.9c-0.4,0-0.7-0.1-1.1-0.2c0-1,0-2.3,0-2.9c0.7,0,2.1,0.2,3,0.6
					c0.2,0.1-0.3,0.5-0.5,0.6c-0.1,0.1,0.3,0.2,0.5,0.2c0.4-0.1,0.7-0.4,0.9-0.7c0.1-0.3-0.1-0.6-0.3-0.9c-1-0.8-2.3-0.8-3.6-0.9
					c0-0.5,0-1.1-0.1-1.6c-0.1-0.4-0.3-0.6-0.6-0.7c-0.2,0.3-0.3,0.6-0.3,1c-0.1,0.4-0.1,0.9-0.1,1.3c0,0-0.7,0.1-1.1,0.2
					c-0.4,0.1-2.1,0.6-1.9,1.5c0.2,0.7,1.4,1.6,2.2,2.2c0.3,0.2,0.5,0.3,0.8,0.5c0,0.4,0.1,0.8,0.4,1.1c0.1,0.1,0.4,0,0.6,0
					c0.3-0.1,0.3-0.4,0.3-0.6c0.3,0.1,0.6,0.1,1.1,0.2c2,0.2,4.4-0.3,5.5-2.3c0.9-1.9-0.7-3.7-1.9-4.7c-0.2-0.1-0.8-0.6-1.1-0.8
					c-2.6-1.6-6-2.8-9.2-1.8c-0.4,0.1-0.6,0.6-0.7,1C25.4,6,25.8,6,26.1,6z M30.1,13c-1-0.3-2-0.8-2.7-1.7c-0.2-0.2,0.4-0.4,0.7-0.5
					c0.6-0.2,1.3-0.3,2-0.3C30.1,11.4,30.1,12.4,30.1,13z"/>
				<path class="st7" d="M38.2,8.9c0.3,0.2,0.4-0.2,0.5-0.3c0.9,0.3,1.8-0.1,2.4-0.6c0.5-0.4,1.2-1,0.9-1.7C42,6,41.7,5.8,41.4,5.8
					c-0.3-0.4-0.8-0.5-1.3-0.5c-1,0.2-2,0.8-2.4,1.8c-0.1,0.4,0,0.8,0.3,1C38,8.4,38,8.7,38.2,8.9z M39.7,7.2c0.5-0.5,1.1-1,1.7-0.8
					c0.1,0,0.1,0.1,0.2,0.2c0.1,0.3-0.3,0.7-0.6,0.9c-0.5,0.3-1.1,0.5-1.8,0.4C39.2,7.7,39.4,7.5,39.7,7.2z M38.7,6.7
					c0.2-0.2,0.5-0.4,0.8-0.4c-0.5,0.3-0.8,0.7-1.1,1.2C38.2,7.2,38.5,6.9,38.7,6.7z"/>
				<path class="st7" d="M53.2,13c-0.4,1.2-0.8,2.4-0.9,3.7c0,0.3,0.3,0.6,0.6,0.8c0.1,0,0.3,0.2,0.4,0.1c0.2-1.3,0.5-2.5,1-3.7
					c0.4,0.1,0.7,0,1.2-0.2c1-0.5,1.9-1.5,1.9-2.6c0-0.6-0.2-1.1-0.7-1.5c-0.2-0.1-0.3-0.1-0.5,0c-1,0.6-2.2,1.9-2.5,2.5
					c0-1.1,0.9-1.8,1-2.9c0-0.3-0.3,0-0.5,0.2C53.4,10.5,52.5,11.8,53.2,13z M56.6,10.5c0.1-0.1,0.2,0.5,0.2,0.7
					c-0.1,0.7-1,1.4-1.5,1.5c-0.2,0-0.2,0-0.4,0C55.1,12.2,55.8,11.1,56.6,10.5z"/>
			</g>
			<path class="st7" d="M37.2,29.9c-0.2-0.1-0.3-0.4-0.3-0.7v-3.9c0-0.3,0-0.4,0.2-0.4c0.2-0.1,1.5,0.3,2,2.2h0.1v-5.3H39
				c-0.4,2-1.7,2.3-2,2.2c-0.1-0.1-0.2-0.2-0.2-0.4v-3.1c0-0.3,0-0.6,0.3-0.7c0.4-0.2,2.3,0.1,3.4,2.8h0.1v-3.5l-9.9,0v0.1
				c0.9,0.3,1.1,1.2,0.8,2.3c-0.1,0.2-1.6,6.7-1.8,7.2c-0.1-0.6-1.8-7-1.9-7.2c-0.3-1.1-0.1-2,0.8-2.3v-0.1l-5.9,0l0,0.1
				c1.2,0.3,1.9,1.5,2.2,2.5l2.4,8.9c1.2,0,2.9,0,2.9,0l2.2-9.1c0.3-1.2,0.6-1.7,1-2c0.3,0.3,0.5,0.6,0.6,1.2l0,3.7v0.7l0,3.7
				c0,1-0.5,1.3-1.2,1.6v0.1h0l0,0.1h7.8v-0.5v-3.8h-0.1C39.6,29.2,37.6,30.1,37.2,29.9z"/>
			<path class="st7" d="M41.9,29.7C42,29.7,42,29.7,41.9,29.7c0.6-0.6,1.2-1,2-1.3l0-0.1c-0.9,0.2-0.8-1.5-0.8-2.2l0-3.3
				c0,0,1.6,2.8,2.9,5.1c0.4,0,0.9,0,1.3,0c0.7,0,1.4,0.1,2.1,0.3c0-2.6,0-7.7,0-7.9c0-0.6,0.2-0.9,0.6-1v-0.1l-2.4,0l0,0.1
				c0.4,0.1,0.7,0.4,0.7,1c0,0.8,0,4.7,0,4.7v0.9l-4-6.7l-3.6,0l0,0.1c0.3,0.1,1.1,0.2,1.1,1.6C41.9,22.6,41.9,29.7,41.9,29.7z"/>
			<path class="st7" d="M77.5,26.3c-1,2.9-3,3.8-3.5,3.6c-0.2-0.1-0.3-0.4-0.3-0.7v-3.9c0-0.3,0-0.4,0.2-0.4c0.2-0.1,1.5,0.3,2,2.2
				H76v-5.3h-0.1c-0.4,2-1.7,2.3-2,2.2c-0.1-0.1-0.2-0.2-0.2-0.4v-3.1c0-0.3,0-0.6,0.3-0.7c0.4-0.2,2.3,0.1,3.4,2.8h0.1v-3.5h-7.7
				v0.1c0.8,0.3,1.2,1.1,1.2,2.2v7.3c0,0.1,0,0.1,0.1,0.2c0.1,0.3,0.2,0.6,0.3,0.9l0,0c0.1,0.2,0.1,0.4,0.3,0.6
				c0,0.1,0.1,0.2,0.1,0.2h5.7v-0.5L77.5,26.3L77.5,26.3z"/>
		</g>
		<g>
			<g>
				<g>
					<path class="st7" d="M29.5,43.5c0.5,0,0.9-0.2,1.2-0.4c0.1,0,0.2-0.1,0.1-0.2c0-0.1-0.1-0.2-0.2-0.2c-0.3,0-0.6,0.1-0.8,0.1
						c-0.1,0-0.2,0-0.2,0c0.1-0.2,0.1-0.3,0.2-0.5l0.7,0c0.1,0,0.2,0,0.2-0.1c0-0.1,0-0.2,0-0.3c-0.2-0.1-0.5,0-0.8-0.1l0,0
						c0-0.1,0.1-0.2,0.1-0.3c0.4,0,0.7,0,1.1-0.1c0,0,0.1-0.1,0.1-0.1c-0.1-0.2-0.2-0.4-0.4-0.4c-0.4,0-0.8,0-1.1,0.1
						c-0.2,0-0.4,0-0.6,0.1c0,0,0,0.1,0,0.1c0,0.2,0.3,0.2,0.4,0.3c-0.1,0.2-0.1,0.5-0.3,0.5c-0.1,0.1,0,0.3,0,0.4
						c-0.1,0.3-0.3,0.6-0.1,0.9C29.2,43.3,29.3,43.5,29.5,43.5"/>
					<path class="st7" d="M23.7,43.4c0.1,0,0.2,0,0.2-0.1c0-0.7,0-1.3-0.1-2c0-0.1-0.1-0.2-0.1-0.3c0,0-0.1-0.1-0.1,0
						c-0.1,0-0.1,0.1-0.1,0.1c-0.1,0.7-0.2,1.5-0.1,2.2C23.4,43.4,23.6,43.4,23.7,43.4"/>
					<path class="st7" d="M27.1,43.3c0.1,0,0.1-0.1,0.1-0.1c0.1-0.3,0-0.7,0.1-1c0-0.1,0-0.2,0.1-0.3c0.2,0.3,0.3,0.6,0.5,0.9
						c0.1,0.2,0.2,0.4,0.5,0.4c0.2,0,0.4-0.2,0.5-0.4c0.2-0.7,0-1.4-0.4-2c-0.1-0.1-0.2-0.3-0.4-0.3c-0.1,0-0.1,0.1-0.1,0.1
						c0.1,0.5,0.3,1,0.3,1.5c0,0.1,0,0.2,0,0.3l0,0c-0.3-0.3-0.4-0.7-0.7-1c-0.1-0.1-0.2-0.3-0.4-0.4c-0.1,0-0.2,0-0.2,0.1
						c-0.2,0.3-0.2,0.7-0.3,1.1c0,0.4-0.1,0.7,0.1,1C26.9,43.3,27,43.4,27.1,43.3"/>
					<path class="st7" d="M24.7,43.2c0.5,0.3,1.2,0.3,1.7,0c0.3-0.2,0.3-0.5,0.3-0.8c-0.1-0.3-0.5-0.4-0.8-0.5c-0.4,0-0.9,0-1.3-0.2
						c0,0,0,0,0,0c0.5-0.2,1.1-0.1,1.7-0.2c0.1,0,0.3,0,0.4-0.1c0.1-0.1,0.1-0.1,0.1-0.2c0,0-0.1,0-0.1-0.1
						c-0.8-0.2-1.7-0.2-2.3,0.3c-0.1,0.1-0.2,0.3-0.1,0.5c0,0.1,0.1,0.1,0.2,0.2c0.4,0.1,1,0,1.4,0.2c0.2,0,0.4,0.1,0.5,0.3
						c0,0.1,0,0.1-0.1,0.2c-0.3,0.2-0.6,0.2-1,0.3c-0.2,0-0.6,0.1-0.7-0.1c0-0.1,0-0.1,0.1-0.2c0.4-0.1,0.7,0.3,1.1,0.1
						c0.1,0,0.3-0.1,0.3-0.2c-0.2-0.1-0.4-0.2-0.7-0.2c-0.3,0-0.7-0.1-0.9,0.2c-0.1,0.1-0.1,0.3-0.1,0.4
						C24.3,42.9,24.5,43.1,24.7,43.2"/>
					<path class="st7" d="M18.4,42.9c0-0.5,0.1-0.9,0-1.4c-0.5,0.1-1,0.1-1.5,0.3c0,0-0.1,0.1,0,0.1C17.4,42.5,17.9,42.7,18.4,42.9
						 M18.6,43.9c-0.1-0.2-0.1-0.4-0.1-0.5c-0.6-0.3-1.3-0.7-1.7-1.3c-0.1-0.1,0-0.3,0-0.4c0.3-0.3,0.7-0.4,1.2-0.6l0.5-0.1
						c0-0.4,0-0.9,0.2-1.3c0.1,0,0.2,0.1,0.3,0.2c0.1,0.3,0.1,0.7,0.1,1c0.7,0,1.4,0,2,0.4c0.1,0.1,0.2,0.3,0.2,0.5
						c0,0.2-0.2,0.4-0.4,0.5c-0.2,0-0.3,0-0.4-0.1c0,0,0.1-0.1,0.1-0.1c0.1-0.1,0.2-0.2,0.2-0.3c-0.3-0.2-0.7-0.2-1-0.3
						c-0.2,0-0.4,0-0.7,0l0,0c0,0.5,0.1,1.6,0.1,1.6c0.8,0.2,1.7,0.1,2.5-0.3c0.4-0.2,0.7-0.6,0.7-1.1c-0.1-0.9-0.8-1.5-1.5-2
						c-1.4-0.8-2.9-1.4-4.7-1.1c0,0-0.1,0-0.1,0.1c0.1,0.1,0.2,0,0.3,0.1c0,0,0.1,0.1,0,0.1c-0.2,0.1-0.4,0.1-0.6,0
						c0,0-0.1-0.1,0-0.1c0.1-0.2,0.3-0.5,0.6-0.5c1.5-0.4,3,0.1,4.2,0.7c1,0.5,1.9,1.3,2.4,2.3c0.2,0.5,0.1,1.2-0.3,1.6
						c-0.6,0.6-1.3,0.8-2.1,0.9c-0.5,0-0.9,0-1.4-0.1c0,0.1,0,0.3-0.2,0.3C18.9,44,18.7,44,18.6,43.9"/>
					<path class="st7" d="M23,39.9c0.2-0.2,0.4-0.5,0.7-0.7c0,0,0,0,0,0C23.4,39.2,23.1,39.5,23,39.9L23,39.9z M24,40.1
						c0.3-0.1,0.7-0.3,0.8-0.6c0,0,0-0.1-0.1-0.2c-0.1-0.1-0.2,0-0.3,0c-0.4,0.1-0.8,0.5-1,0.8C23.7,40.1,23.9,40.1,24,40.1
						 M23,40.6c-0.1-0.1-0.1-0.2-0.1-0.4c-0.1-0.2-0.2-0.4-0.2-0.6c0.1-0.4,0.4-0.7,0.8-0.8c0.3-0.2,0.8-0.3,1.1-0.1
						c0.1,0,0.1,0.1,0.1,0.2c0.2,0,0.3,0.1,0.4,0.2c0.1,0.2,0.1,0.4,0,0.6c-0.5,0.5-1.1,1-1.8,0.8c-0.1,0.1-0.1,0.2-0.2,0.2
						C23,40.7,23,40.7,23,40.6"/>
					<path class="st7" d="M32.9,42.5c0.3-0.2,0.4-0.6,0.3-0.9c0,0,0-0.1-0.1-0.1c-0.4,0.4-0.7,0.8-1,1.3
						C32.5,42.8,32.7,42.7,32.9,42.5 M30.8,45c0-0.7,0.2-1.2,0.4-1.8l0.1-0.3c-0.4-0.7,0.1-1.5,0.6-2.1c0,0,0.1-0.1,0.2-0.1
						c0.1,0.1,0,0.3,0,0.4c-0.2,0.4-0.5,0.8-0.5,1.2l0,0c0.4-0.5,0.8-1,1.4-1.4c0.1,0,0.2,0,0.3,0c0.3,0.2,0.4,0.6,0.4,1
						c-0.1,0.6-0.7,1.1-1.3,1.3c-0.2,0-0.3,0.1-0.5,0c-0.3,0.7-0.4,1.3-0.5,2.1c-0.1,0.1-0.2,0-0.3-0.1C30.9,45.3,30.8,45.2,30.8,45
						"/>
				</g>
				<path class="st7" d="M43,42.1c0,0.3,0,0.8,0.3,0.9c0.2,0.1,0.4,0.1,0.5,0c0.3-0.2,0.3-0.5,0.3-0.9v-3.5h0.6V42
					c0,0.4,0.1,1-0.6,1.3c-0.3,0.2-0.9,0.2-1.2,0c-0.5-0.2-0.5-0.7-0.5-1.1v-3.4v-0.2H43V42.1z"/>
			</g>
			<polygon class="st7" points="46.3,38.8 46.3,38.6 46.9,38.6 46.9,43.4 46.3,43.4 			"/>
			<g>
				<path class="st7" d="M49.2,42.4c0.1-0.3-0.1-0.7-0.4-1l-0.3-0.4c-0.4-0.6-0.7-1-0.4-1.5c0.2-0.4,0.8-0.7,1.2-0.8l0.2,0.4
					c-0.4,0.2-0.8,0.3-0.9,0.7c-0.1,0.3,0.1,0.6,0.3,1l0.3,0.5c0.5,0.7,0.7,1,0.3,1.6c-0.2,0.4-0.8,0.7-1.2,0.8l-0.3-0.4
					C48.6,43,49.1,42.8,49.2,42.4"/>
			</g>
			<polygon class="st7" points="52.8,42.1 51.8,42.1 51.8,43 52.9,43 52.9,43.4 51.8,43.4 51.2,43.4 51.2,38.8 51.2,38.6 52.8,38.6 
				52.8,39 52.8,39.1 51.8,39.1 51.8,41.7 52.8,41.7 			"/>
			<polygon class="st7" points="64.7,38.6 64.7,38.8 64.7,43.4 65.3,43.4 66.4,43.4 66.4,43 65.3,43 65.3,42.1 66.3,42.1 66.3,41.7 
				65.3,41.7 65.3,39.1 66.3,39.1 66.3,39 66.3,38.6 			"/>
			<polygon class="st7" points="59.2,38.8 59.2,38.6 59.8,38.6 59.8,43.4 59.2,43.4 			"/>
			<polygon class="st7" points="62.9,41.9 62.9,41.3 61.8,40 61.8,40.2 61.8,43.3 61.8,43.4 61.2,43.4 61.2,38.6 61.2,38.5 
				62.9,40.5 62.9,38.6 63.3,38.6 63.4,38.6 63.4,43.4 62.9,43.4 			"/>
			<g>
				<path class="st7" d="M37.7,39c-1.1,0.5-1.5,1.3-1.5,2c0,0.7,0.4,1.5,1.5,2v0.5c-1.1-0.3-1.8-1.1-2-2c-0.2-0.9,0.1-2,1.3-2.7
					c0.2-0.1,0.5-0.2,0.8-0.3V39z"/>
				<path class="st7" d="M39.7,42c0.5-0.3,0.8-0.8,0.9-1.2c0.1-0.5-0.2-1.2-0.9-1.6v0.2V42z M39.1,43.4v-0.1v-4.8
					c0.7,0.2,1.5,0.7,1.9,1.5c0.3,0.6,0.2,1.3-0.3,1.9c-0.1,0.2-0.2,0.3-0.4,0.4l0.8,1.1h-0.6l-0.6-0.9c0,0-0.1,0-0.1,0.1v0.8H39.1z
					"/>
			</g>
			<polygon class="st7" points="58.1,42.9 58.1,43.4 57.1,43.4 56.6,43.4 56.6,38.8 56.6,38.6 57.1,38.6 57.1,42.9 			"/>
		</g>
	</g>
</g>
</svg>
