<svg xmlns="http://www.w3.org/2000/svg" xmlns:xlink="http://www.w3.org/1999/xlink" width="45" height="45" viewBox="0 0 45 45">
  <defs>
    <clipPath id="clip-eco_calendar">
      <rect width="45" height="45"/>
    </clipPath>
  </defs>
  <g id="eco_calendar" data-name="eco calendar" clip-path="url(#clip-eco_calendar)">
    <g id="calendar_8_" data-name="calendar (8)" transform="translate(0.5 1)">
      <path id="Path_1575" data-name="Path 1575" d="M37.457,3.359H33.594V1.344a1.344,1.344,0,0,0-2.688,0V3.359H12.094V1.344a1.344,1.344,0,0,0-2.687,0V3.359H5.543A5.549,5.549,0,0,0,0,8.9V37.457A5.549,5.549,0,0,0,5.543,43H37.457A5.549,5.549,0,0,0,43,37.457V8.9A5.549,5.549,0,0,0,37.457,3.359ZM5.543,6.047H9.406V7.391a1.344,1.344,0,1,0,2.688,0V6.047H30.906V7.391a1.344,1.344,0,0,0,2.688,0V6.047h3.863A2.859,2.859,0,0,1,40.313,8.9v.928H2.688V8.9A2.859,2.859,0,0,1,5.543,6.047ZM37.457,40.313H5.543a2.859,2.859,0,0,1-2.855-2.855V12.506H40.313V37.457A2.859,2.859,0,0,1,37.457,40.313Z" transform="translate(0.5)" fill="#333" stroke="#333" stroke-miterlimit="10" stroke-width="0.5"/>
      <path id="money-growth" d="M15.086,55.321a7.543,7.543,0,1,1-7.543-7.543A7.552,7.552,0,0,1,15.086,55.321Zm-1.829,0a5.714,5.714,0,1,0-5.714,5.714A5.721,5.721,0,0,0,13.257,55.321Zm14.172,5.714H26.8V45.95a.914.914,0,1,0-1.829,0V61.036H20.343V49.607a.914.914,0,0,0-1.829,0V61.036H14.629a.914.914,0,0,0,0,1.829h12.8a.914.914,0,0,0,0-1.829ZM14.075,48.825l3.268-3.268L18.782,47a.914.914,0,0,0,1.293,0l4.9-4.9v.421a.914.914,0,1,0,1.829,0c0-2.9,0-2.655-.01-2.758a.914.914,0,0,0-.555-.716c-.226-.094-.156-.07-2.978-.07a.914.914,0,1,0,0,1.829h.421l-4.25,4.25L17.99,43.618a.914.914,0,0,0-1.293,0l-3.914,3.914a.914.914,0,0,0,1.293,1.293Z" transform="translate(8.179 -25.328)" fill="#333" stroke="#333" stroke-miterlimit="10" stroke-width="0.5"/>
      <g id="rupee_4_" data-name="rupee (4)" transform="translate(13.169 26.82)">
        <g id="Group_3467" data-name="Group 3467">
          <path id="Path_1576" data-name="Path 1576" d="M61.285,2H60.157a2.223,2.223,0,0,0-.89-1.554h2.018a.222.222,0,1,0,0-.444h-4.7a.222.222,0,1,0,0,.444h1.345A1.794,1.794,0,0,1,59.711,2H56.587a.222.222,0,1,0,0,.444h3.124a1.8,1.8,0,0,1-1.778,1.576H56.589a.226.226,0,0,0-.222.229.229.229,0,0,0,.069.16L59.8,7.584a.221.221,0,0,0,.313-.009.227.227,0,0,0-.009-.317l-2.955-2.8h.786a2.243,2.243,0,0,0,2.227-2.02h1.128a.222.222,0,1,0,0-.444Z" transform="translate(-56.365)" fill="#333" stroke="#333" stroke-width="1"/>
        </g>
      </g>
    </g>
  </g>
</svg>
