<?xml version="1.0" encoding="utf-8"?>
<!-- Generator: Adobe Illustrator 28.1.0, SVG Export Plug-In . SVG Version: 6.00 Build 0)  -->
<svg version="1.1" id="Layer_1" xmlns="http://www.w3.org/2000/svg" xmlns:xlink="http://www.w3.org/1999/xlink" x="0px" y="0px"
	 viewBox="0 0 80 50" style="enable-background:new 0 0 80 50;" xml:space="preserve">
<style type="text/css">
	.st0{fill-rule:evenodd;clip-rule:evenodd;}
	.st1{fill-rule:evenodd;clip-rule:evenodd;fill:#FFFFFF;}
</style>
<g>
	<rect class="st0" width="80" height="50"/>
	<polygon class="st1" points="47.9,31.9 66.9,20.9 66.9,17.7 47.9,28.7 	"/>
	<polygon class="st1" points="47.9,18.1 66.9,7.1 66.9,3.9 47.9,14.9 	"/>
	<path class="st1" d="M15.5,45.8v-7.1H9.9v7.1H6.6H6.2V28.5h3.7v7.2h5.5v-7.2h3.7v17.2H15.5z M66.9,39.6c0-1,0.2-2,0.7-2.9
		c0.2-0.4,0.5-0.7,0.8-1c0.2-0.2,0.4-0.3,0.7-0.4c0.4-0.1,0.8-0.1,1,0.3c0,0.1,0.1,0.2,0.1,0.3c0.1,0.6,0.1,1.7,0.1,2.1v7.7h3.5
		v-9.1c0-1.2-0.2-2.5-1.1-3.4c-0.7-0.7-1.5-1.1-2.4-1.1c-1.5,0-3,0.9-3.4,2.3l0-7.9l-3.5,2v17.2h3.5V39.6z M20.9,43.3
		c-0.4-0.6-0.7-1.4-0.9-2.2c-0.2-0.8-0.3-1.7-0.3-2.7c0-0.6,0-1.2,0.2-1.8c0.1-0.5,0.2-1.1,0.5-1.6c0.3-0.6,0.6-1.1,1.1-1.6
		c0.5-0.5,1.2-0.9,2-1.1c0.5-0.1,1.1-0.2,1.8-0.2c0.5,0,1,0,1.4,0.2c0.6,0.1,1.1,0.4,1.5,0.7c0.5,0.4,1,0.9,1.3,1.4
		c0.4,0.7,0.6,1.5,0.7,2.4c0,0.4,0,0.8,0,1.3l0,0.6h-3.6h-3.6c0,0.6,0.2,1.1,0.4,1.7c0.2,0.5,0.4,0.9,0.7,1.4c0.3,0.4,0.7,0.8,1.1,1
		c0.6,0.4,1.3,0.5,1.9,0.5c0.7,0,1.5-0.2,2.2-0.5l0.5-0.2v2.8l-0.2,0.1c-0.7,0.2-1.3,0.4-2.1,0.5c-0.5,0-0.9,0.1-1.4,0.1
		c-0.5,0-0.9,0-1.4-0.1c-0.5-0.1-1-0.2-1.4-0.4c-0.4-0.2-0.8-0.4-1.2-0.7C21.7,44.4,21.3,43.9,20.9,43.3z M26.8,36.2
		c0-0.1,0-0.2-0.1-0.4c-0.1-0.3-0.3-0.6-0.6-0.8c-0.1-0.1-0.3-0.2-0.5-0.2c-0.5-0.1-1.1-0.1-1.5,0.1c-0.3,0.2-0.6,0.5-0.8,0.8
		c-0.1,0.1-0.1,0.3-0.2,0.4H26.8z M35.8,35.2v5.6c0,0.3,0,0.5,0,0.8c0,0.4,0.1,0.8,0.3,1.2c0.2,0.3,0.4,0.4,0.7,0.5
		c0.4,0.1,0.7,0.1,1.1,0c0.4-0.1,0.7-0.2,1-0.3l0,2.8l-0.3,0.1c-0.4,0.1-0.8,0.1-1.2,0.2c-0.4,0-0.8,0.1-1.2,0.1
		c-0.4,0-0.8,0-1.2-0.1c-0.6-0.1-1.1-0.3-1.6-0.6c-0.4-0.3-0.7-0.6-0.9-1.1c-0.1-0.3-0.2-0.5-0.2-0.8c-0.1-0.6-0.1-1.2-0.1-1.7v-6.6
		h-2.3v-2.8h2.3v-3.9l3.5-2l0,5.9c1.5,0,3,0,4.4,0v-3.9l3.5-2l0,5.9h3.6v2.8h-3.6v5.6c0,0.3,0,0.5,0,0.8c0,0.4,0.1,0.8,0.3,1.2
		c0.2,0.3,0.4,0.4,0.7,0.5c0.4,0.1,0.7,0.1,1.1,0c0.4-0.1,0.7-0.2,1-0.3v2.8l-0.3,0.1c-0.4,0.1-0.8,0.1-1.2,0.2
		c-0.4,0-0.8,0.1-1.2,0.1c-0.4,0-0.8,0-1.2-0.1c-0.6-0.1-1.1-0.3-1.6-0.6c-0.4-0.3-0.7-0.6-0.9-1.1c-0.1-0.3-0.2-0.5-0.2-0.8
		c-0.1-0.6-0.1-1.2-0.1-1.7v-6.6C38.8,35.2,37.3,35.2,35.8,35.2z M48.3,45.8h-0.4V32.4h3.5v13.4H48.3z M53.1,43.2
		c-0.4-0.6-0.7-1.3-0.8-2.1c-0.1-0.6-0.2-1.3-0.3-2c0-0.7,0-1.4,0.1-2c0.1-0.6,0.3-1.2,0.5-1.7c0.3-0.7,0.8-1.4,1.4-1.9
		c0.6-0.5,1.4-0.9,2.4-1.1c0.9-0.2,1.9-0.2,2.8,0c0.7,0.1,1.3,0.4,1.8,0.8c0.6,0.4,1,1,1.3,1.7c0.3,0.7,0.4,1.4,0.4,2.1
		c0,0.2,0,0.4,0,0.6h-3.7v-0.4c0-0.2,0-0.4,0-0.6c0-0.4-0.1-0.8-0.3-1.1c-0.2-0.3-0.4-0.4-0.7-0.5c-0.3-0.1-0.6-0.1-0.9,0
		c-0.3,0.1-0.5,0.2-0.7,0.4c-0.2,0.2-0.4,0.6-0.5,0.9c-0.1,0.2-0.2,0.5-0.2,0.8c-0.1,0.7-0.1,1.4,0,2.1c0.1,0.4,0.2,0.8,0.3,1.1
		c0.3,0.9,0.8,1.7,1.6,2.3c0.4,0.3,0.9,0.5,1.5,0.6c0.6,0.1,1.2,0.1,1.8,0.1c0.4,0,0.8-0.1,1.2-0.3l0.5-0.2v2.6l-0.2,0.1
		c-0.7,0.2-1.5,0.4-2.4,0.5c-0.4,0-0.8,0.1-1.3,0.1c-0.4,0-0.8,0-1.3-0.1c-0.7-0.1-1.4-0.3-2-0.6C54.5,44.9,53.7,44.1,53.1,43.2z"/>
	<polygon class="st1" points="47.9,27.3 66.9,16.3 66.9,13.1 47.9,24.1 	"/>
	<polygon class="st1" points="47.9,22.7 66.9,11.7 66.9,8.5 47.9,19.5 	"/>
</g>
</svg>
