<?xml version="1.0" encoding="utf-8"?>
<!-- Generator: Adobe Illustrator 28.1.0, SVG Export Plug-In . SVG Version: 6.00 Build 0)  -->
<svg version="1.1" id="Layer_1" xmlns="http://www.w3.org/2000/svg" xmlns:xlink="http://www.w3.org/1999/xlink" x="0px" y="0px"
	 viewBox="0 0 104 65" style="enable-background:new 0 0 104 65;" xml:space="preserve">
<style type="text/css">
	.st0{fill-rule:evenodd;clip-rule:evenodd;}
	.st1{fill-rule:evenodd;clip-rule:evenodd;fill:#FFFFFF;}
</style>
<g>
	<rect class="st0" width="104" height="65"/>
	<polygon class="st1" points="61.9,41.1 85.7,27.4 85.7,23.4 61.9,37.1 	"/>
	<polygon class="st1" points="61.9,23.8 85.7,10.1 85.7,6.1 61.9,19.8 	"/>
	<path class="st1" d="M21.2,58.6v-8.9h-7v8.9h-4.2H9.6V36.9h4.6V46h7v-9.1h4.6v21.6H21.2z M85.7,50.8c0-1.3,0.3-2.5,0.8-3.7
		c0.3-0.5,0.6-0.9,1-1.3c0.3-0.2,0.5-0.4,0.9-0.4c0.5-0.1,1-0.1,1.2,0.4c0.1,0.1,0.1,0.3,0.1,0.4c0.1,0.7,0.2,2.1,0.2,2.6v9.7h4.4
		V47.1c0-1.5-0.3-3.1-1.4-4.3c-0.9-0.9-1.9-1.4-3-1.4c-1.8,0-3.7,1.1-4.2,2.9l0-9.9l-4.4,2.5v21.6h4.4V50.8z M28,55.5
		c-0.5-0.8-0.8-1.7-1.1-2.7c-0.2-1-0.4-2.2-0.4-3.4c0-0.8,0.1-1.5,0.2-2.3c0.1-0.7,0.3-1.3,0.6-2c0.3-0.7,0.8-1.4,1.4-2
		c0.7-0.6,1.5-1.1,2.5-1.4c0.7-0.2,1.4-0.3,2.2-0.3c0.6,0,1.2,0.1,1.8,0.2c0.7,0.2,1.4,0.5,1.9,0.9c0.7,0.5,1.2,1.1,1.6,1.8
		c0.5,0.9,0.8,1.9,0.9,3c0,0.5,0,1.1,0,1.6l0,0.8h-4.5h-4.5c0.1,0.7,0.2,1.4,0.5,2.1c0.2,0.6,0.5,1.2,0.9,1.7c0.4,0.5,0.8,1,1.4,1.3
		c0.7,0.5,1.6,0.7,2.4,0.7c0.9,0,1.9-0.3,2.7-0.6l0.6-0.2v3.5L39,58.3c-0.8,0.3-1.7,0.5-2.6,0.6c-0.6,0.1-1.2,0.1-1.7,0.1
		c-0.6,0-1.2,0-1.7-0.2c-0.6-0.1-1.2-0.3-1.8-0.5c-0.5-0.2-1-0.5-1.5-0.9C29,56.8,28.5,56.2,28,55.5z M35.5,46.5
		c0-0.2-0.1-0.3-0.1-0.5c-0.1-0.4-0.4-0.7-0.7-1c-0.2-0.1-0.3-0.2-0.6-0.3c-0.6-0.2-1.4-0.2-1.9,0.1c-0.4,0.2-0.8,0.6-1,1.1
		c-0.1,0.2-0.2,0.4-0.2,0.5H35.5z M46.7,45.2v7.1c0,0.3,0,0.7,0,1c0,0.5,0.1,1,0.4,1.5c0.2,0.3,0.5,0.5,0.9,0.6
		c0.4,0.1,0.9,0.1,1.4,0c0.4-0.1,0.9-0.2,1.3-0.3l0,3.6l-0.4,0.1c-0.5,0.1-1,0.2-1.5,0.2c-0.5,0-1,0.1-1.5,0.1c-0.5,0-1,0-1.5-0.1
		c-0.7-0.1-1.4-0.4-2-0.8c-0.5-0.3-0.8-0.8-1.1-1.3c-0.1-0.3-0.2-0.7-0.3-1c-0.1-0.7-0.1-1.4-0.1-2.2v-8.3h-2.9v-3.5h2.9v-4.9
		l4.4-2.5l0,7.4c1.9,0,3.7,0,5.6,0v-4.9l4.4-2.5l0,7.4h4.5v3.5h-4.5v7.1c0,0.3,0,0.7,0,1c0,0.5,0.1,1,0.4,1.5
		c0.2,0.3,0.5,0.5,0.9,0.6c0.4,0.1,0.9,0.1,1.4,0c0.4-0.1,0.9-0.2,1.3-0.3v3.6l-0.4,0.1c-0.5,0.1-1,0.2-1.5,0.2
		c-0.5,0-1,0.1-1.5,0.1c-0.5,0-1,0-1.5-0.1c-0.7-0.1-1.4-0.4-2-0.8c-0.5-0.3-0.8-0.8-1.1-1.3c-0.1-0.3-0.2-0.7-0.3-1
		c-0.1-0.7-0.1-1.4-0.1-2.2v-8.3C50.4,45.2,48.6,45.2,46.7,45.2z M62.4,58.6h-0.4V41.8h4.4v16.8H62.4z M68.5,55.3
		c-0.5-0.8-0.8-1.7-1.1-2.7c-0.2-0.8-0.3-1.7-0.3-2.5c0-0.9,0-1.7,0.2-2.6c0.1-0.8,0.3-1.5,0.6-2.1c0.4-0.9,1-1.8,1.8-2.4
		c0.8-0.7,1.8-1.2,3-1.4c1.1-0.2,2.4-0.2,3.6,0c0.9,0.2,1.6,0.5,2.2,0.9c0.8,0.5,1.3,1.3,1.7,2.2c0.3,0.8,0.5,1.7,0.5,2.6
		c0,0.3,0,0.5,0,0.8H76v-0.4c0-0.2,0-0.5,0-0.7c0-0.5-0.2-1-0.4-1.4C75.3,45.2,75,45,74.6,45c-0.3-0.1-0.7-0.1-1.1,0
		c-0.3,0.1-0.6,0.3-0.9,0.5c-0.3,0.3-0.5,0.7-0.6,1.1c-0.1,0.3-0.2,0.6-0.3,1c-0.1,0.9-0.1,1.8,0,2.6c0.1,0.5,0.2,0.9,0.4,1.4
		c0.4,1.1,1.1,2.1,2,2.8c0.5,0.4,1.2,0.7,1.9,0.8c0.7,0.1,1.5,0.2,2.2,0.1c0.5-0.1,1-0.2,1.5-0.3l0.6-0.2v3.2l-0.3,0.1
		c-0.9,0.3-1.9,0.5-3,0.7c-0.5,0.1-1.1,0.1-1.6,0.1c-0.5,0-1.1,0-1.6-0.1c-0.9-0.1-1.7-0.4-2.5-0.7C70.2,57.5,69.2,56.5,68.5,55.3z"
		/>
	<polygon class="st1" points="61.9,35.4 85.7,21.6 85.7,17.6 61.9,31.4 	"/>
	<polygon class="st1" points="61.9,29.6 85.7,15.8 85.7,11.8 61.9,25.6 	"/>
</g>
</svg>
