<?xml version="1.0" encoding="utf-8"?>
<!-- Generator: Adobe Illustrator 28.1.0, SVG Export Plug-In . SVG Version: 6.00 Build 0)  -->
<svg version="1.1" id="Layer_1" xmlns="http://www.w3.org/2000/svg" xmlns:xlink="http://www.w3.org/1999/xlink" x="0px" y="0px"
	 viewBox="0 0 80 50" style="enable-background:new 0 0 80 50;" xml:space="preserve">
<style type="text/css">
	.st0{fill:#D7117C;}
	.st1{fill:#404041;}
</style>
<g>
	<g>
		<g>
			<g>
				<path class="st0" d="M4.4,19.1l1.1-0.8c0.3,0.6,0.7,0.8,1.2,0.8c0.7,0,1.1-0.4,1.1-1.5v-5.3h1.6v5.5c0,1.5-0.8,2.8-2.5,2.8
					C5.8,20.6,5,20.1,4.4,19.1z"/>
				<path class="st0" d="M11,18.7c0-1.3,1.1-2,3.5-2.3c0-0.6-0.3-1-1-1c-0.6,0-1.1,0.2-1.7,0.6l-0.6-1.1c0.7-0.4,1.6-0.8,2.6-0.8
					c1.5,0,2.4,0.9,2.4,2.7v3.6h-1.3l-0.1-0.7h0c-0.5,0.5-1.1,0.8-1.8,0.8C11.7,20.6,11,19.8,11,18.7z M14.5,18.7v-1.2
					c-1.5,0.2-2,0.6-2,1.1c0,0.5,0.3,0.7,0.8,0.7C13.8,19.3,14.1,19.1,14.5,18.7z"/>
				<path class="st0" d="M17.7,14.3h1.3l0.1,0.8h0c0.5-0.5,1.2-0.9,2-0.9c1.3,0,1.9,0.9,1.9,2.5v3.8h-1.6v-3.6
					c0-0.9-0.3-1.3-0.9-1.3c-0.5,0-0.8,0.2-1.3,0.7v4.2h-1.6V14.3z"/>
				<path class="st0" d="M24.5,18.7c0-1.3,1.1-2,3.5-2.3c0-0.6-0.3-1-1-1c-0.6,0-1.1,0.2-1.7,0.6l-0.6-1.1c0.7-0.4,1.6-0.8,2.6-0.8
					c1.5,0,2.4,0.9,2.4,2.7v3.6h-1.3l-0.1-0.7h0c-0.5,0.5-1.1,0.8-1.8,0.8C25.2,20.6,24.5,19.8,24.5,18.7z M28,18.7v-1.2
					c-1.5,0.2-2,0.6-2,1.1c0,0.5,0.3,0.7,0.8,0.7C27.3,19.3,27.6,19.1,28,18.7z"/>
			</g>
			<g>
				<path class="st0" d="M33.5,19.4l0.9-1.1c0.6,0.5,1.3,0.9,2,0.9c0.8,0,1.3-0.4,1.3-0.9c0-0.6-0.5-0.8-1.2-1.1l-1.1-0.5
					c-0.8-0.3-1.6-1-1.6-2.2c0-1.3,1.2-2.3,2.8-2.3c0.9,0,1.9,0.4,2.5,1l-0.8,1c-0.5-0.4-1.1-0.7-1.7-0.7c-0.7,0-1.2,0.3-1.2,0.8
					c0,0.6,0.6,0.8,1.3,1.1l1.1,0.4c1,0.4,1.6,1,1.6,2.2c0,1.3-1.1,2.5-3,2.5C35.4,20.6,34.3,20.1,33.5,19.4z"/>
				<path class="st0" d="M40.7,14.3h1.3l0.1,0.8h0c0.5-0.5,1.1-1,1.9-1c0.9,0,1.4,0.4,1.7,1.1c0.6-0.6,1.2-1.1,1.9-1.1
					c1.3,0,1.9,0.9,1.9,2.5v3.8H48v-3.6c0-0.9-0.3-1.3-0.8-1.3c-0.3,0-0.7,0.2-1.2,0.7v4.2h-1.6v-3.6c0-0.9-0.3-1.3-0.8-1.3
					c-0.3,0-0.7,0.2-1.2,0.7v4.2h-1.6V14.3z"/>
				<path class="st0" d="M51,18.7c0-1.3,1.1-2,3.5-2.3c0-0.6-0.3-1-1-1c-0.6,0-1.1,0.2-1.7,0.6l-0.6-1.1c0.7-0.4,1.6-0.8,2.6-0.8
					c1.5,0,2.4,0.9,2.4,2.7v3.6h-1.3l-0.1-0.7h0c-0.5,0.5-1.1,0.8-1.8,0.8C51.7,20.6,51,19.8,51,18.7z M54.5,18.7v-1.2
					c-1.5,0.2-2,0.6-2,1.1c0,0.5,0.3,0.7,0.8,0.7C53.8,19.3,54.1,19.1,54.5,18.7z"/>
				<path class="st0" d="M57.7,18.7v-7h1.6v7.1c0,0.4,0.2,0.5,0.3,0.5c0.1,0,0.1,0,0.2,0l0.2,1.2c-0.2,0.1-0.5,0.1-0.8,0.1
					C58.1,20.6,57.7,19.8,57.7,18.7z"/>
				<path class="st0" d="M61.2,18.7v-7h1.6v7.1c0,0.4,0.2,0.5,0.3,0.5c0.1,0,0.1,0,0.2,0l0.2,1.2c-0.2,0.1-0.5,0.1-0.8,0.1
					C61.6,20.6,61.2,19.8,61.2,18.7z"/>
			</g>
		</g>
		<g>
			<g>
				<path class="st0" d="M4.4,23.3h5v1.4H6.1v2.1H9v1.4H6.1v3.3H4.4V23.3z"/>
				<path class="st0" d="M10.4,23.4c0-0.5,0.4-0.9,1-0.9c0.6,0,1,0.4,1,0.9c0,0.5-0.4,0.9-1,0.9C10.8,24.3,10.4,23.9,10.4,23.4z
					 M10.6,25.3h1.6v6.1h-1.6V25.3z"/>
				<path class="st0" d="M13.7,25.3h1.3l0.1,0.8h0c0.5-0.5,1.2-0.9,2-0.9c1.3,0,1.9,0.9,1.9,2.5v3.8h-1.6v-3.6
					c0-0.9-0.3-1.3-0.9-1.3c-0.5,0-0.8,0.2-1.3,0.7v4.2h-1.6V25.3z"/>
				<path class="st0" d="M20.5,29.7c0-1.3,1.1-2,3.5-2.3c0-0.6-0.3-1-1-1c-0.6,0-1.1,0.2-1.7,0.6l-0.6-1.1c0.7-0.4,1.6-0.8,2.6-0.8
					c1.5,0,2.4,0.9,2.4,2.7v3.6h-1.3l-0.1-0.7h0c-0.5,0.5-1.1,0.8-1.8,0.8C21.2,31.6,20.5,30.8,20.5,29.7z M24,29.7v-1.2
					c-1.5,0.2-2,0.6-2,1.1c0,0.5,0.3,0.7,0.8,0.7C23.3,30.3,23.6,30.1,24,29.7z"/>
				<path class="st0" d="M27.2,25.3h1.3l0.1,0.8h0c0.5-0.5,1.2-0.9,2-0.9c1.3,0,1.9,0.9,1.9,2.5v3.8H31v-3.6c0-0.9-0.3-1.3-0.9-1.3
					c-0.5,0-0.8,0.2-1.3,0.7v4.2h-1.6V25.3z"/>
				<path class="st0" d="M33.9,28.4c0-2,1.5-3.2,3.1-3.2c0.8,0,1.3,0.3,1.8,0.7l-0.8,1c-0.3-0.3-0.6-0.4-0.9-0.4
					c-0.9,0-1.6,0.8-1.6,1.9s0.6,1.9,1.5,1.9c0.4,0,0.9-0.2,1.2-0.5l0.6,1.1c-0.6,0.5-1.3,0.7-2,0.7C35.2,31.6,33.9,30.4,33.9,28.4z
					"/>
				<path class="st0" d="M39.3,28.4c0-2,1.4-3.2,2.9-3.2c1.7,0,2.6,1.2,2.6,2.9c0,0.3,0,0.6-0.1,0.7h-3.8c0.1,1,0.8,1.5,1.7,1.5
					c0.5,0,0.9-0.2,1.4-0.4l0.5,1c-0.6,0.4-1.4,0.7-2.1,0.7C40.7,31.6,39.3,30.4,39.3,28.4z M43.4,27.7c0-0.8-0.4-1.3-1.1-1.3
					c-0.6,0-1.2,0.5-1.3,1.3H43.4z"/>
			</g>
			<g>
				<path class="st0" d="M49.1,23.5h2.7c1.7,0,2.9,0.5,2.9,2c0,0.7-0.4,1.5-1.1,1.7v0c0.9,0.2,1.5,0.8,1.5,1.9
					c0,1.6-1.4,2.4-3.1,2.4h-2.9V23.5z M51.6,26.8c1,0,1.4-0.4,1.4-1.1c0-0.7-0.5-1-1.4-1h-1v2H51.6z M51.8,30.3
					c1.1,0,1.7-0.4,1.7-1.2c0-0.8-0.6-1.1-1.7-1.1h-1.1v2.3H51.8z"/>
				<path class="st0" d="M56.1,29.7c0-1.3,1.1-2,3.5-2.3c0-0.6-0.3-1-1-1c-0.6,0-1.1,0.2-1.7,0.6l-0.6-1.1c0.7-0.4,1.6-0.8,2.6-0.8
					c1.5,0,2.4,0.9,2.4,2.7v3.6h-1.3l-0.1-0.7h0c-0.5,0.5-1.1,0.8-1.8,0.8C56.8,31.6,56.1,30.8,56.1,29.7z M59.6,29.7v-1.2
					c-1.5,0.2-2,0.6-2,1.1c0,0.5,0.3,0.7,0.8,0.7C58.9,30.3,59.2,30.1,59.6,29.7z"/>
				<path class="st0" d="M62.8,25.4h1.3l0.1,0.8h0c0.5-0.5,1.2-0.9,2-0.9c1.3,0,1.9,0.9,1.9,2.5v3.8h-1.6v-3.6
					c0-0.9-0.3-1.3-0.9-1.3c-0.5,0-0.8,0.2-1.3,0.7v4.2h-1.6V25.4z"/>
				<path class="st0" d="M69.9,22.8h1.6v5.2h0l2.1-2.6h1.8l-2.1,2.5l2.3,3.6h-1.8L72.3,29l-0.9,1v1.5h-1.6V22.8z"/>
			</g>
		</g>
	</g>
	<g>
		<g>
			<path class="st1" d="M4.9,35.5h0.6l0.9,2.7H5.9l-0.2-0.7H4.7l-0.2,0.7H4L4.9,35.5z M4.9,37.1h0.7l-0.1-0.3
				c-0.1-0.3-0.2-0.6-0.2-0.9h0C5.1,36.2,5,36.5,5,36.8L4.9,37.1z"/>
			<path class="st1" d="M8.2,37.9l0.3-0.3c0.2,0.2,0.5,0.3,0.7,0.3c0.3,0,0.5-0.1,0.5-0.4c0-0.2-0.2-0.3-0.4-0.4L8.9,37
				c-0.3-0.1-0.6-0.3-0.6-0.7c0-0.4,0.4-0.8,0.9-0.8c0.3,0,0.6,0.1,0.8,0.3l-0.2,0.3c-0.2-0.1-0.4-0.2-0.6-0.2
				c-0.3,0-0.4,0.1-0.4,0.3c0,0.2,0.2,0.3,0.4,0.4l0.4,0.2c0.3,0.1,0.6,0.3,0.6,0.7c0,0.4-0.4,0.8-1,0.8C8.8,38.3,8.5,38.2,8.2,37.9
				z"/>
			<path class="st1" d="M11,36.9c0-0.9,0.6-1.4,1.3-1.4c0.3,0,0.6,0.2,0.8,0.3l-0.3,0.3c-0.1-0.1-0.3-0.2-0.5-0.2
				c-0.4,0-0.8,0.4-0.8,1c0,0.6,0.3,1,0.8,1c0.2,0,0.4-0.1,0.6-0.3l0.3,0.3c-0.2,0.3-0.5,0.4-0.9,0.4C11.5,38.3,11,37.8,11,36.9z"/>
			<path class="st1" d="M13.9,35.5h0.5v1.1h1.1v-1.1H16v2.7h-0.5V37h-1.1v1.2h-0.5V35.5z"/>
			<path class="st1" d="M17.1,35.5h1.6v0.4h-1.2v0.7h1V37h-1v0.8h1.2v0.4h-1.7V35.5z"/>
			<path class="st1" d="M19.8,35.5h0.7c0.8,0,1.3,0.5,1.3,1.4c0,0.9-0.5,1.4-1.3,1.4h-0.8V35.5z M20.5,37.9c0.6,0,0.9-0.3,0.9-1
				c0-0.7-0.3-1-0.9-1h-0.2v1.9H20.5z"/>
			<path class="st1" d="M22.8,37.1v-1.5h0.5v1.6c0,0.6,0.2,0.8,0.6,0.8c0.3,0,0.6-0.2,0.6-0.8v-1.6h0.5v1.5c0,0.9-0.4,1.3-1,1.3
				C23.2,38.3,22.8,38,22.8,37.1z"/>
			<path class="st1" d="M26,35.5h0.5v2.3h1.1v0.4H26V35.5z"/>
			<path class="st1" d="M28.5,35.5h1.6v0.4H29v0.7h1V37h-1v0.8h1.2v0.4h-1.7V35.5z"/>
			<path class="st1" d="M31.2,35.5h0.7c0.8,0,1.3,0.5,1.3,1.4c0,0.9-0.5,1.4-1.3,1.4h-0.8V35.5z M31.9,37.9c0.6,0,0.9-0.3,0.9-1
				c0-0.7-0.3-1-0.9-1h-0.2v1.9H31.9z"/>
			<path class="st1" d="M35.3,36.9c0-0.9,0.6-1.4,1.3-1.4c0.3,0,0.6,0.2,0.8,0.3l-0.3,0.3c-0.1-0.1-0.3-0.2-0.5-0.2
				c-0.4,0-0.8,0.4-0.8,1c0,0.6,0.3,1,0.8,1c0.2,0,0.4-0.1,0.6-0.3l0.3,0.3c-0.2,0.3-0.5,0.4-0.9,0.4C35.9,38.3,35.3,37.8,35.3,36.9
				z"/>
			<path class="st1" d="M38,36.9c0-0.9,0.5-1.4,1.2-1.4c0.7,0,1.2,0.5,1.2,1.4c0,0.9-0.5,1.4-1.2,1.4C38.5,38.3,38,37.8,38,36.9z
				 M39.9,36.9c0-0.6-0.3-1-0.7-1s-0.7,0.4-0.7,1c0,0.6,0.3,1,0.7,1S39.9,37.5,39.9,36.9z"/>
			<path class="st1" d="M41.4,35.5h0.5l0.5,1.3c0.1,0.2,0.1,0.4,0.2,0.5h0c0.1-0.2,0.1-0.4,0.2-0.5l0.5-1.3h0.6v2.7h-0.4V37
				c0-0.3,0-0.6,0.1-0.9h0l-0.2,0.6L42.7,38h-0.3L42,36.8l-0.2-0.6h0c0,0.3,0.1,0.6,0.1,0.9v1.3h-0.4V35.5z"/>
			<path class="st1" d="M44.9,35.5h0.5l0.5,1.3c0.1,0.2,0.1,0.4,0.2,0.5h0c0.1-0.2,0.1-0.4,0.2-0.5l0.5-1.3h0.6v2.7h-0.4V37
				c0-0.3,0-0.6,0.1-0.9h0l-0.2,0.6L46.3,38H46l-0.5-1.2l-0.2-0.6h0c0,0.3,0.1,0.6,0.1,0.9v1.3h-0.4V35.5z"/>
			<path class="st1" d="M48.5,35.5h1.6v0.4h-1.2v0.7h1V37h-1v0.8h1.2v0.4h-1.7V35.5z"/>
			<path class="st1" d="M51.1,35.5h0.9c0.6,0,1,0.2,1,0.8c0,0.4-0.2,0.7-0.5,0.8l0.7,1.1h-0.5L52,37.2h-0.4v1.1h-0.5V35.5z M52,36.8
				c0.4,0,0.6-0.2,0.6-0.5c0-0.3-0.2-0.4-0.6-0.4h-0.4v0.9H52z"/>
			<path class="st1" d="M53.9,36.9c0-0.9,0.6-1.4,1.3-1.4c0.3,0,0.6,0.2,0.8,0.3l-0.3,0.3c-0.1-0.1-0.3-0.2-0.5-0.2
				c-0.4,0-0.8,0.4-0.8,1c0,0.6,0.3,1,0.8,1c0.2,0,0.4-0.1,0.6-0.3l0.3,0.3c-0.2,0.3-0.5,0.4-0.9,0.4C54.4,38.3,53.9,37.8,53.9,36.9
				z"/>
			<path class="st1" d="M56.9,35.5h0.5v2.7h-0.5V35.5z"/>
			<path class="st1" d="M59,35.5h0.6l0.9,2.7h-0.5l-0.2-0.7h-0.9l-0.2,0.7h-0.5L59,35.5z M58.9,37.1h0.7l-0.1-0.3
				c-0.1-0.3-0.2-0.6-0.2-0.9h0c-0.1,0.3-0.2,0.6-0.2,0.9L58.9,37.1z"/>
			<path class="st1" d="M61.2,35.5h0.5v2.3h1.1v0.4h-1.6V35.5z"/>
			<path class="st1" d="M65,35.5h0.9c0.6,0,1,0.2,1,0.7c0,0.3-0.1,0.5-0.4,0.6v0c0.3,0.1,0.5,0.3,0.5,0.6c0,0.5-0.4,0.8-1.1,0.8H65
				V35.5z M65.8,36.7c0.4,0,0.5-0.2,0.5-0.4c0-0.3-0.2-0.4-0.5-0.4h-0.4v0.8H65.8z M65.9,37.9c0.4,0,0.6-0.1,0.6-0.5
				c0-0.3-0.2-0.4-0.6-0.4h-0.4v0.9H65.9z"/>
			<path class="st1" d="M68.4,35.5H69l0.9,2.7h-0.5l-0.2-0.7h-0.9L68,38.3h-0.5L68.4,35.5z M68.4,37.1h0.7L69,36.8
				c-0.1-0.3-0.2-0.6-0.2-0.9h0c-0.1,0.3-0.2,0.6-0.2,0.9L68.4,37.1z"/>
			<path class="st1" d="M70.6,35.5h0.5l0.9,1.5l0.3,0.6h0c0-0.3-0.1-0.6-0.1-0.9v-1.2h0.5v2.7h-0.5l-0.9-1.5l-0.3-0.6h0
				c0,0.3,0.1,0.6,0.1,0.9v1.2h-0.5V35.5z"/>
			<path class="st1" d="M73.8,35.5h0.5v1.2h0l1-1.2h0.5L75,36.6l1,1.7h-0.5L74.7,37l-0.4,0.5v0.8h-0.5V35.5z"/>
		</g>
	</g>
</g>
</svg>
