<?xml version="1.0" encoding="utf-8"?>
<!-- Generator: Adobe Illustrator 28.1.0, SVG Export Plug-In . SVG Version: 6.00 Build 0)  -->
<svg version="1.1" id="Layer_1" xmlns="http://www.w3.org/2000/svg" xmlns:xlink="http://www.w3.org/1999/xlink" x="0px" y="0px"
	 viewBox="0 0 104 65" style="enable-background:new 0 0 104 65;" xml:space="preserve">
<style type="text/css">
	.st0{fill:#D7117C;}
	.st1{fill:#404041;}
</style>
<g>
	<g>
		<g>
			<g>
				<path class="st0" d="M5.7,24.9l1.5-1.1c0.4,0.8,1,1.1,1.6,1.1c0.9,0,1.4-0.5,1.4-1.9v-7h2.1v7.1c0,2-1,3.6-3.3,3.6
					C7.4,26.7,6.4,26.1,5.7,24.9z"/>
				<path class="st0" d="M14.2,24.3c0-1.7,1.4-2.6,4.6-2.9c0-0.8-0.4-1.4-1.4-1.4c-0.7,0-1.4,0.3-2.2,0.8l-0.8-1.4
					c0.9-0.6,2.1-1,3.3-1c2,0,3.1,1.2,3.1,3.5v4.6h-1.7L19,25.7h-0.1c-0.7,0.6-1.5,1-2.4,1C15.1,26.7,14.2,25.7,14.2,24.3z
					 M18.7,24.3v-1.6c-1.9,0.2-2.6,0.8-2.6,1.5c0,0.6,0.4,0.9,1,0.9C17.8,25.1,18.2,24.8,18.7,24.3z"/>
				<path class="st0" d="M23,18.5h1.7l0.2,1h0.1c0.7-0.7,1.5-1.2,2.6-1.2c1.7,0,2.5,1.2,2.5,3.2v5h-2.1v-4.7c0-1.2-0.3-1.7-1.1-1.7
					c-0.6,0-1.1,0.3-1.6,0.9v5.5H23V18.5z"/>
				<path class="st0" d="M31.7,24.3c0-1.7,1.4-2.6,4.6-2.9c0-0.8-0.4-1.4-1.4-1.4c-0.7,0-1.4,0.3-2.2,0.8L32,19.4
					c0.9-0.6,2.1-1,3.3-1c2,0,3.1,1.2,3.1,3.5v4.6h-1.7l-0.2-0.9h-0.1c-0.7,0.6-1.5,1-2.4,1C32.7,26.7,31.7,25.7,31.7,24.3z
					 M36.3,24.3v-1.6c-1.9,0.2-2.6,0.8-2.6,1.5c0,0.6,0.4,0.9,1,0.9C35.4,25.1,35.8,24.8,36.3,24.3z"/>
			</g>
			<g>
				<path class="st0" d="M43.5,25.2l1.2-1.5c0.8,0.7,1.7,1.2,2.7,1.2c1.1,0,1.7-0.5,1.7-1.2c0-0.8-0.6-1-1.6-1.4l-1.4-0.6
					C45,21.2,44,20.4,44,18.8c0-1.7,1.5-3.1,3.7-3.1c1.2,0,2.5,0.5,3.3,1.4l-1.1,1.3c-0.7-0.6-1.4-0.9-2.2-0.9
					c-0.9,0-1.5,0.4-1.5,1.1c0,0.7,0.7,1,1.6,1.4l1.4,0.6c1.3,0.5,2.1,1.3,2.1,2.9c0,1.7-1.4,3.2-3.9,3.2
					C46,26.7,44.6,26.2,43.5,25.2z"/>
				<path class="st0" d="M53,18.5h1.7l0.2,1.1h0.1c0.7-0.7,1.4-1.2,2.4-1.2c1.1,0,1.8,0.5,2.2,1.4c0.7-0.8,1.5-1.4,2.5-1.4
					c1.7,0,2.5,1.2,2.5,3.2v5h-2.1v-4.7c0-1.2-0.4-1.7-1.1-1.7c-0.5,0-1,0.3-1.5,0.9v5.5h-2.1v-4.7c0-1.2-0.4-1.7-1.1-1.7
					c-0.4,0-1,0.3-1.5,0.9v5.5H53V18.5z"/>
				<path class="st0" d="M66.3,24.3c0-1.7,1.4-2.6,4.6-2.9c0-0.8-0.4-1.4-1.4-1.4c-0.7,0-1.4,0.3-2.2,0.8l-0.8-1.4
					c0.9-0.6,2.1-1,3.3-1c2,0,3.1,1.2,3.1,3.5v4.6h-1.7l-0.2-0.9h-0.1c-0.7,0.6-1.5,1-2.4,1C67.2,26.7,66.3,25.7,66.3,24.3z
					 M70.9,24.3v-1.6c-1.9,0.2-2.6,0.8-2.6,1.5c0,0.6,0.4,0.9,1,0.9C70,25.1,70.4,24.8,70.9,24.3z"/>
				<path class="st0" d="M75.1,24.3v-9.1h2.1v9.2c0,0.5,0.2,0.6,0.4,0.6c0.1,0,0.2,0,0.3,0l0.3,1.6c-0.2,0.1-0.6,0.2-1.1,0.2
					C75.6,26.7,75.1,25.8,75.1,24.3z"/>
				<path class="st0" d="M79.6,24.3v-9.1h2.1v9.2c0,0.5,0.2,0.6,0.4,0.6c0.1,0,0.2,0,0.3,0l0.3,1.6c-0.2,0.1-0.6,0.2-1.1,0.2
					C80.1,26.7,79.6,25.8,79.6,24.3z"/>
			</g>
		</g>
		<g>
			<g>
				<path class="st0" d="M5.7,30.3h6.5v1.8H7.8v2.7h3.7v1.8H7.8v4.3H5.7V30.3z"/>
				<path class="st0" d="M13.4,30.4c0-0.7,0.5-1.1,1.3-1.1s1.3,0.5,1.3,1.1c0,0.7-0.5,1.1-1.3,1.1S13.4,31.1,13.4,30.4z M13.6,32.9
					h2.1v8h-2.1V32.9z"/>
				<path class="st0" d="M17.8,32.9h1.7l0.2,1h0.1c0.7-0.7,1.5-1.2,2.6-1.2c1.7,0,2.5,1.2,2.5,3.2v5h-2.1v-4.7
					c0-1.2-0.3-1.7-1.1-1.7c-0.6,0-1.1,0.3-1.6,0.9v5.5h-2.1V32.9z"/>
				<path class="st0" d="M26.5,38.7c0-1.7,1.4-2.6,4.6-2.9c0-0.8-0.4-1.4-1.4-1.4c-0.7,0-1.4,0.3-2.2,0.8l-0.8-1.4
					c0.9-0.6,2.1-1,3.3-1c2,0,3.1,1.2,3.1,3.5v4.6h-1.7L31.3,40h-0.1c-0.7,0.6-1.5,1-2.4,1C27.5,41,26.5,40,26.5,38.7z M31.1,38.6
					V37c-1.9,0.2-2.6,0.8-2.6,1.5c0,0.6,0.4,0.9,1,0.9C30.2,39.4,30.6,39.1,31.1,38.6z"/>
				<path class="st0" d="M35.4,32.9h1.7l0.2,1h0.1c0.7-0.7,1.5-1.2,2.6-1.2c1.7,0,2.5,1.2,2.5,3.2v5h-2.1v-4.7
					c0-1.2-0.3-1.7-1.1-1.7c-0.6,0-1.1,0.3-1.6,0.9v5.5h-2.1V32.9z"/>
				<path class="st0" d="M44,36.9c0-2.7,1.9-4.2,4.1-4.2c1,0,1.7,0.4,2.3,0.9l-1,1.4c-0.4-0.3-0.8-0.5-1.2-0.5c-1.2,0-2,1-2,2.5
					s0.8,2.5,2,2.5c0.6,0,1.1-0.3,1.5-0.6l0.8,1.4c-0.8,0.7-1.7,1-2.6,1C45.7,41,44,39.5,44,36.9z"/>
				<path class="st0" d="M51.1,36.9c0-2.6,1.8-4.2,3.7-4.2c2.2,0,3.3,1.6,3.3,3.8c0,0.4,0,0.8-0.1,1h-4.9c0.2,1.3,1,2,2.2,2
					c0.6,0,1.2-0.2,1.8-0.6l0.7,1.3c-0.8,0.5-1.8,0.9-2.8,0.9C52.9,41,51.1,39.5,51.1,36.9z M56.4,36c0-1.1-0.5-1.7-1.5-1.7
					c-0.8,0-1.6,0.6-1.7,1.7H56.4z"/>
			</g>
			<g>
				<path class="st0" d="M63.8,30.5h3.5c2.2,0,3.8,0.6,3.8,2.6c0,1-0.5,2-1.4,2.3v0.1c1.1,0.3,2,1.1,2,2.5c0,2.1-1.8,3.1-4.1,3.1
					h-3.8V30.5z M67.2,34.8c1.3,0,1.9-0.5,1.9-1.4c0-0.9-0.6-1.3-1.9-1.3h-1.3v2.6H67.2z M67.4,39.4c1.4,0,2.2-0.5,2.2-1.6
					c0-1-0.8-1.4-2.2-1.4h-1.5v3H67.4z"/>
				<path class="st0" d="M73,38.7c0-1.7,1.4-2.6,4.6-2.9c0-0.8-0.4-1.4-1.4-1.4c-0.7,0-1.4,0.3-2.2,0.8l-0.8-1.4
					c0.9-0.6,2.1-1,3.3-1c2,0,3.1,1.2,3.1,3.5v4.6h-1.7L77.8,40h-0.1c-0.7,0.6-1.5,1-2.4,1C73.9,41,73,40,73,38.7z M77.6,38.6V37
					c-1.9,0.2-2.6,0.8-2.6,1.5c0,0.6,0.4,0.9,1,0.9C76.6,39.4,77,39.1,77.6,38.6z"/>
				<path class="st0" d="M81.8,33.1h1.7l0.2,1h0.1c0.7-0.7,1.5-1.2,2.6-1.2c1.7,0,2.5,1.2,2.5,3.2v5h-2.1v-4.7
					c0-1.2-0.3-1.7-1.1-1.7c-0.6,0-1.1,0.3-1.6,0.9V41h-2.1V33.1z"/>
				<path class="st0" d="M90.9,29.7H93v6.8h0.1l2.7-3.4h2.3l-2.8,3.3l3,4.7h-2.3l-1.9-3.3L93,39.1v2h-2.1V29.7z"/>
			</g>
		</g>
	</g>
	<g>
		<g>
			<path class="st1" d="M6.3,46.2H7l1.2,3.6H7.5l-0.3-1H6l-0.3,1H5.1L6.3,46.2z M6.2,48.3h0.9L7,47.9c-0.1-0.4-0.2-0.8-0.3-1.2h0
				c-0.1,0.4-0.2,0.8-0.3,1.2L6.2,48.3z"/>
			<path class="st1" d="M10.6,49.3l0.4-0.4c0.3,0.2,0.6,0.4,0.9,0.4c0.4,0,0.6-0.2,0.6-0.5c0-0.3-0.2-0.4-0.6-0.5l-0.5-0.2
				c-0.3-0.1-0.7-0.4-0.7-0.9c0-0.6,0.5-1,1.2-1c0.4,0,0.8,0.2,1.1,0.5L12.7,47c-0.2-0.2-0.5-0.3-0.8-0.3c-0.3,0-0.6,0.2-0.6,0.4
				c0,0.3,0.3,0.4,0.6,0.5l0.5,0.2c0.4,0.2,0.7,0.4,0.7,1c0,0.6-0.5,1.1-1.3,1.1C11.4,49.9,10.9,49.7,10.6,49.3z"/>
			<path class="st1" d="M14.1,48c0-1.2,0.7-1.9,1.6-1.9c0.4,0,0.8,0.2,1,0.5L16.5,47c-0.2-0.2-0.4-0.3-0.7-0.3c-0.6,0-1,0.5-1,1.3
				c0,0.8,0.4,1.3,1,1.3c0.3,0,0.6-0.1,0.8-0.4l0.3,0.4c-0.3,0.3-0.7,0.5-1.1,0.5C14.8,49.9,14.1,49.2,14.1,48z"/>
			<path class="st1" d="M18,46.2h0.6v1.4h1.4v-1.4h0.6v3.6h-0.6v-1.6h-1.4v1.6H18V46.2z"/>
			<path class="st1" d="M22.2,46.2h2.1v0.5h-1.5v0.9h1.3v0.5h-1.3v1.1h1.6v0.5h-2.2V46.2z"/>
			<path class="st1" d="M25.7,46.2h1c1.1,0,1.7,0.6,1.7,1.8c0,1.2-0.6,1.8-1.7,1.8h-1V46.2z M26.6,49.3c0.7,0,1.1-0.4,1.1-1.3
				c0-0.9-0.4-1.3-1.1-1.3h-0.3v2.5H26.6z"/>
			<path class="st1" d="M29.6,48.2v-2h0.6v2.1c0,0.8,0.3,1,0.7,1c0.4,0,0.7-0.3,0.7-1v-2.1h0.6v2c0,1.2-0.5,1.6-1.3,1.6
				C30.1,49.9,29.6,49.4,29.6,48.2z"/>
			<path class="st1" d="M33.7,46.2h0.6v3h1.5v0.5h-2.1V46.2z"/>
			<path class="st1" d="M37,46.2h2.1v0.5h-1.5v0.9h1.3v0.5h-1.3v1.1h1.6v0.5H37V46.2z"/>
			<path class="st1" d="M40.5,46.2h1c1.1,0,1.7,0.6,1.7,1.8c0,1.2-0.6,1.8-1.7,1.8h-1V46.2z M41.4,49.3c0.7,0,1.1-0.4,1.1-1.3
				c0-0.9-0.4-1.3-1.1-1.3h-0.3v2.5H41.4z"/>
			<path class="st1" d="M45.9,48c0-1.2,0.7-1.9,1.6-1.9c0.4,0,0.8,0.2,1,0.5L48.2,47c-0.2-0.2-0.4-0.3-0.7-0.3c-0.6,0-1,0.5-1,1.3
				c0,0.8,0.4,1.3,1,1.3c0.3,0,0.6-0.1,0.8-0.4l0.3,0.4c-0.3,0.3-0.7,0.5-1.1,0.5C46.6,49.9,45.9,49.2,45.9,48z"/>
			<path class="st1" d="M49.4,48c0-1.2,0.6-1.8,1.6-1.8c0.9,0,1.6,0.7,1.6,1.8c0,1.2-0.6,1.9-1.6,1.9C50,49.9,49.4,49.1,49.4,48z
				 M51.9,48c0-0.8-0.4-1.3-0.9-1.3s-0.9,0.5-0.9,1.3c0,0.8,0.4,1.3,0.9,1.3S51.9,48.8,51.9,48z"/>
			<path class="st1" d="M53.8,46.2h0.7l0.6,1.7c0.1,0.2,0.2,0.5,0.2,0.7h0c0.1-0.2,0.1-0.5,0.2-0.7l0.6-1.7H57v3.6h-0.6v-1.6
				c0-0.3,0-0.8,0.1-1.1h0l-0.3,0.8l-0.6,1.6h-0.4l-0.6-1.6L54.3,47h0c0,0.3,0.1,0.8,0.1,1.1v1.6h-0.6V46.2z"/>
			<path class="st1" d="M58.4,46.2h0.7l0.6,1.7c0.1,0.2,0.2,0.5,0.2,0.7h0c0.1-0.2,0.1-0.5,0.2-0.7l0.6-1.7h0.7v3.6H61v-1.6
				c0-0.3,0-0.8,0.1-1.1h0l-0.3,0.8l-0.6,1.6h-0.4l-0.6-1.6L58.9,47h0c0,0.3,0.1,0.8,0.1,1.1v1.6h-0.6V46.2z"/>
			<path class="st1" d="M63,46.2h2.1v0.5h-1.5v0.9h1.3v0.5h-1.3v1.1h1.6v0.5H63V46.2z"/>
			<path class="st1" d="M66.5,46.2h1.2c0.7,0,1.3,0.3,1.3,1.1c0,0.5-0.3,0.9-0.7,1l0.9,1.5h-0.7l-0.8-1.4h-0.5v1.4h-0.6V46.2z
				 M67.6,47.9c0.5,0,0.8-0.2,0.8-0.6c0-0.4-0.3-0.6-0.8-0.6h-0.5v1.2H67.6z"/>
			<path class="st1" d="M70.1,48c0-1.2,0.7-1.9,1.6-1.9c0.4,0,0.8,0.2,1,0.5L72.4,47c-0.2-0.2-0.4-0.3-0.7-0.3c-0.6,0-1,0.5-1,1.3
				c0,0.8,0.4,1.3,1,1.3c0.3,0,0.6-0.1,0.8-0.4l0.3,0.4c-0.3,0.3-0.7,0.5-1.1,0.5C70.8,49.9,70.1,49.2,70.1,48z"/>
			<path class="st1" d="M74,46.2h0.6v3.6H74V46.2z"/>
			<path class="st1" d="M76.7,46.2h0.7l1.2,3.6H78l-0.3-1h-1.2l-0.3,1h-0.6L76.7,46.2z M76.7,48.3h0.9l-0.1-0.4
				c-0.1-0.4-0.2-0.8-0.3-1.2h0c-0.1,0.4-0.2,0.8-0.3,1.2L76.7,48.3z"/>
			<path class="st1" d="M79.6,46.2h0.6v3h1.5v0.5h-2.1V46.2z"/>
			<path class="st1" d="M84.6,46.2h1.1c0.7,0,1.3,0.2,1.3,0.9c0,0.3-0.2,0.7-0.5,0.8v0c0.4,0.1,0.7,0.4,0.7,0.8c0,0.7-0.6,1-1.4,1
				h-1.2V46.2z M85.6,47.7c0.5,0,0.7-0.2,0.7-0.5c0-0.3-0.2-0.5-0.7-0.5h-0.5v1H85.6z M85.7,49.3c0.5,0,0.8-0.2,0.8-0.6
				c0-0.4-0.3-0.5-0.8-0.5h-0.5v1.1H85.7z"/>
			<path class="st1" d="M89.1,46.2h0.7l1.2,3.6h-0.7l-0.3-1h-1.2l-0.3,1h-0.6L89.1,46.2z M89,48.3h0.9l-0.1-0.4
				c-0.1-0.4-0.2-0.8-0.3-1.2h0c-0.1,0.4-0.2,0.8-0.3,1.2L89,48.3z"/>
			<path class="st1" d="M92,46.2h0.6l1.1,2l0.4,0.8h0c0-0.4-0.1-0.8-0.1-1.2v-1.5h0.6v3.6H94l-1.1-2L92.5,47h0
				c0,0.4,0.1,0.8,0.1,1.2v1.6H92V46.2z"/>
			<path class="st1" d="M96.1,46.2h0.6v1.6h0l1.3-1.6h0.7l-1.1,1.4l1.3,2.2h-0.7l-1-1.7l-0.5,0.6v1h-0.6V46.2z"/>
		</g>
	</g>
</g>
</svg>
