<?xml version="1.0" encoding="utf-8"?>
<!-- Generator: Adobe Illustrator 28.1.0, SVG Export Plug-In . SVG Version: 6.00 Build 0)  -->
<svg version="1.1" id="Layer_1" xmlns="http://www.w3.org/2000/svg" xmlns:xlink="http://www.w3.org/1999/xlink" x="0px" y="0px"
	 viewBox="0 0 117 65" style="enable-background:new 0 0 117 65;" xml:space="preserve">
<style type="text/css">
	.st0{fill-rule:evenodd;clip-rule:evenodd;fill:#EA2127;}
	.st1{fill:#1E3D71;}
	.st2{fill-rule:evenodd;clip-rule:evenodd;fill:#1E3D71;}
	.st3{fill-rule:evenodd;clip-rule:evenodd;fill:#FFFFFF;}
</style>
<g>
	<path class="st0" d="M68,34.7c3.9,0,6.9-2.3,6.9-6.2s-3-6.2-6.9-6.2s-6.9,2.3-6.9,6.2S64.1,34.7,68,34.7L68,34.7z M68,31.8
		c-1.9,0-2.7-1.6-2.7-3.3c0-1.8,0.8-3.3,2.7-3.3c1.9,0,2.7,1.6,2.7,3.3C70.6,30.3,69.9,31.8,68,31.8L68,31.8z"/>
	<path class="st0" d="M74.5,25.4h2.3v4.8c0,2.8,0.9,4.4,4.5,4.4c1,0,1.8-0.1,2.6-0.2l-0.1-2.7c-0.4,0.1-0.8,0.2-1.2,0.2
		c-1.3,0-1.6-0.7-1.6-2.2v-4.4h2.9v-2.9H81v-4.1l-4,1.4v2.7h-2.4v3H74.5z"/>
	<polygon class="st0" points="98.1,34.4 102.2,34.4 102.2,28.5 102.2,28.5 105.5,34.4 110.4,34.4 106,28 110.1,22.6 105.6,22.6 
		102.2,27.6 102.2,27.6 102.2,18.5 98.1,19.9 	"/>
	<polygon class="st0" points="50.2,34.4 54.3,34.4 54.3,28.5 54.3,28.5 57.6,34.4 62.6,34.4 58.1,28 62.2,22.6 57.7,22.6 54.3,27.6 
		54.3,27.6 54.3,18.5 50.2,19.8 	"/>
	<path class="st0" d="M96.6,34.5c-0.2-0.9-0.2-1.9-0.2-2.8v-4.5c0-3.7-2.6-5-5.7-5c-1.8,0-3.3,0.3-4.8,0.8l0.1,2.8
		c1.2-0.6,2.5-0.9,3.8-0.9c1.5,0,2.7,0.4,2.7,2.1c-0.5-0.1-1.3-0.2-1.9-0.2c-2.2,0-6.2,0.4-6.2,4.1c0,2.6,2.1,3.8,4.5,3.8
		c1.7,0,2.8-0.7,3.8-2.2l0,0c0,0.6,0.1,1.2,0.1,1.9L96.6,34.5L96.6,34.5z M88.3,30.7c0-1.1,1.1-1.6,2.5-1.6c0.6,0,1.2,0,1.7,0.1
		c0,1.4-1,2.8-2.6,2.8C89,32,88.3,31.5,88.3,30.7L88.3,30.7z"/>
	<path class="st1" d="M50.2,46.4h0.7v-6.6l0,0l2.8,6.6h0.6l2.7-6.6l0,0v6.6h0.7v-7.3h-1L54,45.5L51.3,39h-1.1V46.4L50.2,46.4z
		 M63.7,41H63v3c0,0.2,0,0.4,0,0.5c0,0.2-0.1,0.4-0.2,0.5c-0.1,0.2-0.2,0.3-0.3,0.4c-0.1,0.1-0.3,0.2-0.5,0.3s-0.4,0.1-0.6,0.1
		c-0.3,0-0.5-0.1-0.7-0.2c-0.2-0.1-0.3-0.3-0.4-0.6c-0.1-0.2-0.1-0.5-0.1-0.9V41h-0.7v3.4c0,0.3,0,0.6,0.1,0.8
		c0.1,0.3,0.2,0.5,0.3,0.7s0.3,0.3,0.6,0.4c0.2,0.1,0.5,0.2,0.8,0.2s0.5,0,0.7-0.1s0.4-0.2,0.5-0.3s0.2-0.2,0.3-0.3s0.2-0.2,0.2-0.4
		l0,0v1h0.6c0-0.2,0-0.4,0-0.6c0-0.2,0-0.4,0-0.6V41H63.7z M67.6,41h-1.2v-1.5l-0.7,0.2V41h-1.1v0.6h1.1v3.1c0,0.2,0,0.5,0,0.7
		s0.1,0.4,0.1,0.6c0.1,0.2,0.2,0.3,0.4,0.4c0.2,0.1,0.4,0.1,0.7,0.1c0.1,0,0.2,0,0.3,0c0.1,0,0.2,0,0.3-0.1c0.1,0,0.2,0,0.2-0.1
		v-0.5c-0.1,0-0.2,0.1-0.3,0.1c-0.1,0-0.2,0-0.3,0c-0.2,0-0.3,0-0.4-0.1s-0.2-0.2-0.2-0.3s-0.1-0.3-0.1-0.4v-3.5h1.2V41L67.6,41z
		 M73,41h-0.7v3c0,0.2,0,0.4,0,0.5c0,0.2-0.1,0.4-0.2,0.5c-0.1,0.2-0.2,0.3-0.3,0.4c-0.1,0.1-0.3,0.2-0.5,0.3s-0.4,0.1-0.6,0.1
		c-0.3,0-0.5-0.1-0.7-0.2c-0.2-0.1-0.3-0.3-0.4-0.6c-0.1-0.2-0.1-0.5-0.1-0.9V41h-0.7v3.4c0,0.3,0,0.6,0.1,0.8
		c0.1,0.3,0.2,0.5,0.3,0.7c0.1,0.2,0.3,0.3,0.6,0.4c0.2,0.1,0.5,0.2,0.8,0.2s0.5,0,0.7-0.1s0.4-0.2,0.5-0.3s0.2-0.2,0.3-0.3
		c0.1-0.1,0.2-0.2,0.2-0.4l0,0v1h0.6c0-0.2,0-0.4,0-0.6c0-0.2,0-0.4,0-0.6L73,41L73,41z M77.8,46.4h0.7c0-0.1,0-0.2,0-0.4
		c0-0.1,0-0.2,0-0.4c0-0.1,0-0.3,0-0.4v-2.4c0-0.5-0.1-0.8-0.2-1.1S78,41.2,77.7,41c-0.3-0.1-0.6-0.2-1.1-0.2c-0.1,0-0.2,0-0.4,0
		c-0.1,0-0.3,0-0.4,0.1c-0.1,0-0.3,0.1-0.4,0.1s-0.2,0.1-0.4,0.1v0.6c0.2-0.2,0.5-0.3,0.8-0.3c0.3-0.1,0.5-0.1,0.8-0.1
		s0.5,0.1,0.7,0.2c0.2,0.1,0.3,0.3,0.4,0.5s0.1,0.5,0.1,0.8v0.3h-0.1c-0.2,0-0.5,0-0.7,0c-0.3,0-0.5,0-0.7,0.1
		c-0.2,0-0.5,0.1-0.7,0.2c-0.2,0.1-0.4,0.2-0.6,0.3s-0.3,0.3-0.4,0.5s-0.1,0.5-0.1,0.8c0,0.1,0,0.2,0,0.3s0.1,0.3,0.1,0.4
		c0.1,0.1,0.2,0.3,0.3,0.4c0.1,0.1,0.3,0.2,0.5,0.3s0.5,0.1,0.8,0.1c0.2,0,0.3,0,0.5-0.1c0.2,0,0.3-0.1,0.5-0.2
		c0.2-0.1,0.3-0.2,0.4-0.3s0.2-0.3,0.3-0.4l0,0v0.9H77.8z M77.7,44c0,0.1,0,0.3,0,0.4c0,0.2,0,0.3-0.1,0.5s-0.1,0.3-0.2,0.5
		s-0.3,0.3-0.5,0.4c-0.2,0.1-0.5,0.1-0.8,0.1c-0.2,0-0.4,0-0.6-0.1s-0.3-0.2-0.4-0.3C75,45.4,75,45.2,75,45s0.1-0.4,0.2-0.6
		c0.1-0.2,0.2-0.3,0.4-0.4c0.2-0.1,0.4-0.2,0.6-0.2s0.4-0.1,0.7-0.1c0.2,0,0.5,0,0.7,0h0.2L77.7,44L77.7,44z M79.9,46.4h0.7v-7.9
		h-0.7V46.4L79.9,46.4z M85.2,46.4h0.7v-3.5h2.6v-0.6h-2.6v-2.6h2.8v-0.6h-3.5V46.4L85.2,46.4z M94,41h-0.7v3c0,0.2,0,0.4,0,0.5
		c0,0.2-0.1,0.4-0.2,0.5c-0.1,0.2-0.2,0.3-0.3,0.4c-0.1,0.1-0.3,0.2-0.5,0.3s-0.4,0.1-0.6,0.1c-0.3,0-0.5-0.1-0.7-0.2
		c-0.2-0.1-0.3-0.3-0.4-0.6c-0.1-0.2-0.1-0.5-0.1-0.9V41h-0.7v3.4c0,0.3,0,0.6,0.1,0.8c0.1,0.3,0.2,0.5,0.3,0.7
		c0.1,0.2,0.3,0.3,0.6,0.4c0.2,0.1,0.5,0.2,0.8,0.2s0.5,0,0.7-0.1s0.4-0.2,0.5-0.3s0.2-0.2,0.3-0.3c0.1-0.1,0.2-0.2,0.2-0.4l0,0v1
		h0.6c0-0.2,0-0.4,0-0.6c0-0.2,0-0.4,0-0.6L94,41L94,41z M95.7,46.4h0.7v-3c0-0.2,0-0.4,0-0.5c0-0.2,0.1-0.4,0.2-0.5
		c0.1-0.2,0.2-0.3,0.3-0.5c0.1-0.1,0.3-0.2,0.5-0.3s0.4-0.1,0.6-0.1c0.3,0,0.5,0.1,0.7,0.2c0.2,0.1,0.3,0.3,0.4,0.6
		c0.1,0.2,0.1,0.5,0.1,0.9v3.3h0.7V43c0-0.3,0-0.6-0.1-0.8s-0.2-0.5-0.3-0.7c-0.1-0.2-0.3-0.3-0.6-0.4c-0.2-0.1-0.5-0.2-0.8-0.2
		s-0.5,0-0.7,0.1s-0.4,0.2-0.5,0.3s-0.2,0.2-0.3,0.3c-0.1,0.1-0.2,0.3-0.2,0.4l0,0v-1h-0.6c0,0.2,0,0.4,0,0.6c0,0.2,0,0.4,0,0.6
		L95.7,46.4L95.7,46.4z M105.8,38.5h-0.7v3.4l0,0c0-0.1-0.1-0.1-0.1-0.2c-0.1-0.1-0.1-0.2-0.2-0.3s-0.2-0.2-0.3-0.3
		c-0.1-0.1-0.3-0.2-0.4-0.2c-0.2-0.1-0.4-0.1-0.6-0.1c-0.4,0-0.7,0.1-1,0.2c-0.3,0.1-0.5,0.3-0.7,0.6c-0.2,0.2-0.3,0.5-0.4,0.9
		c-0.1,0.3-0.1,0.7-0.1,1.1c0,0.4,0,0.8,0.1,1.1s0.2,0.6,0.4,0.9c0.2,0.3,0.4,0.5,0.7,0.6c0.3,0.1,0.6,0.2,1,0.2s0.7-0.1,1-0.2
		c0.3-0.2,0.5-0.4,0.7-0.7l0,0v0.9h0.7L105.8,38.5L105.8,38.5z M101.9,43.7c0-0.2,0-0.4,0-0.6c0-0.2,0.1-0.4,0.2-0.6
		c0.1-0.2,0.2-0.4,0.3-0.5c0.1-0.2,0.3-0.3,0.5-0.4c0.2-0.1,0.4-0.1,0.6-0.1s0.4,0,0.6,0.1s0.3,0.2,0.4,0.4s0.2,0.3,0.3,0.5
		c0.1,0.2,0.1,0.4,0.2,0.6c0,0.2,0.1,0.4,0.1,0.6c0,0.2,0,0.4-0.1,0.6c0,0.2-0.1,0.4-0.2,0.6c-0.1,0.2-0.2,0.4-0.3,0.5
		c-0.1,0.2-0.3,0.3-0.4,0.4c-0.2,0.1-0.4,0.1-0.6,0.1s-0.5,0-0.6-0.1c-0.2-0.1-0.3-0.2-0.5-0.4c-0.1-0.1-0.2-0.3-0.3-0.5
		c-0.1-0.2-0.1-0.4-0.2-0.6C102,44.1,101.9,43.9,101.9,43.7L101.9,43.7z"/>
	<path class="st2" d="M6.6,32.5c0-9.5,8.9-17.2,20-17.2c11,0,20,7.7,20,17.2s-8.9,17.2-20,17.2S6.6,42,6.6,32.5L6.6,32.5z"/>
	<polygon class="st0" points="24.1,20.9 28.7,19.3 28.8,44.4 24.1,45.9 	"/>
	<path class="st3" d="M41.5,34.2c-0.4,3.6-2.4,7.2-6.8,7.2c-2.6,0-4.6-1.8-6-3.9V35c1.7,0.9,3.4,1.8,5.3,1.8c2.4,0,4.6-0.9,5.5-2.6
		H41.5L41.5,34.2z M26.9,36.5c-2,2.4-4,4.9-7.6,4.9c-5.2,0-7.6-5-7.6-9.1c0-4,1.9-8.7,6.9-8.7c2.2,0,4.3,1.3,5.5,2.7v3.4
		c-1-0.7-3.4-1.4-4.9-1.4c-3.2-0.1-6,1.3-5.9,4.5c0,2.2,2.2,3.6,4.3,3.6c3.3,0,5.2-3,6.9-5.2c0.5-0.6,1.8-2.3,2-2.6
		c1.8-2.6,4-4.9,7.6-4.9c4.3,0,6.7,3.5,7.4,7h-1.9c-0.8-1.2-2.3-1.9-3.8-1.9c-3.4,0-5.4,3.1-7.1,5.4C28.7,34.1,27.3,35.9,26.9,36.5
		L26.9,36.5z"/>
</g>
</svg>
