<?xml version="1.0" encoding="utf-8"?>
<!-- Generator: Adobe Illustrator 28.1.0, SVG Export Plug-In . SVG Version: 6.00 Build 0)  -->
<svg version="1.1" id="Layer_1" xmlns="http://www.w3.org/2000/svg" xmlns:xlink="http://www.w3.org/1999/xlink" x="0px" y="0px"
	 viewBox="0 0 90 50" style="enable-background:new 0 0 90 50;" xml:space="preserve">
<style type="text/css">
	.st0{fill-rule:evenodd;clip-rule:evenodd;fill:#EA2127;}
	.st1{fill:#1E3D71;}
	.st2{fill-rule:evenodd;clip-rule:evenodd;fill:#1E3D71;}
	.st3{fill-rule:evenodd;clip-rule:evenodd;fill:#FFFFFF;}
</style>
<g>
	<path class="st0" d="M52.3,26.7c3,0,5.3-1.7,5.3-4.7c0-3-2.3-4.8-5.3-4.8c-3,0-5.3,1.7-5.3,4.8C47,24.9,49.3,26.7,52.3,26.7
		L52.3,26.7z M52.3,24.5c-1.4,0-2-1.2-2-2.5c0-1.4,0.6-2.6,2-2.6c1.4,0,2,1.2,2,2.6C54.3,23.3,53.7,24.5,52.3,24.5L52.3,24.5z"/>
	<path class="st0" d="M57.2,19.6H59v3.7c0,2.2,0.7,3.4,3.5,3.4c0.8,0,1.4-0.1,2-0.2l-0.1-2c-0.3,0.1-0.6,0.1-1,0.1
		c-1,0-1.3-0.6-1.3-1.7v-3.3h2.2v-2.2h-2.2l0-3.1l-3.1,1.1v2h-1.8V19.6L57.2,19.6z"/>
	<polygon class="st0" points="75.3,26.5 78.5,26.5 78.5,22 78.5,22 81,26.5 84.8,26.5 81.4,21.6 84.5,17.4 81.1,17.4 78.5,21.2 
		78.5,21.2 78.5,14.3 75.3,15.4 75.3,26.5 	"/>
	<polygon class="st0" points="38.6,26.5 41.8,26.5 41.8,22 41.8,22 44.3,26.5 48.1,26.5 44.7,21.6 47.9,17.4 44.4,17.4 41.8,21.2 
		41.8,21.2 41.8,14.3 38.6,15.3 38.6,26.5 	"/>
	<path class="st0" d="M74.2,26.5c-0.1-0.7-0.2-1.4-0.2-2.2v-3.4c0-2.8-2-3.8-4.4-3.8c-1.4,0-2.5,0.2-3.7,0.7l0.1,2.1
		c0.9-0.5,1.9-0.7,2.9-0.7c1.1,0,2.1,0.3,2.1,1.6c-0.4-0.1-1-0.1-1.5-0.1c-1.7,0-4.7,0.3-4.7,3.1c0,2,1.6,2.9,3.4,2.9
		c1.3,0,2.2-0.5,2.9-1.7h0c0,0.5,0.1,1,0.1,1.4H74.2L74.2,26.5z M67.8,23.6c0-0.9,0.8-1.2,1.9-1.2c0.5,0,0.9,0,1.3,0.1
		c0,1.1-0.8,2.2-2,2.2C68.4,24.6,67.8,24.2,67.8,23.6L67.8,23.6z"/>
	<path class="st1" d="M38.7,35.6h0.6v-5.1h0l2.1,5.1h0.5l2-5.1h0v5.1h0.6V30h-0.8L41.6,35L39.5,30h-0.9V35.6L38.7,35.6z M49,31.5
		h-0.5v2.3c0,0.1,0,0.3,0,0.4c0,0.1-0.1,0.3-0.1,0.4c-0.1,0.1-0.1,0.2-0.2,0.3c-0.1,0.1-0.2,0.2-0.3,0.2c-0.1,0.1-0.3,0.1-0.5,0.1
		c-0.2,0-0.4-0.1-0.6-0.2c-0.1-0.1-0.2-0.3-0.3-0.4c-0.1-0.2-0.1-0.4-0.1-0.7v-2.5h-0.5v2.6c0,0.2,0,0.4,0.1,0.6
		c0.1,0.2,0.1,0.4,0.2,0.5c0.1,0.1,0.3,0.3,0.4,0.3c0.2,0.1,0.4,0.1,0.6,0.1c0.2,0,0.4,0,0.5-0.1c0.2,0,0.3-0.1,0.4-0.2
		c0.1-0.1,0.2-0.2,0.2-0.3c0.1-0.1,0.1-0.2,0.2-0.3h0v0.7H49c0-0.2,0-0.3,0-0.5c0-0.2,0-0.3,0-0.5V31.5L49,31.5z M52,31.5h-0.9v-1.2
		l-0.5,0.2v1h-0.8V32h0.8v2.4c0,0.2,0,0.4,0,0.5c0,0.2,0.1,0.3,0.1,0.4c0.1,0.1,0.2,0.2,0.3,0.3s0.3,0.1,0.5,0.1c0.1,0,0.2,0,0.2,0
		c0.1,0,0.2,0,0.2,0c0.1,0,0.1,0,0.2-0.1l0-0.4c-0.1,0-0.1,0.1-0.2,0.1c-0.1,0-0.2,0-0.3,0c-0.1,0-0.2,0-0.3-0.1
		c-0.1-0.1-0.1-0.1-0.2-0.2c0-0.1-0.1-0.2-0.1-0.3V32H52V31.5L52,31.5z M56.1,31.5h-0.5v2.3c0,0.1,0,0.3,0,0.4
		c0,0.1-0.1,0.3-0.1,0.4c-0.1,0.1-0.1,0.2-0.2,0.3c-0.1,0.1-0.2,0.2-0.3,0.2c-0.1,0.1-0.3,0.1-0.5,0.1c-0.2,0-0.4-0.1-0.6-0.2
		c-0.1-0.1-0.2-0.3-0.3-0.4c-0.1-0.2-0.1-0.4-0.1-0.7v-2.5h-0.5v2.6c0,0.2,0,0.4,0.1,0.6c0.1,0.2,0.1,0.4,0.2,0.5
		c0.1,0.1,0.3,0.3,0.4,0.3c0.2,0.1,0.4,0.1,0.6,0.1c0.2,0,0.4,0,0.5-0.1c0.2,0,0.3-0.1,0.4-0.2c0.1-0.1,0.2-0.2,0.2-0.3
		c0.1-0.1,0.1-0.2,0.2-0.3h0v0.7h0.5c0-0.2,0-0.3,0-0.5c0-0.2,0-0.3,0-0.5V31.5L56.1,31.5z M59.8,35.6h0.5c0-0.1,0-0.2,0-0.3
		c0-0.1,0-0.2,0-0.3c0-0.1,0-0.2,0-0.3V33c0-0.4,0-0.6-0.1-0.9c-0.1-0.2-0.3-0.4-0.5-0.5c-0.2-0.1-0.5-0.2-0.8-0.2
		c-0.1,0-0.2,0-0.3,0c-0.1,0-0.2,0-0.3,0.1c-0.1,0-0.2,0.1-0.3,0.1c-0.1,0-0.2,0.1-0.3,0.1v0.5c0.2-0.1,0.4-0.2,0.6-0.3
		c0.2-0.1,0.4-0.1,0.6-0.1c0.2,0,0.4,0,0.5,0.1c0.1,0.1,0.2,0.2,0.3,0.4c0.1,0.2,0.1,0.4,0.1,0.6v0.2h-0.1c-0.2,0-0.4,0-0.6,0
		c-0.2,0-0.4,0-0.6,0.1c-0.2,0-0.4,0.1-0.5,0.1c-0.2,0.1-0.3,0.1-0.4,0.3c-0.1,0.1-0.2,0.2-0.3,0.4c-0.1,0.2-0.1,0.4-0.1,0.6
		c0,0.1,0,0.2,0,0.3c0,0.1,0.1,0.2,0.1,0.3c0.1,0.1,0.1,0.2,0.2,0.3c0.1,0.1,0.2,0.2,0.4,0.2c0.2,0.1,0.4,0.1,0.6,0.1
		c0.1,0,0.3,0,0.4-0.1c0.1,0,0.3-0.1,0.4-0.1c0.1-0.1,0.2-0.1,0.3-0.2c0.1-0.1,0.2-0.2,0.2-0.3h0V35.6L59.8,35.6z M59.7,33.8
		c0,0.1,0,0.2,0,0.3c0,0.1,0,0.3-0.1,0.4c0,0.1-0.1,0.3-0.2,0.4c-0.1,0.1-0.2,0.2-0.4,0.3c-0.2,0.1-0.3,0.1-0.6,0.1
		c-0.2,0-0.3,0-0.4-0.1c-0.1,0-0.2-0.1-0.3-0.2c-0.1-0.1-0.1-0.3-0.1-0.4c0-0.2,0-0.3,0.1-0.4c0.1-0.1,0.2-0.2,0.3-0.3
		c0.1-0.1,0.3-0.1,0.4-0.2c0.2,0,0.3-0.1,0.5-0.1c0.2,0,0.4,0,0.5,0h0.1V33.8L59.7,33.8z M61.4,35.6h0.5v-6h-0.5V35.6L61.4,35.6z
		 M65.4,35.6H66V33h2v-0.5h-2v-2h2.1V30h-2.7V35.6L65.4,35.6z M72.2,31.5h-0.5v2.3c0,0.1,0,0.3,0,0.4c0,0.1-0.1,0.3-0.1,0.4
		c-0.1,0.1-0.1,0.2-0.2,0.3c-0.1,0.1-0.2,0.2-0.3,0.2c-0.1,0.1-0.3,0.1-0.5,0.1c-0.2,0-0.4-0.1-0.6-0.2c-0.1-0.1-0.2-0.3-0.3-0.4
		c-0.1-0.2-0.1-0.4-0.1-0.7v-2.5H69v2.6c0,0.2,0,0.4,0.1,0.6c0.1,0.2,0.1,0.4,0.2,0.5c0.1,0.1,0.3,0.3,0.4,0.3
		c0.2,0.1,0.4,0.1,0.6,0.1c0.2,0,0.4,0,0.5-0.1c0.2,0,0.3-0.1,0.4-0.2c0.1-0.1,0.2-0.2,0.3-0.3c0.1-0.1,0.1-0.2,0.2-0.3h0v0.7h0.5
		c0-0.2,0-0.3,0-0.5c0-0.2,0-0.3,0-0.5V31.5L72.2,31.5z M73.5,35.6H74v-2.3c0-0.1,0-0.3,0-0.4c0-0.1,0.1-0.3,0.1-0.4
		c0.1-0.1,0.1-0.2,0.2-0.3c0.1-0.1,0.2-0.2,0.3-0.2c0.1-0.1,0.3-0.1,0.5-0.1c0.2,0,0.4,0.1,0.6,0.2c0.1,0.1,0.2,0.3,0.3,0.4
		c0.1,0.2,0.1,0.4,0.1,0.7v2.5h0.5V33c0-0.2,0-0.4-0.1-0.6c-0.1-0.2-0.1-0.4-0.2-0.5c-0.1-0.1-0.3-0.3-0.4-0.3
		c-0.2-0.1-0.4-0.1-0.6-0.1c-0.2,0-0.4,0-0.5,0.1c-0.2,0-0.3,0.1-0.4,0.2c-0.1,0.1-0.2,0.2-0.3,0.3c-0.1,0.1-0.1,0.2-0.2,0.3h0v-0.7
		h-0.5c0,0.2,0,0.3,0,0.5c0,0.2,0,0.3,0,0.5V35.6L73.5,35.6z M81.3,29.6h-0.5v2.6h0c0,0,0-0.1-0.1-0.2c0-0.1-0.1-0.1-0.2-0.2
		c-0.1-0.1-0.2-0.1-0.3-0.2c-0.1-0.1-0.2-0.1-0.3-0.2c-0.1,0-0.3-0.1-0.4-0.1c-0.3,0-0.6,0.1-0.8,0.2c-0.2,0.1-0.4,0.3-0.5,0.4
		c-0.1,0.2-0.2,0.4-0.3,0.7c-0.1,0.3-0.1,0.5-0.1,0.9c0,0.3,0,0.6,0.1,0.8c0.1,0.3,0.2,0.5,0.3,0.7c0.1,0.2,0.3,0.3,0.5,0.5
		c0.2,0.1,0.5,0.2,0.7,0.2c0.3,0,0.5-0.1,0.8-0.2c0.2-0.1,0.4-0.3,0.5-0.6h0v0.7h0.5V29.6L81.3,29.6z M78.3,33.6c0-0.2,0-0.3,0-0.5
		c0-0.2,0.1-0.3,0.1-0.5c0.1-0.1,0.1-0.3,0.2-0.4c0.1-0.1,0.2-0.2,0.3-0.3c0.1-0.1,0.3-0.1,0.5-0.1c0.2,0,0.3,0,0.5,0.1
		c0.1,0.1,0.3,0.2,0.3,0.3c0.1,0.1,0.2,0.3,0.2,0.4c0.1,0.1,0.1,0.3,0.1,0.5c0,0.2,0,0.3,0,0.5c0,0.2,0,0.3,0,0.5
		c0,0.2-0.1,0.3-0.1,0.5c-0.1,0.1-0.1,0.3-0.2,0.4c-0.1,0.1-0.2,0.2-0.3,0.3c-0.1,0.1-0.3,0.1-0.5,0.1c-0.2,0-0.4,0-0.5-0.1
		c-0.1-0.1-0.3-0.2-0.3-0.3c-0.1-0.1-0.2-0.2-0.2-0.4c-0.1-0.1-0.1-0.3-0.1-0.5C78.3,33.9,78.3,33.8,78.3,33.6L78.3,33.6z"/>
	<path class="st2" d="M5.2,25c0-7.3,6.8-13.2,15.3-13.2c8.4,0,15.3,5.9,15.3,13.2s-6.8,13.2-15.3,13.2C12,38.2,5.2,32.3,5.2,25
		L5.2,25z"/>
	<polygon class="st0" points="18.6,16.1 22.2,14.9 22.2,34.1 18.6,35.3 18.6,16.1 	"/>
	<path class="st3" d="M32,26.3c-0.3,2.7-1.9,5.5-5.2,5.5c-2,0-3.5-1.3-4.6-3V27c1.3,0.7,2.6,1.4,4.1,1.4c1.9,0,3.5-0.7,4.2-2H32
		L32,26.3z M20.7,28.1c-1.5,1.9-3,3.8-5.8,3.8c-3.9,0-5.8-3.8-5.8-7c0-3.1,1.5-6.7,5.3-6.7c1.7,0,3.3,1,4.2,2.1l0,2.6
		c-0.8-0.5-2.6-1.1-3.8-1.1c-2.4,0-4.6,1-4.6,3.4c0,1.7,1.7,2.8,3.3,2.8c2.5,0,4-2.3,5.3-4c0.4-0.5,1.4-1.8,1.5-2
		c1.4-2,3-3.8,5.8-3.8c3.3,0,5.1,2.7,5.7,5.4h-1.5c-0.6-0.9-1.7-1.4-2.9-1.4c-2.6,0-4.1,2.4-5.4,4.1C22.1,26.2,21.1,27.6,20.7,28.1
		L20.7,28.1z"/>
</g>
</svg>
