<?xml version="1.0" encoding="utf-8"?>
<!-- Generator: Adobe Illustrator 28.1.0, SVG Export Plug-In . SVG Version: 6.00 Build 0)  -->
<svg version="1.1" id="Layer_1" xmlns="http://www.w3.org/2000/svg" xmlns:xlink="http://www.w3.org/1999/xlink" x="0px" y="0px"
	 viewBox="0 0 156 65" style="enable-background:new 0 0 156 65;" xml:space="preserve">
<style type="text/css">
	.st0{fill:#5F17C5;}
	.st1{fill:#17C55F;}
	.st2{fill:#FFFFFF;}
</style>
<rect x="0.1" y="0.1" class="st0" width="156" height="65"/>
<g>
	<g>
		<path class="st1" d="M74.7,37.3c0,2.2-1.8,3.9-3.9,3.9c-0.8,0-1.5-0.2-2.1-0.6c-0.5-0.3-0.9-0.7-1.2-1.2c-0.4-0.6-0.6-1.3-0.6-2.1
			c0-2.2,1.8-3.9,3.9-3.9C72.9,33.4,74.7,35.1,74.7,37.3z"/>
	</g>
	<g>
		<path class="st2" d="M90.5,29.2c1.3,0,2.4,0.4,3.1,1.3c0.8,0.9,1.2,2,1.2,3.4v7h-3.4v-6.7c0-0.6-0.1-1-0.4-1.4
			c-0.3-0.3-0.7-0.5-1.2-0.5c-0.6,0-1,0.2-1.3,0.6c-0.3,0.4-0.5,0.9-0.5,1.6v6.4h-3.4v-6.7c0-0.6-0.1-1-0.4-1.4
			c-0.3-0.3-0.7-0.5-1.2-0.5c-0.6,0-1,0.2-1.3,0.6c-0.3,0.4-0.5,0.9-0.5,1.6v6.4h-3.4V29.5h3.4v1c0.6-0.9,1.6-1.4,3.1-1.4
			c1.3,0,2.3,0.5,3,1.5C87.9,29.7,89,29.2,90.5,29.2z"/>
		<path class="st2" d="M105.5,29.5h3.4v11.4h-3.4v-1.1c-0.8,0.9-1.9,1.4-3.4,1.4c-1.5,0-2.8-0.6-3.9-1.7c-1.1-1.2-1.6-2.6-1.6-4.3
			s0.5-3.1,1.6-4.3c1.1-1.2,2.3-1.7,3.9-1.7c1.5,0,2.6,0.5,3.4,1.4V29.5z M100.8,37.3c0.5,0.5,1.2,0.8,2,0.8c0.8,0,1.5-0.3,2-0.8
			c0.5-0.5,0.8-1.2,0.8-2s-0.3-1.5-0.8-2c-0.5-0.5-1.2-0.8-2-0.8c-0.8,0-1.5,0.3-2,0.8c-0.5,0.5-0.8,1.2-0.8,2
			S100.3,36.8,100.8,37.3z"/>
		<path class="st2" d="M114.8,31.6c0.2-0.7,0.6-1.3,1.3-1.7c0.6-0.4,1.4-0.6,2.1-0.6v3.9c-0.8-0.1-1.6,0-2.3,0.4
			c-0.7,0.4-1.1,1.1-1.1,2.2v5.1h-3.4V29.5h3.4V31.6z"/>
		<path class="st2" d="M134,36.6c0.4,1.1,1.3,1.6,2.7,1.6c0.9,0,1.7-0.3,2.2-0.9l2.7,1.6c-1.1,1.6-2.8,2.3-5,2.3
			c-1.9,0-3.4-0.6-4.6-1.7c-1.1-1.1-1.7-2.6-1.7-4.3c0-1.7,0.6-3.1,1.7-4.3c1.1-1.1,2.6-1.7,4.4-1.7c1.7,0,3,0.6,4.1,1.7
			c1.1,1.1,1.7,2.6,1.7,4.3c0,0.5,0,0.9-0.1,1.4H134z M133.9,34.1h4.9c-0.3-1.2-1.1-1.8-2.4-1.8C135.1,32.3,134.2,32.9,133.9,34.1z"
			/>
		<path class="st2" d="M150.5,32.8h-2.3v4c0,0.5,0.2,0.7,0.5,0.9c0.4,0.1,1,0.2,1.8,0.1v3.1c-2.2,0.2-3.7,0-4.5-0.6
			c-0.8-0.6-1.3-1.8-1.3-3.5v-4h-1.8v-3.3h1.8v-2.6h3.4v2.6h2.3V32.8z"/>
		<polygon class="st2" points="123.2,35.9 126.6,40.9 130.6,40.9 126.5,35.2 130.7,29.5 126.9,29.5 123.2,34.6 123.2,23.7 
			119.8,26.1 119.8,40.9 123.2,40.9 		"/>
	</g>
	<g>
		<path class="st2" d="M9.6,32.9c0,0.2,0.2,0.4,0.6,0.6c0.4,0.1,0.9,0.3,1.4,0.4c0.5,0.1,1.1,0.3,1.6,0.6c0.5,0.2,1,0.6,1.4,1.1
			c0.4,0.5,0.6,1.2,0.6,2c0,1.2-0.5,2.2-1.4,2.8c-0.9,0.6-2,0.9-3.4,0.9c-2.4,0-4-0.9-4.9-2.7l3-1.7c0.3,0.9,0.9,1.3,1.9,1.3
			c0.8,0,1.2-0.2,1.2-0.7c0-0.2-0.2-0.4-0.6-0.6c-0.4-0.2-0.9-0.3-1.4-0.4c-0.5-0.1-1.1-0.3-1.6-0.6c-0.5-0.2-1-0.6-1.4-1.1
			c-0.4-0.5-0.6-1.1-0.6-1.8c0-1.2,0.4-2.1,1.3-2.8c0.9-0.7,1.9-1,3.2-1c0.9,0,1.8,0.2,2.6,0.6c0.8,0.4,1.4,1,1.9,1.8L12,33.2
			c-0.4-0.7-0.9-1-1.5-1C9.9,32.2,9.6,32.4,9.6,32.9z"/>
		<path class="st2" d="M38.4,29.5h3.4v11.4h-3.4v-1.1c-0.8,0.9-1.9,1.4-3.4,1.4c-1.5,0-2.8-0.6-3.9-1.7c-1.1-1.2-1.6-2.6-1.6-4.3
			c0-1.7,0.5-3.1,1.6-4.3c1.1-1.2,2.3-1.7,3.9-1.7c1.5,0,2.6,0.5,3.4,1.4V29.5z M33.8,37.3c0.5,0.5,1.2,0.8,2,0.8
			c0.8,0,1.5-0.3,2-0.8c0.5-0.5,0.8-1.2,0.8-2c0-0.9-0.3-1.5-0.8-2c-0.5-0.5-1.2-0.8-2-0.8c-0.8,0-1.5,0.3-2,0.8
			c-0.5,0.5-0.8,1.2-0.8,2C33,36.1,33.3,36.8,33.8,37.3z"/>
		<path class="st2" d="M47.8,31.6c0.2-0.7,0.6-1.3,1.3-1.7c0.6-0.4,1.4-0.6,2.1-0.6v3.9c-0.8-0.1-1.6,0-2.3,0.4
			c-0.7,0.4-1.1,1.1-1.1,2.2v5.1h-3.4V29.5h3.4V31.6z"/>
		<path class="st2" d="M55.5,36.6c0.4,1.1,1.3,1.6,2.7,1.6c0.9,0,1.7-0.3,2.2-0.9l2.7,1.6c-1.1,1.6-2.8,2.3-5,2.3
			c-1.9,0-3.4-0.6-4.6-1.7c-1.1-1.1-1.7-2.6-1.7-4.3c0-1.7,0.6-3.1,1.7-4.3c1.1-1.1,2.6-1.7,4.4-1.7c1.7,0,3,0.6,4.1,1.7
			c1.1,1.1,1.7,2.6,1.7,4.3c0,0.5,0,0.9-0.1,1.4H55.5z M55.4,34.1h4.9c-0.3-1.2-1.1-1.8-2.4-1.8C56.6,32.3,55.8,32.9,55.4,34.1z"/>
		<path class="st2" d="M23.6,29.2c1.2,0,2.2,0.4,3,1.3c0.8,0.8,1.2,2,1.2,3.5v7h-3.4v-6.5c0-0.7-0.2-1.2-0.6-1.5
			c-0.4-0.4-0.8-0.5-1.4-0.5c-0.7,0-1.2,0.2-1.5,0.6c-0.4,0.4-0.6,1-0.6,1.8v6.2h-3.4V26.1l3.4-2.3v6.9C21,29.7,22.1,29.2,23.6,29.2
			z"/>
	</g>
</g>
<g>
	<g>
		<path class="st1" d="M181.2,112.3c0,3.4-2.8,6.2-6.2,6.2c-1.2,0-2.4-0.4-3.3-1c-0.8-0.5-1.4-1.2-1.9-2c-0.6-1-0.9-2.1-0.9-3.3
			c0-3.4,2.8-6.2,6.2-6.2S181.2,108.9,181.2,112.3z"/>
	</g>
	<g>
		<path class="st2" d="M93.8,127.1c2.1,0,3.7,0.7,5,2c1.2,1.4,1.9,3.2,1.9,5.4v11h-5.4V135c0-0.9-0.2-1.6-0.7-2.2
			c-0.4-0.5-1.1-0.8-1.9-0.8c-0.9,0-1.6,0.3-2.1,0.9c-0.5,0.6-0.7,1.4-0.7,2.5v10.1h-5.4V135c0-0.9-0.2-1.6-0.7-2.2
			c-0.4-0.5-1.1-0.8-1.9-0.8c-0.9,0-1.6,0.3-2.1,0.9c-0.5,0.6-0.7,1.4-0.7,2.5v10.1h-5.4v-17.9h5.4v1.7c1-1.4,2.6-2.2,4.8-2.2
			c2.1,0,3.6,0.8,4.7,2.4C89.7,127.9,91.5,127.1,93.8,127.1z"/>
		<path class="st2" d="M117.4,127.6h5.4v17.9h-5.4v-1.7c-1.3,1.5-3,2.2-5.3,2.2c-2.4,0-4.4-0.9-6.1-2.7c-1.7-1.8-2.5-4.1-2.5-6.7
			c0-2.7,0.8-4.9,2.5-6.7c1.7-1.8,3.7-2.7,6.1-2.7c2.3,0,4.1,0.7,5.3,2.2V127.6z M110,139.8c0.8,0.8,1.8,1.2,3.1,1.2
			c1.3,0,2.3-0.4,3.1-1.2c0.8-0.8,1.2-1.9,1.2-3.2c0-1.3-0.4-2.4-1.2-3.2c-0.8-0.8-1.8-1.2-3.1-1.2c-1.3,0-2.3,0.4-3.1,1.2
			c-0.8,0.8-1.2,1.9-1.2,3.2C108.8,137.9,109.2,139,110,139.8z"/>
		<path class="st2" d="M132.1,130.8c0.3-1.1,1-2,2-2.6c1-0.6,2.1-0.9,3.4-0.9v6.1c-1.3-0.2-2.5,0-3.7,0.7c-1.1,0.7-1.7,1.8-1.7,3.4
			v8.1h-5.4v-17.9h5.4V130.8z"/>
		<path class="st2" d="M162.3,138.7c0.6,1.7,2.1,2.5,4.3,2.5c1.5,0,2.6-0.5,3.4-1.4l4.3,2.5c-1.8,2.5-4.4,3.7-7.8,3.7
			c-3,0-5.4-0.9-7.2-2.7c-1.8-1.8-2.7-4.1-2.7-6.8c0-2.7,0.9-5,2.7-6.8c1.8-1.8,4.1-2.7,6.9-2.7c2.6,0,4.8,0.9,6.5,2.7
			c1.7,1.8,2.6,4.1,2.6,6.8c0,0.8-0.1,1.5-0.2,2.2H162.3z M162.2,134.7h7.7c-0.5-1.9-1.8-2.8-3.8-2.8
			C164,131.9,162.7,132.8,162.2,134.7z"/>
		<path class="st2" d="M188.3,132.8h-3.7v6.3c0,0.7,0.3,1.2,0.9,1.4c0.6,0.2,1.5,0.3,2.8,0.2v4.9c-3.4,0.4-5.8,0-7.1-1
			c-1.3-1-2-2.8-2-5.4v-6.3h-2.9v-5.2h2.9v-4.2h5.4v4.2h3.7V132.8z"/>
		<polygon class="st2" points="145.4,137.7 150.7,145.6 157,145.6 150.5,136.6 157.2,127.6 151.1,127.6 145.4,135.5 145.4,118.5 
			140,122.1 140,145.6 145.4,145.6 		"/>
	</g>
	<g>
		<path class="st2" d="M78.7,105.3c0,0.4,0.3,0.7,0.9,0.9c0.6,0.2,1.3,0.5,2.2,0.7c0.9,0.2,1.7,0.5,2.6,0.9c0.9,0.4,1.6,1,2.2,1.8
			c0.6,0.8,0.9,1.9,0.9,3.1c0,1.9-0.7,3.4-2.2,4.4c-1.4,1-3.2,1.5-5.3,1.5c-3.8,0-6.4-1.4-7.7-4.3l4.7-2.7c0.5,1.4,1.5,2.1,3,2.1
			c1.3,0,1.9-0.4,1.9-1.1c0-0.4-0.3-0.7-0.9-0.9c-0.6-0.2-1.3-0.5-2.2-0.7c-0.9-0.2-1.7-0.5-2.6-0.9c-0.9-0.4-1.6-1-2.2-1.7
			c-0.6-0.8-0.9-1.8-0.9-2.9c0-1.9,0.7-3.3,2-4.3c1.4-1,3-1.5,5-1.5c1.5,0,2.8,0.3,4.1,1c1.2,0.7,2.2,1.6,2.9,2.9l-4.6,2.5
			c-0.6-1.1-1.4-1.6-2.4-1.6C79.2,104.3,78.7,104.6,78.7,105.3z"/>
		<path class="st2" d="M124.2,100.1h5.4V118h-5.4v-1.7c-1.3,1.5-3,2.2-5.3,2.2c-2.4,0-4.4-0.9-6.1-2.7c-1.7-1.8-2.5-4.1-2.5-6.7
			c0-2.7,0.8-4.9,2.5-6.7c1.7-1.8,3.7-2.7,6.1-2.7c2.3,0,4.1,0.7,5.3,2.2V100.1z M116.8,112.2c0.8,0.8,1.8,1.2,3.1,1.2
			c1.3,0,2.3-0.4,3.1-1.2c0.8-0.8,1.2-1.9,1.2-3.2s-0.4-2.4-1.2-3.2c-0.8-0.8-1.8-1.2-3.1-1.2c-1.3,0-2.3,0.4-3.1,1.2
			c-0.8,0.8-1.2,1.9-1.2,3.2S116,111.4,116.8,112.2z"/>
		<path class="st2" d="M138.9,103.3c0.3-1.1,1-2,2-2.6c1-0.6,2.1-0.9,3.4-0.9v6.1c-1.3-0.2-2.5,0-3.7,0.7c-1.1,0.7-1.7,1.8-1.7,3.4
			v8.1h-5.4v-17.9h5.4V103.3z"/>
		<path class="st2" d="M151.1,111.2c0.6,1.7,2.1,2.5,4.3,2.5c1.5,0,2.6-0.5,3.4-1.4l4.3,2.5c-1.8,2.5-4.4,3.7-7.8,3.7
			c-3,0-5.4-0.9-7.2-2.7c-1.8-1.8-2.7-4.1-2.7-6.8c0-2.7,0.9-5,2.7-6.8c1.8-1.8,4.1-2.7,6.9-2.7c2.6,0,4.8,0.9,6.5,2.7
			c1.7,1.8,2.6,4.1,2.6,6.8c0,0.8-0.1,1.5-0.2,2.2H151.1z M150.9,107.2h7.7c-0.5-1.9-1.8-2.8-3.8-2.8
			C152.8,104.3,151.5,105.3,150.9,107.2z"/>
		<path class="st2" d="M100.8,99.6c1.9,0,3.5,0.7,4.8,2c1.3,1.3,1.9,3.1,1.9,5.5v11h-5.4v-10.2c0-1.1-0.3-1.9-0.9-2.4
			c-0.6-0.6-1.3-0.8-2.2-0.8c-1,0-1.8,0.3-2.4,0.9c-0.6,0.6-0.9,1.5-0.9,2.8v9.8h-5.4V94.6l5.4-3.6v10.8
			C96.7,100.3,98.4,99.6,100.8,99.6z"/>
	</g>
</g>
</svg>
