<?xml version="1.0" encoding="utf-8"?>
<!-- Generator: Adobe Illustrator 28.1.0, SVG Export Plug-In . SVG Version: 6.00 Build 0)  -->
<svg version="1.1" id="Layer_1" xmlns="http://www.w3.org/2000/svg" xmlns:xlink="http://www.w3.org/1999/xlink" x="0px" y="0px"
	 viewBox="0 0 120 50" style="enable-background:new 0 0 120 50;" xml:space="preserve">
<style type="text/css">
	.st0{fill:#5F17C5;}
	.st1{fill:#17C55F;}
	.st2{fill:#FFFFFF;}
</style>
<rect class="st0" width="120" height="50"/>
<g>
	<g>
		<path class="st1" d="M57.6,28.4c0,1.5-1.2,2.8-2.8,2.8c-0.6,0-1.1-0.2-1.5-0.4c-0.4-0.2-0.6-0.5-0.9-0.9c-0.3-0.4-0.4-0.9-0.4-1.5
			c0-1.5,1.2-2.8,2.8-2.8C56.4,25.6,57.6,26.9,57.6,28.4z"/>
	</g>
	<g>
		<path class="st2" d="M68.9,22.7c0.9,0,1.7,0.3,2.2,0.9c0.6,0.6,0.8,1.4,0.8,2.4v5h-2.4v-4.7c0-0.4-0.1-0.7-0.3-1
			c-0.2-0.2-0.5-0.4-0.9-0.4c-0.4,0-0.7,0.1-0.9,0.4c-0.2,0.3-0.3,0.6-0.3,1.1V31h-2.4v-4.7c0-0.4-0.1-0.7-0.3-1
			c-0.2-0.2-0.5-0.4-0.9-0.4c-0.4,0-0.7,0.1-0.9,0.4c-0.2,0.3-0.3,0.6-0.3,1.1V31h-2.4v-8.1h2.4v0.7c0.4-0.6,1.2-1,2.2-1
			c0.9,0,1.6,0.4,2.1,1.1C67,23,67.8,22.7,68.9,22.7z"/>
		<path class="st2" d="M79.4,22.9h2.4V31h-2.4v-0.8c-0.6,0.7-1.4,1-2.4,1c-1.1,0-2-0.4-2.7-1.2c-0.8-0.8-1.1-1.8-1.1-3
			s0.4-2.2,1.1-3c0.8-0.8,1.7-1.2,2.7-1.2c1,0,1.8,0.3,2.4,1V22.9z M76.1,28.4c0.4,0.4,0.8,0.5,1.4,0.5c0.6,0,1-0.2,1.4-0.5
			c0.4-0.4,0.5-0.8,0.5-1.4c0-0.6-0.2-1.1-0.5-1.4c-0.4-0.4-0.8-0.5-1.4-0.5c-0.6,0-1,0.2-1.4,0.5c-0.4,0.4-0.5,0.8-0.5,1.4
			C75.6,27.5,75.8,28,76.1,28.4z"/>
		<path class="st2" d="M86.1,24.3c0.2-0.5,0.5-0.9,0.9-1.2c0.5-0.3,1-0.4,1.5-0.4v2.7c-0.6-0.1-1.1,0-1.7,0.3
			c-0.5,0.3-0.8,0.8-0.8,1.5V31h-2.4v-8.1h2.4V24.3z"/>
		<path class="st2" d="M99.7,27.9c0.3,0.8,0.9,1.1,1.9,1.1c0.7,0,1.2-0.2,1.5-0.6l1.9,1.1c-0.8,1.1-2,1.7-3.5,1.7
			c-1.4,0-2.4-0.4-3.3-1.2c-0.8-0.8-1.2-1.8-1.2-3.1c0-1.2,0.4-2.2,1.2-3c0.8-0.8,1.8-1.2,3.1-1.2c1.2,0,2.1,0.4,2.9,1.2
			c0.8,0.8,1.2,1.8,1.2,3c0,0.3,0,0.7-0.1,1H99.7z M99.6,26.1h3.5c-0.2-0.9-0.8-1.3-1.7-1.3C100.4,24.8,99.8,25.3,99.6,26.1z"/>
		<path class="st2" d="M111.3,25.2h-1.7v2.9c0,0.3,0.1,0.5,0.4,0.6c0.3,0.1,0.7,0.1,1.3,0.1V31c-1.5,0.2-2.6,0-3.2-0.4
			c-0.6-0.5-0.9-1.3-0.9-2.4v-2.9H106v-2.3h1.3V21h2.4v1.9h1.7V25.2z"/>
		<polygon class="st2" points="92,27.4 94.5,31 97.3,31 94.3,26.9 97.4,22.9 94.6,22.9 92,26.5 92,18.8 89.6,20.4 89.6,31 92,31 		
			"/>
	</g>
	<g>
		<path class="st2" d="M11.5,25.3c0,0.2,0.1,0.3,0.4,0.4c0.3,0.1,0.6,0.2,1,0.3c0.4,0.1,0.8,0.2,1.2,0.4c0.4,0.2,0.7,0.4,1,0.8
			c0.3,0.4,0.4,0.8,0.4,1.4c0,0.9-0.3,1.5-1,2c-0.6,0.4-1.4,0.7-2.4,0.7c-1.7,0-2.9-0.6-3.5-1.9l2.1-1.2c0.2,0.6,0.7,1,1.4,1
			c0.6,0,0.9-0.2,0.9-0.5c0-0.2-0.1-0.3-0.4-0.4c-0.3-0.1-0.6-0.2-1-0.3c-0.4-0.1-0.8-0.2-1.2-0.4c-0.4-0.2-0.7-0.4-1-0.8
			C9.2,26.3,9,25.8,9,25.3c0-0.8,0.3-1.5,0.9-2c0.6-0.5,1.4-0.7,2.3-0.7c0.7,0,1.3,0.1,1.8,0.4c0.5,0.3,1,0.7,1.3,1.3l-2.1,1.1
			c-0.3-0.5-0.6-0.7-1.1-0.7C11.7,24.8,11.5,25,11.5,25.3z"/>
		<path class="st2" d="M32,22.9h2.4V31H32v-0.8c-0.6,0.7-1.4,1-2.4,1c-1.1,0-2-0.4-2.7-1.2c-0.8-0.8-1.1-1.8-1.1-3
			c0-1.2,0.4-2.2,1.1-3c0.8-0.8,1.7-1.2,2.7-1.2c1,0,1.8,0.3,2.4,1V22.9z M28.7,28.4c0.4,0.4,0.8,0.5,1.4,0.5c0.6,0,1-0.2,1.4-0.5
			c0.4-0.4,0.5-0.8,0.5-1.4c0-0.6-0.2-1.1-0.5-1.4c-0.4-0.4-0.8-0.5-1.4-0.5c-0.6,0-1,0.2-1.4,0.5c-0.4,0.4-0.5,0.8-0.5,1.4
			C28.1,27.5,28.3,28,28.7,28.4z"/>
		<path class="st2" d="M38.6,24.3c0.2-0.5,0.5-0.9,0.9-1.2c0.5-0.3,1-0.4,1.5-0.4v2.7c-0.6-0.1-1.1,0-1.7,0.3
			c-0.5,0.3-0.8,0.8-0.8,1.5V31h-2.4v-8.1h2.4V24.3z"/>
		<path class="st2" d="M44.1,27.9C44.3,28.7,45,29,46,29c0.7,0,1.2-0.2,1.5-0.6l1.9,1.1c-0.8,1.1-2,1.7-3.5,1.7
			c-1.4,0-2.4-0.4-3.3-1.2c-0.8-0.8-1.2-1.8-1.2-3.1c0-1.2,0.4-2.2,1.2-3c0.8-0.8,1.8-1.2,3.1-1.2c1.2,0,2.1,0.4,2.9,1.2
			c0.8,0.8,1.2,1.8,1.2,3c0,0.3,0,0.7-0.1,1H44.1z M44,26.1h3.5c-0.2-0.9-0.8-1.3-1.7-1.3C44.8,24.8,44.2,25.3,44,26.1z"/>
		<path class="st2" d="M21.4,22.7c0.9,0,1.6,0.3,2.2,0.9c0.6,0.6,0.9,1.4,0.9,2.5v5H22v-4.6c0-0.5-0.1-0.8-0.4-1.1
			c-0.3-0.3-0.6-0.4-1-0.4c-0.5,0-0.8,0.1-1.1,0.4c-0.3,0.3-0.4,0.7-0.4,1.2V31h-2.4V20.4l2.4-1.6v4.9C19.6,23,20.4,22.7,21.4,22.7z
			"/>
	</g>
</g>
<g>
	<g>
		<path class="st1" d="M136,131.5c0,2.5-2,4.5-4.5,4.5c-0.9,0-1.7-0.3-2.4-0.7c-0.6-0.4-1-0.8-1.4-1.4c-0.4-0.7-0.7-1.5-0.7-2.4
			c0-2.5,2-4.5,4.5-4.5C134,127,136,129,136,131.5z"/>
	</g>
	<g>
		<path class="st2" d="M72.5,142.2c1.5,0,2.7,0.5,3.6,1.5c0.9,1,1.4,2.3,1.4,3.9v8h-3.9V148c0-0.7-0.2-1.2-0.5-1.6
			c-0.3-0.4-0.8-0.6-1.4-0.6c-0.6,0-1.1,0.2-1.5,0.7c-0.4,0.4-0.5,1-0.5,1.8v7.3h-3.9V148c0-0.7-0.2-1.2-0.5-1.6
			c-0.3-0.4-0.8-0.6-1.4-0.6c-0.6,0-1.1,0.2-1.5,0.7c-0.4,0.4-0.5,1-0.5,1.8v7.3h-3.9v-13h3.9v1.2c0.7-1,1.9-1.6,3.5-1.6
			c1.5,0,2.6,0.6,3.4,1.7C69.5,142.8,70.8,142.2,72.5,142.2z"/>
		<path class="st2" d="M89.6,142.6h3.9v13h-3.9v-1.2c-0.9,1.1-2.2,1.6-3.9,1.6c-1.7,0-3.2-0.7-4.4-2c-1.2-1.3-1.8-3-1.8-4.9
			s0.6-3.6,1.8-4.9c1.2-1.3,2.7-2,4.4-2c1.7,0,3,0.5,3.9,1.6V142.6z M84.2,151.4c0.6,0.6,1.3,0.9,2.2,0.9c0.9,0,1.7-0.3,2.2-0.9
			c0.6-0.6,0.9-1.3,0.9-2.3c0-1-0.3-1.7-0.9-2.3c-0.6-0.6-1.3-0.9-2.2-0.9c-0.9,0-1.7,0.3-2.2,0.9c-0.6,0.6-0.9,1.3-0.9,2.3
			C83.4,150.1,83.7,150.9,84.2,151.4z"/>
		<path class="st2" d="M100.3,144.9c0.2-0.8,0.7-1.5,1.5-1.9c0.7-0.4,1.6-0.7,2.4-0.7v4.4c-1-0.2-1.8,0-2.7,0.5
			c-0.8,0.5-1.2,1.3-1.2,2.5v5.9h-3.9v-13h3.9V144.9z"/>
		<path class="st2" d="M122.2,150.7c0.5,1.2,1.5,1.8,3.1,1.8c1.1,0,1.9-0.3,2.5-1l3.1,1.8c-1.3,1.8-3.2,2.7-5.7,2.7
			c-2.2,0-3.9-0.7-5.2-2c-1.3-1.3-2-2.9-2-4.9c0-2,0.6-3.6,1.9-4.9c1.3-1.3,3-2,5-2c1.9,0,3.5,0.7,4.7,2c1.3,1.3,1.9,2.9,1.9,4.9
			c0,0.6-0.1,1.1-0.2,1.6H122.2z M122.1,147.8h5.6c-0.4-1.4-1.3-2.1-2.8-2.1C123.4,145.7,122.5,146.4,122.1,147.8z"/>
		<path class="st2" d="M141.1,146.4h-2.7v4.6c0,0.5,0.2,0.9,0.6,1c0.4,0.1,1.1,0.2,2.1,0.1v3.5c-2.5,0.3-4.2,0-5.2-0.7
			c-1-0.7-1.4-2.1-1.4-3.9v-4.6h-2.1v-3.8h2.1v-3h3.9v3h2.7V146.4z"/>
		<polygon class="st2" points="109.9,149.9 113.8,155.6 118.4,155.6 113.6,149.1 118.5,142.6 114.1,142.6 109.9,148.4 109.9,136 
			106,138.6 106,155.6 109.9,155.6 		"/>
	</g>
	<g>
		<path class="st2" d="M61.5,126.4c0,0.3,0.2,0.5,0.7,0.6c0.4,0.2,1,0.3,1.6,0.5c0.6,0.2,1.3,0.4,1.9,0.6c0.6,0.3,1.2,0.7,1.6,1.3
			c0.4,0.6,0.7,1.4,0.7,2.3c0,1.4-0.5,2.5-1.6,3.2S64,136,62.5,136c-2.7,0-4.6-1-5.6-3.1l3.4-1.9c0.3,1,1.1,1.5,2.2,1.5
			c0.9,0,1.4-0.3,1.4-0.8c0-0.3-0.2-0.5-0.7-0.7c-0.4-0.2-1-0.3-1.6-0.5c-0.6-0.2-1.3-0.4-1.9-0.7c-0.6-0.3-1.2-0.7-1.6-1.3
			c-0.4-0.6-0.7-1.3-0.7-2.1c0-1.4,0.5-2.4,1.5-3.2s2.2-1.1,3.6-1.1c1.1,0,2.1,0.2,2.9,0.7c0.9,0.5,1.6,1.2,2.1,2.1l-3.3,1.8
			c-0.4-0.8-1-1.1-1.7-1.1C61.9,125.7,61.5,125.9,61.5,126.4z"/>
		<path class="st2" d="M94.5,122.6h3.9v13h-3.9v-1.2c-0.9,1.1-2.2,1.6-3.9,1.6c-1.7,0-3.2-0.7-4.4-2c-1.2-1.3-1.8-3-1.8-4.9
			c0-1.9,0.6-3.6,1.8-4.9c1.2-1.3,2.7-2,4.4-2c1.7,0,3,0.5,3.9,1.6V122.6z M89.2,131.4c0.6,0.6,1.3,0.9,2.2,0.9
			c0.9,0,1.7-0.3,2.2-0.9c0.6-0.6,0.9-1.3,0.9-2.3c0-1-0.3-1.7-0.9-2.3c-0.6-0.6-1.3-0.9-2.2-0.9c-0.9,0-1.7,0.3-2.2,0.9
			c-0.6,0.6-0.9,1.3-0.9,2.3C88.3,130.1,88.6,130.8,89.2,131.4z"/>
		<path class="st2" d="M105.2,124.9c0.2-0.8,0.7-1.5,1.5-1.9c0.7-0.4,1.6-0.7,2.4-0.7v4.4c-1-0.2-1.8,0-2.7,0.5
			c-0.8,0.5-1.2,1.3-1.2,2.5v5.9h-3.9v-13h3.9V124.9z"/>
		<path class="st2" d="M114,130.7c0.5,1.2,1.5,1.8,3.1,1.8c1.1,0,1.9-0.3,2.5-1l3.1,1.8c-1.3,1.8-3.2,2.7-5.7,2.7
			c-2.2,0-3.9-0.7-5.2-2c-1.3-1.3-2-2.9-2-4.9c0-2,0.6-3.6,1.9-4.9c1.3-1.3,3-2,5-2c1.9,0,3.5,0.7,4.7,2c1.3,1.3,1.9,2.9,1.9,4.9
			c0,0.6-0.1,1.1-0.2,1.6H114z M114,127.7h5.6c-0.4-1.4-1.3-2.1-2.8-2.1C115.3,125.7,114.3,126.4,114,127.7z"/>
		<path class="st2" d="M77.5,122.2c1.4,0,2.5,0.5,3.5,1.4c0.9,1,1.4,2.3,1.4,4v8h-3.9v-7.4c0-0.8-0.2-1.4-0.6-1.8
			c-0.4-0.4-1-0.6-1.6-0.6c-0.7,0-1.3,0.2-1.8,0.7c-0.4,0.5-0.7,1.1-0.7,2v7.1h-3.9v-17l3.9-2.6v7.8
			C74.6,122.8,75.8,122.2,77.5,122.2z"/>
	</g>
</g>
</svg>
